<svg width="136" height="69" viewBox="0 0 136 69" fill="none" xmlns="http://www.w3.org/2000/svg">
<path fill-rule="evenodd" clip-rule="evenodd" d="M17.9792 49.0083V38.8354L24.82 41.201V51.5004L17.9792 49.0083ZM32.9143 49.0083V38.8354L26.0735 41.201V51.5004L32.9143 49.0083ZM25.6043 36.0961L32.0235 38.196L25.6043 40.4075L18.6909 38.073L25.6043 36.0961ZM9.83392 34.7966V24.6099L16.6747 26.9743V37.2737L9.83392 34.7966ZM24.7713 34.7955V24.6099L17.9305 26.9743V37.2737L24.7713 34.7955ZM17.4613 21.881L23.8805 23.982L17.4613 26.1935L10.5479 23.859L17.4613 21.881ZM25.7969 34.7955V24.6099L32.6377 26.9743V37.2737L25.7969 34.7955ZM40.732 34.7955V24.6099L33.8912 26.9743V37.2737L40.732 34.7955ZM33.4333 21.881L39.8525 23.982L33.4333 26.1935L26.52 23.859L33.4333 21.881ZM33.9524 20.5815V10.4074L40.7932 12.773V23.0712L33.9524 20.5815ZM48.8784 20.5803V10.4074L42.0376 12.773V23.0712L48.8784 20.5803ZM41.5673 7.67041L47.9865 9.77031L41.5673 11.9818L34.6539 9.64726L41.5673 7.67041ZM49.9029 20.5815V10.4074L56.7437 12.773V23.0712L49.9029 20.5815ZM64.8267 20.5815V10.4074L57.9859 12.773V23.0712L64.8267 20.5815ZM57.528 7.67041L63.9472 9.77031L57.528 11.9818L50.6147 9.64726L57.528 7.67041Z" fill="#FF9900"/>
<path d="M53.2644 44.8707L50.966 52.9713H49.9686L48.1553 46.9545L46.5142 52.9713H45.4965L43.1086 44.8707H44.3553L46.0949 50.9082L47.7496 44.8707H48.6608L50.4605 50.9266L52.2489 44.8707H53.2519H53.2644ZM59.6201 50.554L60.7761 50.784C60.5639 51.4791 60.1311 52.0835 59.5453 52.5032C58.9333 52.9575 58.217 53.184 57.392 53.184C56.304 53.184 55.4222 52.7953 54.749 52.0156C54.0758 51.2359 53.7291 50.2159 53.7291 48.9532C53.7291 47.6629 54.069 46.621 54.7785 45.8252C55.1037 45.4413 55.5086 45.1352 55.9642 44.929C56.4198 44.7228 56.9148 44.6216 57.4135 44.6326C58.4562 44.6326 59.2926 44.9983 59.9272 45.7309C60.5619 46.4634 60.886 47.5571 60.9019 49.0153H55.1072C55.1072 50.24 55.3588 51.0669 55.8642 51.4947C56.3697 51.9225 56.9024 52.1364 57.4645 52.1364C58.4788 52.1364 59.194 51.6051 59.6088 50.5413L59.6201 50.554ZM59.5521 48.0884C59.5408 47.6341 59.4683 47.2305 59.3311 46.8774C59.194 46.5244 58.9628 46.2242 58.6364 45.9758C58.31 45.7274 57.919 45.6032 57.4611 45.6032C57.1683 45.5984 56.8778 45.6559 56.6082 45.772C56.3386 45.888 56.096 46.0601 55.896 46.2771C55.4676 46.7371 55.216 47.3294 55.174 48.0884H59.551H59.5521ZM63.1448 52.9713H62.5475V42.0463H63.7908V46.2323C64.3574 45.1823 65.1508 44.6568 66.1402 44.6568C67.0536 44.6568 67.8198 45.0248 68.4375 45.7573C69.0551 46.4899 69.3634 47.5559 69.3634 48.952C69.3634 50.1561 69.0574 51.1658 68.4522 51.9823C67.847 52.7988 67.0536 53.207 66.0812 53.207C64.9978 53.207 64.1546 52.6849 63.5879 51.643L63.1346 52.9828L63.1448 52.9713ZM63.7908 49.7973C63.8474 50.6287 64.1002 51.2325 64.5444 51.6074C64.9887 51.9823 65.459 52.1824 65.9543 52.1824C66.5856 52.1824 67.0944 51.9041 67.482 51.3475C67.8696 50.7909 68.0623 50.0284 68.0623 49.0613C68.0623 48.0182 67.8753 47.1983 67.5025 46.6003C67.1296 46.0023 66.6105 45.7056 65.9475 45.7056C65.4262 45.7056 64.957 45.9183 64.5376 46.3427C64.1183 46.767 63.8576 47.3167 63.7919 47.9895V49.795L63.7908 49.7973ZM72.5322 50.8714L73.7176 50.623C73.9806 51.6407 74.8147 52.149 76.2155 52.149C76.7312 52.149 77.1698 52.0317 77.5279 51.7971C77.6968 51.6955 77.8358 51.5499 77.9305 51.3754C78.0252 51.2009 78.072 51.0038 78.0663 50.8047C78.0663 50.1722 77.6095 49.7697 76.6972 49.5972L75.0165 49.2729C74.3591 49.1441 73.8344 48.8934 73.4445 48.5185C73.0547 48.1436 72.8609 47.6502 72.8609 47.0235C72.8609 46.3335 73.126 45.7769 73.6587 45.3192C74.1914 44.8615 74.9054 44.6338 75.8064 44.6338C77.5381 44.6338 78.6057 45.3203 79.0137 46.6946L77.8758 46.943C77.5494 46.1035 76.8785 45.6814 75.8642 45.6814C75.3587 45.6814 74.9439 45.7964 74.6209 45.9965C74.4696 46.0857 74.3447 46.2145 74.2593 46.3695C74.174 46.5245 74.1313 46.6999 74.1359 46.8774C74.1359 47.4731 74.5495 47.8469 75.3757 48.0021L76.9284 48.2919C78.5558 48.5909 79.3684 49.3925 79.3684 50.6931C79.3756 51.0465 79.2963 51.3961 79.1376 51.7108C78.979 52.0255 78.746 52.2954 78.4595 52.4963C77.8543 52.954 77.0485 53.184 76.041 53.184C74.1483 53.184 72.981 52.4089 72.5322 50.861V50.8714ZM85.9803 50.554L87.1363 50.784C86.9267 51.4763 86.5164 52.049 85.9055 52.5032C85.2947 52.9575 84.5773 53.184 83.7522 53.184C82.6642 53.184 81.7825 52.7953 81.1092 52.0156C80.4361 51.2359 80.0892 50.2159 80.0892 48.9532C80.0892 47.6629 80.4383 46.621 81.1387 45.8252C81.4639 45.4413 81.8688 45.1352 82.3244 44.929C82.78 44.7228 83.275 44.6216 83.7737 44.6326C84.8141 44.6326 85.6528 44.9983 86.2863 45.7309C86.9199 46.4634 87.2451 47.5571 87.261 49.0153H81.4674C81.4674 50.24 81.719 51.0669 82.2233 51.4947C82.7277 51.9225 83.2614 52.1364 83.8247 52.1364C84.839 52.1364 85.5542 51.6051 85.969 50.5413L85.9803 50.554ZM85.9123 48.0884C85.901 47.6341 85.8273 47.2305 85.6913 46.8774C85.5553 46.5244 85.3241 46.2242 84.9977 45.9758C84.6713 45.7274 84.2803 45.6032 83.8224 45.6032C83.5295 45.5983 83.2387 45.6557 82.9689 45.7717C82.6992 45.8878 82.4564 46.06 82.2562 46.2771C81.8278 46.7371 81.5762 47.3294 81.5354 48.0884H85.9123ZM89.8529 52.9713H88.6096V44.8707H89.6976V46.759C90.083 45.8735 90.4683 45.3008 90.8536 45.0397C91.239 44.7787 91.647 44.6464 92.0414 44.6464C92.2049 44.6487 92.3683 44.6587 92.531 44.6763V45.8792H92.2794C91.596 45.8792 91.0282 46.1368 90.576 46.652C90.1238 47.1672 89.8824 47.8446 89.8506 48.6829V52.9724L89.8529 52.9713ZM100.257 44.8707L97.5006 52.9713H96.212L93.364 44.8707H94.7399L96.9555 51.4544L99.1542 44.8707H100.257ZM102.58 42.0325V43.432H101.252V42.0325H102.583H102.58ZM102.551 44.8695V52.9701H101.32V44.8695H102.563H102.551ZM109.049 50.1342L110.168 50.3343C110.009 51.229 109.66 51.9294 109.118 52.4365C108.577 52.9437 107.9 53.1955 107.078 53.1955C105.979 53.1955 105.152 52.7815 104.562 51.9593C103.973 51.137 103.698 50.1193 103.698 48.9405C103.698 47.71 104.001 46.6865 104.61 45.87C105.219 45.0535 106.046 44.6453 107.103 44.6453C107.972 44.6453 108.667 44.9098 109.192 45.4503C109.717 45.9908 110.042 46.6578 110.167 47.495L109.048 47.7112C108.837 46.3737 108.202 45.7056 107.139 45.7056C106.821 45.6948 106.507 45.7714 106.229 45.9273C105.951 46.0832 105.72 46.3126 105.561 46.5911C105.193 47.181 105.008 47.9458 105.008 48.8865C105.008 49.9215 105.189 50.7265 105.556 51.3015C105.714 51.5717 105.941 51.7941 106.212 51.9456C106.483 52.097 106.789 52.1721 107.099 52.1628C108.125 52.1628 108.774 51.4912 109.048 50.1469L109.049 50.1342ZM117.182 50.554L118.338 50.784C118.126 51.4791 117.693 52.0835 117.107 52.5032C116.495 52.9575 115.779 53.184 114.954 53.184C113.866 53.184 112.982 52.7953 112.31 52.0156C111.638 51.2359 111.29 50.2159 111.29 48.9532C111.29 47.6629 111.63 46.621 112.339 45.8252C112.665 45.4413 113.069 45.1352 113.525 44.929C113.981 44.7228 114.476 44.6216 114.974 44.6326C116.017 44.6326 116.856 44.9983 117.488 45.7309C118.121 46.4634 118.447 47.5571 118.463 49.0153H112.669C112.669 50.24 112.921 51.0669 113.426 51.4947C113.932 51.9225 114.464 52.1364 115.027 52.1364C116.041 52.1364 116.756 51.6051 117.171 50.5413L117.182 50.554ZM117.114 48.0884C117.103 47.6341 117.03 47.2305 116.893 46.8774C116.75 46.5164 116.51 46.2038 116.2 45.9758C115.873 45.7274 115.482 45.6032 115.024 45.6032C114.732 45.5979 114.441 45.6551 114.172 45.7712C113.902 45.8873 113.66 46.0597 113.46 46.2771C113.034 46.7371 112.78 47.3294 112.738 48.0884H117.115H117.114ZM119.177 50.8714L120.362 50.623C120.625 51.6407 121.458 52.149 122.86 52.149C123.376 52.149 123.812 52.0317 124.173 51.7971C124.341 51.6954 124.48 51.5497 124.574 51.3752C124.669 51.2007 124.716 51.0037 124.71 50.8047C124.71 50.1722 124.253 49.7697 123.342 49.5972L121.661 49.2729C121.004 49.1441 120.479 48.8934 120.089 48.5185C119.699 48.1436 119.505 47.6502 119.505 47.0235C119.505 46.3335 119.771 45.7769 120.303 45.3192C120.836 44.8615 121.55 44.6338 122.451 44.6338C124.183 44.6338 125.25 45.3203 125.658 46.6946L124.52 46.943C124.194 46.1035 123.523 45.6814 122.509 45.6814C122.003 45.6814 121.602 45.7964 121.266 45.9965C121.114 46.0857 120.989 46.2145 120.904 46.3695C120.819 46.5245 120.776 46.6999 120.78 46.8774C120.78 47.4731 121.194 47.8469 122.02 48.0021L123.573 48.2919C125.2 48.5909 126.013 49.3925 126.013 50.6931C126.02 51.0465 125.941 51.3961 125.782 51.7108C125.624 52.0255 125.391 52.2954 125.104 52.4963C124.499 52.954 123.693 53.184 122.686 53.184C120.795 53.184 119.626 52.4089 119.178 50.861L119.177 50.8714Z" fill="black" stroke="black" stroke-width="0.213"/>
<path fill-rule="evenodd" clip-rule="evenodd" d="M91.1427 27.5587V25.6129C91.1411 25.5475 91.1527 25.4825 91.1766 25.4218C91.2006 25.3611 91.2364 25.3059 91.282 25.2597C91.3275 25.2135 91.3819 25.1771 91.4417 25.1528C91.5015 25.1285 91.5656 25.1168 91.63 25.1184H100.224C100.498 25.1184 100.719 25.3208 100.72 25.6094V27.2769C100.718 27.5564 100.486 27.9209 100.074 28.5017L95.6239 34.9509C97.2763 34.9118 99.0239 35.1625 100.526 36.0204C100.866 36.2136 100.954 36.4988 100.981 36.7794V38.8551C100.981 39.1426 100.673 39.4727 100.349 39.3002C97.7036 37.8937 94.1948 37.7396 91.2685 39.3163C90.9693 39.4773 90.6565 39.1518 90.6565 38.8655V36.8921C90.6565 36.5758 90.6622 36.0365 90.9761 35.5546L96.1328 28.0451H91.6414C91.5766 28.0481 91.5119 28.0376 91.4512 28.0143C91.3906 27.991 91.3353 27.9554 91.2887 27.9096C91.2421 27.8639 91.2052 27.8089 91.1803 27.7482C91.1554 27.6874 91.143 27.6222 91.1438 27.5564L91.1427 27.5587ZM60.3874 39.7119H57.7728C57.5235 39.6958 57.3252 39.5049 57.3059 39.2519L57.307 25.6359C57.307 25.3633 57.5337 25.146 57.8114 25.146L60.2458 25.1448C60.5008 25.1586 60.7048 25.3541 60.7218 25.6025V27.3804H60.7705C61.4052 25.6612 62.6008 24.8585 64.2113 24.8585C65.8467 24.8585 66.8712 25.6612 67.6045 27.3804C68.2392 25.6612 69.6785 24.8585 71.2164 24.8585C72.3158 24.8585 73.5103 25.3185 74.2424 26.3489C75.072 27.4943 74.902 29.1572 74.902 30.6188L74.8997 39.2116C74.8997 39.4842 74.6731 39.7015 74.3954 39.7015H71.7854C71.5247 39.6843 71.3162 39.4738 71.3162 39.2128V32.0046C71.3162 31.4296 71.3649 29.999 71.2425 29.4539C71.0476 28.5373 70.4492 28.2786 69.7057 28.2786C69.071 28.2786 68.4114 28.7087 68.1417 29.3964C67.872 30.0841 67.898 31.2306 67.898 32.0046V39.222C67.898 39.4945 67.6714 39.7119 67.3937 39.7119H64.7814C64.5184 39.6946 64.3122 39.4842 64.3122 39.2231L64.3099 32.0046C64.3099 30.4866 64.5536 28.251 62.7006 28.251C60.8215 28.251 60.894 30.4279 60.894 32.0046V39.222C60.894 39.4945 60.6674 39.7119 60.3897 39.7119H60.3874ZM107.035 24.8688C110.885 24.8688 112.967 28.2498 112.967 32.5485C112.967 36.7035 110.667 39.9982 107.035 39.9982C103.258 39.9982 101.199 36.6172 101.199 32.4048C101.199 28.1647 103.282 24.8688 107.035 24.8688ZM107.06 27.9991C105.147 27.9991 105.026 30.6637 105.026 32.3254C105.026 33.9872 105.003 37.1899 107.037 37.1899C109.047 37.1899 109.145 34.6749 109.145 32.9269C109.145 31.7815 109.097 30.4049 108.759 29.3159C108.468 28.3706 107.887 27.998 107.064 27.998L107.06 27.9991ZM118.539 39.7119H115.934C115.674 39.6946 115.465 39.4842 115.465 39.2231L115.461 25.6014C115.483 25.3518 115.687 25.1575 115.963 25.1575L118.388 25.1563C118.496 25.1605 118.599 25.1999 118.683 25.2687C118.767 25.3376 118.826 25.4321 118.853 25.5381V27.6081H118.903C119.635 25.7451 120.659 24.8573 122.466 24.8573C123.636 24.8573 124.785 25.2874 125.517 26.4616C126.2 27.5506 126.2 29.3826 126.2 30.7028V39.2703C126.171 39.5003 125.958 39.6992 125.699 39.6992H123.078C122.836 39.6831 122.641 39.5037 122.624 39.2703V31.8758C122.624 30.3865 122.794 28.1958 120.989 28.1958C120.354 28.1958 119.768 28.6259 119.476 29.2848C119.11 30.1163 119.06 30.9466 119.06 31.8643V39.1967C119.056 39.4692 118.83 39.6866 118.55 39.6866L118.539 39.7119ZM84.5898 33.2086C84.5898 34.2436 84.6147 35.1038 84.1002 36.0227C83.6842 36.7702 83.0235 37.2302 82.2902 37.2302C81.2872 37.2302 80.7002 36.4551 80.7002 35.3062C80.7002 33.0476 82.6982 32.6359 84.5875 32.6359V33.2109L84.5898 33.2086ZM87.2259 39.6774C87.0525 39.8349 86.8032 39.8453 86.6082 39.7395C85.7401 39.0069 85.5848 38.67 85.11 37.9708C83.6752 39.4658 82.6586 39.8993 80.7999 39.8993C78.5989 39.8993 76.8865 38.5193 76.8865 35.7639C76.8865 33.61 78.0357 32.146 79.6745 31.4284C81.0934 30.7959 83.0745 30.6809 84.5909 30.5084V30.1634C84.5909 29.5309 84.6396 28.7857 84.2736 28.2395C83.9562 27.7507 83.3442 27.5495 82.8059 27.5495C81.8086 27.5495 80.9223 28.067 80.7036 29.1434C80.6582 29.3826 80.486 29.6183 80.2502 29.631L77.7161 29.3527C77.4894 29.3032 77.2627 29.1296 77.3262 28.7984C77.9087 25.6784 80.6854 24.7366 83.1742 24.7366C84.4458 24.7366 86.1209 25.0816 87.1114 26.0591C88.3842 27.2666 88.2606 28.8731 88.2606 30.6246V34.7577C88.2606 35.9997 88.7706 36.5459 89.2466 37.2164C89.4132 37.4464 89.4506 37.7454 89.2375 37.9213L87.2316 39.6831L87.2248 39.6762L87.2259 39.6774ZM50.6113 33.2086C50.6113 34.2436 50.6362 35.1038 50.1217 36.0227C49.7058 36.7702 49.045 37.2302 48.3118 37.2302C47.3088 37.2302 46.7217 36.4551 46.7217 35.3062C46.7217 33.0476 48.7186 32.6359 50.609 32.6359V33.2109L50.6113 33.2086ZM53.2474 39.6774C53.074 39.8349 52.8247 39.8453 52.6298 39.7395C51.7616 39.0069 51.6052 38.67 51.1315 37.9708C49.6967 39.4658 48.6801 39.8993 46.8214 39.8993C44.6205 39.8993 42.908 38.5193 42.908 35.7639C42.908 33.61 44.0572 32.146 45.696 31.4284C47.115 30.7959 49.096 30.6809 50.6124 30.5084V30.1634C50.6124 29.5309 50.6612 28.7857 50.2951 28.2395C49.9778 27.7507 49.3658 27.5495 48.8274 27.5495C47.8301 27.5495 46.9438 28.067 46.7251 29.1434C46.6798 29.3826 46.4984 29.6183 46.2718 29.631L43.7376 29.3527C43.511 29.3032 43.2843 29.1296 43.3478 28.7984C43.9292 25.6784 46.7058 24.7366 49.1958 24.7366C50.4674 24.7366 52.1424 25.0816 53.1341 26.0591C54.4057 27.2666 54.2833 28.8731 54.2833 30.6246V34.7577C54.2833 35.9997 54.7933 36.5459 55.2693 37.2164C55.4359 37.4464 55.4733 37.7454 55.2614 37.9213L53.2667 39.6831L53.2599 39.6762L53.2474 39.6774Z" fill="black"/>
</svg>
