<svg width="428" height="26" viewBox="0 0 428 26" fill="none" xmlns="http://www.w3.org/2000/svg">
<path d="M421.286 11.592L414.233 3.52321C413.73 2.94844 413.73 2.06516 414.233 1.49035C414.233 1.49033 414.233 1.49031 414.233 1.49029L414.986 2.14843L421.286 11.592ZM421.286 11.592H2H1V12.592V13.6055V14.6055H2H421.286L414.406 22.4768C413.903 23.0516 413.903 23.9349 414.406 24.5096C414.977 25.1635 415.967 25.1635 416.538 24.5097L425.623 14.1152C426.126 13.5404 426.126 12.6571 425.623 12.0823L416.365 1.49035C416.365 1.49034 416.365 1.49033 416.365 1.49032L421.286 11.592ZM415.032 23.1935L415.087 23.2416L415.032 23.1935C415.033 23.1927 415.033 23.192 415.034 23.1912L415.032 23.1935ZM415.912 23.7923C415.912 23.7926 415.912 23.7928 415.912 23.793L415.912 23.7923ZM414.955 2.89219L414.986 2.8651L414.955 2.89219ZM414.859 2.8065L414.859 2.80654C414.859 2.80653 414.859 2.80651 414.859 2.8065Z" fill="#4949C0" stroke="#4949C0" stroke-width="2"/>
</svg>
