<svg width="120" height="60" viewBox="0 0 120 60" fill="none" xmlns="http://www.w3.org/2000/svg">
<path d="M42.596 30.9259C42.5992 29.3666 42.1202 27.8445 41.2245 26.568C40.3289 25.2916 39.0604 24.3233 37.593 23.7959C37.723 23.1159 37.788 22.4259 37.788 21.7329C37.788 15.7399 32.915 10.8669 26.938 10.8669C23.43 10.8669 20.181 12.5399 18.135 15.3669C17.128 14.5869 15.895 14.1649 14.61 14.1649C13.0811 14.166 11.6151 14.7738 10.534 15.8549C9.45288 16.936 8.84506 18.402 8.844 19.9309C8.844 20.6289 8.974 21.3109 9.201 21.9449C6.211 23.0169 4.166 25.8919 4.166 29.0919C4.16337 30.6554 4.64426 32.1814 5.54278 33.4609C6.4413 34.7404 7.71348 35.7107 9.185 36.2389C9.05433 36.9181 8.98903 37.6083 8.99 38.2999C8.99 44.2769 13.847 49.1339 19.824 49.1339C21.5422 49.1346 23.2357 48.7253 24.764 47.94C26.2923 47.1548 27.6111 46.0162 28.611 44.6189C29.618 45.4149 30.851 45.8529 32.136 45.8529C33.6649 45.8519 35.1309 45.2441 36.212 44.1629C37.2931 43.0818 37.9009 41.6159 37.902 40.0869C37.902 39.3889 37.772 38.7069 37.545 38.0729C40.535 37.0009 42.595 34.1259 42.595 30.9259" fill="white"/>
<path d="M19.272 27.3521L27.686 31.1851L36.166 23.7451C36.296 23.1281 36.346 22.5271 36.346 21.8771C36.3423 19.3624 35.3417 16.9518 33.5635 15.1736C31.7854 13.3954 29.3747 12.3948 26.86 12.3911C23.725 12.3911 20.818 13.9341 19.047 16.5171L17.634 23.8421L19.272 27.3521Z" fill="#FED10A"/>
<path d="M10.566 36.253C10.436 36.87 10.386 37.503 10.386 38.153C10.3908 40.6744 11.3956 43.0909 13.18 44.8723C14.9644 46.6537 17.3826 47.6545 19.904 47.655C21.4539 47.655 22.9804 47.2762 24.3504 46.5515C25.7205 45.8268 26.8927 44.7782 27.765 43.497L29.162 36.204L27.294 32.631L18.848 28.781L10.566 36.253Z" fill="#24BBB1"/>
<path d="M10.517 21.7L16.283 23.064L17.55 16.518C16.77 15.918 15.796 15.592 14.79 15.592C13.584 15.5926 12.4275 16.0719 11.5747 16.9247C10.7219 17.7775 10.2425 18.934 10.242 20.14C10.242 20.676 10.339 21.212 10.518 21.7" fill="#EF5098"/>
<path d="M10.014 23.0801C7.44801 23.9251 5.64401 26.3931 5.64401 29.1061C5.64401 31.7541 7.28401 34.1091 9.73701 35.0511L17.827 27.7411L16.349 24.5741L10.014 23.0801Z" fill="#17A8E0"/>
<path d="M29.228 43.497C30.024 44.097 30.982 44.439 31.973 44.439C33.179 44.4385 34.3355 43.9592 35.1883 43.1064C36.0411 42.2536 36.5205 41.0971 36.521 39.891C36.522 39.3536 36.4286 38.8202 36.245 38.315L30.495 36.967L29.228 43.497Z" fill="#93C83E"/>
<path d="M30.398 35.4569L36.733 36.9349C38.0012 36.5105 39.1046 35.6995 39.8882 34.6158C40.6719 33.5321 41.0963 32.2302 41.102 30.8929C41.102 28.2629 39.462 25.8899 37.009 24.9629L28.725 32.2229L30.398 35.4569Z" fill="#0779A1"/>
<path d="M57.896 37.7479L58.659 37.6679L58.709 39.2279C56.695 39.5039 54.973 39.6499 53.544 39.6499C51.644 39.6499 50.296 39.0979 49.5 37.9929C48.704 36.8879 48.314 35.1669 48.314 32.8429C48.314 28.1979 50.166 25.8749 53.854 25.8749C55.641 25.8749 56.974 26.3789 57.85 27.3689C58.726 28.3589 59.166 29.9349 59.166 32.0629L59.052 33.5729H50.31C50.31 35.0349 50.57 36.1229 51.106 36.8209C51.642 37.5189 52.552 37.8769 53.866 37.8769C55.21 37.9061 56.5546 37.8627 57.894 37.7469L57.896 37.7479ZM57.181 32.0139C57.181 30.3899 56.921 29.2369 56.401 28.5709C55.881 27.9049 55.037 27.5639 53.867 27.5639C52.697 27.5639 51.804 27.9209 51.219 28.6199C50.634 29.3189 50.326 30.4549 50.319 32.0149L57.181 32.0139ZM61.924 39.5669V22.1399H63.906V39.5679L61.924 39.5669ZM76.429 30.1629V36.8389C76.429 37.5049 78.069 37.4719 78.069 37.4719L77.972 39.2259C76.575 39.2259 75.422 39.3399 74.724 38.6739C73.2251 39.3355 71.6034 39.6732 69.965 39.6649C68.747 39.6649 67.821 39.3249 67.188 38.6249C66.555 37.9429 66.23 36.9519 66.23 35.6529C66.23 34.3699 66.555 33.4129 67.205 32.8109C67.855 32.2089 68.878 31.8209 70.275 31.6909L74.433 31.2909V30.1539C74.433 29.2609 74.238 28.6109 73.848 28.2209C73.458 27.8309 72.922 27.6359 72.256 27.6359H67.04V25.8899H72.124C73.618 25.8899 74.707 26.2299 75.389 26.9299C76.087 27.6119 76.429 28.6999 76.429 30.1619V30.1629ZM68.275 35.5559C68.275 37.1799 68.941 37.9919 70.289 37.9919C71.4949 37.9944 72.6924 37.7912 73.83 37.3909L74.43 37.1809V32.7999L70.516 33.1739C69.72 33.2389 69.152 33.4659 68.794 33.8559C68.436 34.2459 68.274 34.8139 68.274 35.5459L68.275 35.5559ZM84.175 27.6619C82.258 27.6619 81.285 28.3279 81.285 29.6759C81.285 30.2929 81.512 30.7319 81.951 30.9919C82.39 31.2519 83.397 31.5119 84.971 31.7879C86.545 32.0639 87.651 32.4379 88.301 32.9409C88.951 33.4279 89.276 34.3539 89.276 35.7179C89.276 37.0819 88.836 38.0729 87.96 38.7079C87.084 39.3429 85.816 39.6659 84.127 39.6659C83.039 39.6659 79.384 39.2599 79.384 39.2599L79.498 37.5379L84.143 37.8949C85.166 37.8949 85.946 37.7329 86.483 37.4079C87.02 37.0829 87.295 36.5309 87.295 35.7679C87.295 35.0049 87.068 34.4849 86.613 34.2079C86.158 33.9309 85.151 33.6719 83.593 33.4279C82.035 33.1839 80.929 32.8279 80.28 32.3399C79.63 31.8699 79.305 30.9759 79.305 29.6919C79.305 28.4079 79.76 27.4519 80.669 26.8319C81.578 26.2119 82.716 25.9059 84.064 25.9059C85.136 25.9059 88.872 26.1819 88.872 26.1819V27.9199L84.178 27.6599L84.175 27.6619ZM98.858 27.8889H94.651V34.2239C94.651 35.7339 94.765 36.7419 94.976 37.2139C95.203 37.6839 95.723 37.9289 96.552 37.9289L98.907 37.7669L99.037 39.4069C97.851 39.6019 96.957 39.6989 96.341 39.6989C94.961 39.6989 94.018 39.3589 93.481 38.6919C92.944 38.0249 92.685 36.7419 92.685 34.8589V27.8909H90.801V26.1689H92.685V22.1089H94.65V26.1529H98.857L98.858 27.8889ZM101.618 24.4619V22.1619H103.6V24.4679H101.618V24.4619ZM101.618 39.5679V26.1679H103.6V39.5679H101.618ZM112.218 25.8919C112.803 25.8919 113.794 26.0059 115.19 26.2169L115.823 26.2969L115.743 27.9049L112.623 27.6609C111.129 27.6609 110.105 28.0179 109.569 28.7329C109.033 29.4479 108.757 30.7799 108.757 32.7129C108.757 34.6459 109.001 35.9929 109.504 36.7569C110.007 37.5209 111.047 37.8939 112.639 37.8939L115.759 37.6499L115.839 39.2899L112.152 39.6639C110.089 39.6639 108.66 39.1279 107.88 38.0719C107.1 37.0159 106.694 35.2299 106.694 32.7119C106.694 30.1939 107.116 28.4239 107.961 27.4169C108.821 26.4099 110.235 25.8899 112.217 25.8899L112.218 25.8919Z" fill="black"/>
</svg>
