<svg width="50" height="51" viewBox="0 0 50 51" fill="none" xmlns="http://www.w3.org/2000/svg">
<path fill-rule="evenodd" clip-rule="evenodd" d="M11.0304 36.5399C11.1804 36.6999 11.1804 36.6999 11.2004 35.4599C11.2104 34.2099 11.2504 31.7299 11.2604 30.4799C11.2804 29.2399 11.2804 29.2399 10.8204 28.3799C10.3704 27.5299 9.45041 25.8199 8.67041 23.9999C7.90041 22.1899 7.26041 20.2699 6.72041 18.3199C6.19041 16.3699 5.76041 14.3799 5.50041 12.4399C5.24041 10.4999 5.15041 8.5999 5.12041 7.3699C5.08041 6.1499 5.10041 5.5899 5.11041 5.3199C5.12041 5.0399 5.12041 5.0399 7.20041 4.9899C9.28041 4.9399 13.4404 4.8299 15.8804 4.7799C18.3104 4.7299 19.0204 4.7299 20.0204 4.7299C21.0204 4.7299 22.3204 4.7299 23.8604 4.7299C25.4104 4.7299 27.2104 4.7299 30.7504 4.7599C34.2904 4.7999 39.5704 4.8699 42.2504 4.8999C44.9304 4.9399 45.0004 4.9399 45.0104 4.9799C45.0304 5.0199 45.0004 5.1099 45.0004 5.5099C45.0004 5.8999 45.0304 6.6099 44.9904 7.7499C44.9504 8.8899 44.8204 10.4599 44.5804 12.2399C44.3404 14.0199 43.9804 16.0099 43.4704 17.9199C42.9604 19.8199 42.3004 21.6599 41.6804 23.2399C41.0604 24.8299 40.4704 26.1799 39.8404 27.4199C39.2104 28.6699 38.5404 29.8099 37.8004 30.9899C37.0704 32.1699 36.2704 33.3999 35.2804 34.7999C34.2904 36.1999 33.1004 37.7699 31.5804 39.5199C30.0604 41.2799 28.2104 43.2099 27.0804 44.3699C25.9504 45.5299 25.5304 45.9099 25.3204 46.0999C25.1204 46.2899 25.1204 46.2899 24.2004 45.3999C23.2904 44.5099 21.4604 42.7299 20.5404 41.8399C19.6204 40.9499 19.6204 40.9499 19.6204 40.9299C19.6204 40.9099 19.6204 40.8799 19.6304 38.5599C19.6404 36.2299 19.6604 31.6199 19.6604 27.0899C19.6604 22.5499 19.6404 18.0999 19.6604 15.8499C19.6804 13.6099 19.7304 13.5699 19.7804 13.5399C19.8304 13.4999 19.8804 13.4699 21.5504 13.4299C23.2204 13.3999 26.5004 13.3699 28.2204 13.3599C29.9404 13.3499 30.0904 13.3699 30.1904 13.3899C30.3004 13.4199 30.3504 13.4499 30.3704 13.9399C30.3804 14.4199 30.3704 15.3499 30.3704 17.1799C30.3704 19.0099 30.3804 21.7399 30.3904 23.1799C30.4004 24.6099 30.4004 24.7499 30.3804 24.8299C30.3704 24.9199 30.3304 24.9499 30.1904 24.9699C30.0404 24.9899 29.7804 24.9899 28.6304 24.9799C27.4804 24.9699 25.4504 24.9499 24.4304 24.9599C23.4104 24.9699 23.4104 25.0099 23.4104 25.0399C23.4104 25.0799 23.4104 25.1099 23.4004 25.7799C23.3904 26.4599 23.3704 27.7699 23.3604 28.4299C23.3604 29.0799 23.3604 29.0799 23.3604 29.0699C23.3704 29.0699 23.3904 29.0499 24.8304 29.0399C26.2704 29.0299 29.1404 29.0299 30.6104 29.0099C32.0804 28.9999 32.1504 28.9599 32.6904 28.4299C33.2304 27.8899 34.2504 26.8499 34.7604 26.3399C35.2704 25.8199 35.2704 25.8199 35.2604 25.4999C35.2404 25.1799 35.2004 24.5399 35.2004 22.3499C35.1904 20.1499 35.2004 16.3999 35.2104 14.5099C35.2204 12.6199 35.2204 12.5899 35.2004 12.5399C35.1904 12.4799 35.1504 12.4199 34.6404 11.8899C34.1304 11.3599 33.1504 10.3799 32.6504 9.8799C32.1504 9.3899 32.1304 9.3899 29.8004 9.3899C27.4704 9.3899 22.8204 9.3899 20.4904 9.3999C18.1604 9.4099 18.1404 9.4299 17.6604 9.8799C17.1904 10.3299 16.2604 11.2099 15.7904 11.6699C15.3204 12.1399 15.3204 12.1899 15.3204 12.5699C15.3204 12.9499 15.3204 13.6599 15.3204 14.1199C15.3204 14.5699 15.3204 14.7799 15.3204 19.4399C15.3204 24.1099 15.3204 33.2299 15.3204 37.7899C15.3204 42.3499 15.3204 42.3499 15.3204 42.3499C15.3204 42.3499 15.3204 42.3499 16.2904 43.3499C17.2604 44.3499 19.1904 46.3499 20.4704 47.6299C21.7504 48.9099 22.3704 49.4599 22.6804 49.7399C22.9904 50.0199 22.9904 50.0199 23.0304 50.0199C23.0604 50.0199 23.1304 50.0199 23.8404 50.0099C24.5504 49.9999 25.8904 49.9799 26.5804 49.9699C27.2604 49.9599 27.2804 49.9599 27.2904 49.9599C27.3104 49.9599 27.3304 49.9599 28.4404 48.8899C29.5604 47.8199 31.7704 45.6799 33.4904 43.8499C35.2004 42.0199 36.4304 40.4999 37.6804 38.8199C38.9304 37.1299 40.2104 35.2799 41.5804 32.9499C42.9404 30.6199 44.3904 27.7999 45.4504 25.3899C46.5004 22.9699 47.1604 20.9499 47.7304 18.7699C48.3104 16.5899 48.8104 14.2599 49.1204 11.7799C49.4204 9.2899 49.5204 6.6499 49.5704 5.2999C49.6104 3.9499 49.5904 3.8999 49.0004 3.3099C48.4204 2.7299 47.2604 1.5999 46.6804 1.0399C46.1004 0.479902 46.1004 0.479902 44.6304 0.439902C43.1504 0.389902 40.2004 0.309902 36.5304 0.249902C32.8704 0.189902 28.5004 0.149902 25.4404 0.149902C22.3704 0.149902 20.6104 0.189902 17.2204 0.249902C13.8404 0.309902 8.83041 0.389902 6.33041 0.439902C3.82041 0.479902 3.82041 0.479902 3.51041 0.819902C3.20041 1.1499 2.58041 1.8299 2.01041 2.3999C1.44041 2.9699 0.920408 3.4299 0.670408 3.6899C0.420408 3.9499 0.440408 3.9999 0.470408 5.0199C0.500408 6.0399 0.560408 8.0299 0.760408 10.1399C0.970408 12.2399 1.33041 14.4699 1.87041 16.7799C2.40041 19.0799 3.11041 21.4699 3.96041 23.7099C4.81041 25.9599 5.79041 28.0599 6.61041 29.6499C7.43041 31.2399 8.09041 32.3099 8.67041 33.2499C9.26041 34.1799 9.78041 34.9699 10.1904 35.5299C10.5904 36.0799 10.8804 36.3899 11.0304 36.5399Z" fill="#0057FF"/>
</svg>
