<svg width="120" height="60" viewBox="0 0 120 60" fill="none" xmlns="http://www.w3.org/2000/svg">
<path d="M64.87 11.5721L66.014 11.5921L69.122 8.48406L69.272 7.16706C66.802 4.97006 63.552 3.63306 59.995 3.63306C53.555 3.63306 48.119 8.01506 46.509 13.9511C46.849 13.7141 47.574 13.8911 47.574 13.8911L53.786 12.8691C53.786 12.8691 54.106 12.3391 54.266 12.3721C55.5994 10.9133 57.4392 10.0183 59.4099 9.86968C61.3806 9.72101 63.3338 10.3299 64.871 11.5721H64.87Z" fill="#EA4335"/>
<path d="M73.5 13.962C72.7859 11.3347 71.3207 8.97284 69.284 7.16602L64.882 11.568C65.7854 12.2941 66.5145 13.2135 67.0155 14.2587C67.5165 15.3038 67.7767 16.448 67.777 17.607V18.384C69.919 18.384 71.657 20.127 71.657 22.264C71.657 24.401 69.914 26.144 67.777 26.144H60.015L59.238 26.924V31.582L60.015 32.355H67.777C70.4502 32.3479 73.0118 31.2823 74.9014 29.3914C76.7909 27.5005 77.8547 24.9382 77.86 22.265C77.856 18.829 76.124 15.785 73.49 13.962H73.5Z" fill="#4285F4"/>
<path d="M52.234 32.362H59.994V26.15H52.234C51.6829 26.1502 51.1383 26.0319 50.637 25.803L49.517 26.146L46.409 29.254L46.137 30.304C47.8856 31.6466 50.0304 32.3711 52.235 32.364L52.234 32.362Z" fill="#34A853"/>
<path d="M52.234 12.175C49.5582 12.1793 46.9932 13.2441 45.1012 15.1362C43.2091 17.0283 42.1442 19.5933 42.14 22.269C42.14 23.8272 42.5012 25.3641 43.1952 26.7591C43.8893 28.1541 44.8972 29.3692 46.14 30.309L50.64 25.809C49.9584 25.5024 49.3798 25.0053 48.9739 24.3777C48.568 23.75 48.3521 23.0185 48.352 22.271C48.352 20.129 50.095 18.391 52.232 18.391C52.9792 18.3924 53.7102 18.6088 54.3376 19.0146C54.965 19.4203 55.4623 19.9982 55.77 20.679L60.27 16.179C58.424 13.749 55.51 12.179 52.23 12.179L52.234 12.175Z" fill="#FBBC05"/>
<path d="M12 51.9369C9.88001 51.9369 8.06001 51.1869 6.52601 49.6869C4.99201 48.1869 4.22601 46.3829 4.22601 44.2789C4.22601 42.1749 4.99101 40.3709 6.52601 38.8709C8.06101 37.3709 9.88301 36.6199 12 36.6199C12.9712 36.6058 13.9354 36.7851 14.8366 37.1473C15.7378 37.5096 16.5578 38.0476 17.249 38.7299L15.772 40.2069C14.7613 39.2296 13.4048 38.6921 11.999 38.7119C10.469 38.7119 9.16901 39.2519 8.10301 40.3389C7.58442 40.8539 7.17555 41.4686 6.90108 42.1459C6.6266 42.8233 6.49221 43.5492 6.50601 44.2799C6.50601 45.8259 7.03601 47.1369 8.10301 48.2199C8.60443 48.746 9.20962 49.1623 9.88025 49.4423C10.5509 49.7224 11.2724 49.8602 11.999 49.8469C13.557 49.8469 14.844 49.3469 15.869 48.3129C16.469 47.7129 16.869 46.8129 17.009 45.6779H12.003V43.5859H19.047C19.122 43.9579 19.147 44.3859 19.147 44.8859C19.147 46.9419 18.544 48.5719 17.334 49.7809C15.962 51.2159 14.184 51.9309 11.989 51.9309L12 51.9369ZM28.37 50.5369C27.41 51.4769 26.24 51.9369 24.858 51.9369C23.476 51.9369 22.304 51.4669 21.346 50.5369C20.388 49.6069 19.908 48.4239 19.908 47.0169C19.908 45.6099 20.388 44.4369 21.346 43.4969C22.304 42.5569 23.476 42.0969 24.858 42.0969C26.24 42.0969 27.412 42.5669 28.37 43.4969C29.328 44.4269 29.808 45.6129 29.808 47.0169C29.808 48.4209 29.328 49.5969 28.37 50.5369ZM22.896 49.1569C23.1455 49.428 23.4492 49.6437 23.7873 49.79C24.1255 49.9362 24.4906 50.0098 24.859 50.0059C25.619 50.0059 26.273 49.7239 26.822 49.1559C27.371 48.5879 27.644 47.8759 27.644 47.0159C27.644 46.1459 27.374 45.4279 26.831 44.8659C26.288 44.3039 25.633 44.0259 24.859 44.0259C24.4898 44.0203 24.1236 44.0921 23.7839 44.2368C23.4443 44.3815 23.1387 44.5958 22.887 44.8659C22.344 45.4259 22.074 46.1419 22.074 47.0159C22.074 47.8739 22.347 48.5889 22.896 49.1559V49.1569ZM39.169 50.5369C38.209 51.4769 37.039 51.9369 35.657 51.9369C34.275 51.9369 33.103 51.4669 32.145 50.5369C31.187 49.6069 30.707 48.4239 30.707 47.0169C30.707 45.6099 31.187 44.4369 32.145 43.4969C33.103 42.5569 34.275 42.0969 35.657 42.0969C37.039 42.0969 38.211 42.5669 39.169 43.4969C40.127 44.4269 40.607 45.6129 40.607 47.0169C40.607 48.4209 40.127 49.5969 39.169 50.5369ZM33.695 49.1569C33.9445 49.428 34.2482 49.6437 34.5863 49.79C34.9245 49.9362 35.2896 50.0098 35.658 50.0059C36.418 50.0059 37.072 49.7239 37.621 49.1559C38.17 48.5879 38.443 47.8759 38.443 47.0159C38.443 46.1459 38.173 45.4279 37.63 44.8659C37.087 44.3039 36.432 44.0259 35.658 44.0259C35.2889 44.0203 34.9226 44.0921 34.5829 44.2368C34.2432 44.3815 33.9377 44.5958 33.686 44.8659C33.143 45.4259 32.873 46.1419 32.873 47.0159C32.873 47.8739 33.146 48.5889 33.695 49.1559V49.1569ZM46.268 56.3769C45.173 56.3769 44.251 56.0829 43.504 55.4969C42.757 54.9109 42.222 54.2329 41.898 53.4589L43.786 52.6759C43.984 53.1499 44.286 53.5609 44.719 53.9099C45.152 54.2589 45.659 54.4319 46.271 54.4319C47.093 54.4319 47.739 54.1819 48.204 53.6849C48.669 53.1879 48.904 52.4689 48.904 51.5349V50.8349H48.829C48.229 51.5819 47.352 51.9569 46.233 51.9569C44.975 51.9569 43.873 51.4769 42.926 50.5189C42.466 50.0661 42.1029 49.5244 41.8588 48.9268C41.6147 48.3293 41.4946 47.6883 41.506 47.0429C41.4945 46.3935 41.6143 45.7484 41.8583 45.1464C42.1023 44.5444 42.4655 43.998 42.926 43.5399C43.871 42.5769 44.976 42.0929 46.233 42.0929C46.793 42.0929 47.301 42.1979 47.755 42.4109C48.209 42.6239 48.568 42.8849 48.829 43.1939H48.904V42.3999H50.96V51.2569C50.96 52.9769 50.522 54.2609 49.642 55.1169C48.762 55.9669 47.64 56.3969 46.269 56.3969L46.268 56.3769ZM46.418 50.0049C46.7745 50.0112 47.128 49.9383 47.4529 49.7915C47.7778 49.6447 48.0661 49.4276 48.297 49.1559C48.801 48.5889 49.053 47.8829 49.053 47.0339C49.053 46.1759 48.801 45.4579 48.297 44.8839C48.0675 44.61 47.7796 44.3909 47.4545 44.2424C47.1295 44.094 46.7753 44.02 46.418 44.0259C45.658 44.0259 45.01 44.3139 44.476 44.8839C43.942 45.4539 43.672 46.1719 43.672 47.0339C43.672 47.8799 43.939 48.5889 44.476 49.1559C45.013 49.7229 45.659 50.0059 46.418 50.0059V50.0049ZM54.62 37.1399V51.6399H52.453V37.1399H54.62ZM60.56 51.9359C59.164 51.9359 58 51.4619 57.066 50.5159C56.132 49.5699 55.664 48.3999 55.664 47.0039C55.664 45.5599 56.114 44.3739 57.018 43.4539C57.4421 43.0076 57.9542 42.6542 58.5219 42.416C59.0895 42.1778 59.7005 42.0599 60.316 42.0699C60.913 42.0699 61.469 42.1779 61.979 42.3969C62.4532 42.5912 62.8847 42.8766 63.249 43.2369C63.5529 43.5394 63.8225 43.8744 64.053 44.2359C64.2435 44.5449 64.4062 44.8701 64.539 45.2079L64.764 45.7679L58.17 48.4999C58.67 49.4959 59.47 49.9949 60.562 49.9949C61.558 49.9949 62.369 49.5419 62.99 48.6319L64.67 49.7539C64.295 50.3139 63.767 50.8189 63.082 51.2669C62.397 51.7149 61.554 51.9369 60.558 51.9369L60.56 51.9359ZM57.814 46.8559L62.214 45.0259C62.088 44.7139 61.86 44.4619 61.514 44.2699C61.1661 44.075 60.7728 43.9756 60.374 43.9819C59.738 43.9819 59.144 44.2419 58.591 44.7649C58.038 45.2879 57.771 45.9869 57.796 46.8569L57.814 46.8559ZM76.144 51.9359C74.174 51.9359 72.524 51.2699 71.192 49.9359C69.86 48.6019 69.192 46.9409 69.192 44.9479C69.192 42.9549 69.858 41.2919 71.192 39.9599C72.526 38.6279 74.175 37.9599 76.144 37.9599C78.161 37.9599 79.8 38.6899 81.057 40.1449L79.862 41.3049C78.962 40.1709 77.712 39.6049 76.142 39.6049C74.682 39.6049 73.456 40.0969 72.442 41.0819C71.428 42.0669 70.938 43.3539 70.938 44.9479C70.938 46.5419 71.438 47.8319 72.442 48.8179C73.446 49.8039 74.675 50.2949 76.142 50.2949C77.748 50.2949 79.119 49.6469 80.242 48.3529L81.437 49.5479C80.8108 50.2951 80.0248 50.8921 79.137 51.2949C78.1954 51.7281 77.1695 51.9473 76.133 51.9369L76.144 51.9359ZM84.7 51.6399H82.98V38.2629H84.7V51.6399ZM87.503 43.5799C88.388 42.6529 89.503 42.1869 90.885 42.1869C92.267 42.1869 93.382 42.6519 94.267 43.5799C95.152 44.5079 95.594 45.6799 95.594 47.0649C95.594 48.4499 95.154 49.6219 94.267 50.5499C93.38 51.4779 92.267 51.9429 90.885 51.9429C89.503 51.9429 88.388 51.4779 87.503 50.5499C86.618 49.6219 86.176 48.4499 86.176 47.0649C86.176 45.6799 86.616 44.5079 87.503 43.5799ZM88.783 49.4629C89.383 50.0659 90.077 50.3689 90.883 50.3689C91.689 50.3689 92.383 50.0659 92.983 49.4629C93.583 48.8599 93.871 48.0579 93.871 47.0629C93.871 46.0679 93.574 45.2649 92.983 44.6629C92.392 44.0609 91.689 43.7569 90.883 43.7569C90.077 43.7569 89.383 44.0599 88.783 44.6629C88.183 45.2659 87.895 46.0679 87.895 47.0629C87.895 48.0579 88.192 48.8609 88.783 49.4629ZM105.103 51.6399H103.458V50.3699H103.383C103.123 50.8049 102.723 51.1769 102.188 51.4699C101.653 51.7629 101.088 51.9299 100.488 51.9299C99.341 51.9299 98.474 51.5819 97.883 50.8829C97.292 50.1839 96.995 49.2499 96.995 48.0799V42.4739H98.715V47.7979C98.715 49.5059 99.468 50.3579 100.975 50.3579C101.312 50.365 101.646 50.2908 101.949 50.1414C102.251 49.9921 102.514 49.772 102.713 49.4999C103.158 48.9362 103.395 48.2368 103.385 47.5189V42.4739H105.105V51.6309L105.103 51.6399ZM110.931 51.9369C109.748 51.9369 108.725 51.4689 107.867 50.5349C107.009 49.6009 106.579 48.4429 106.579 47.0589C106.579 45.6749 107.009 44.5169 107.867 43.5829C108.725 42.6489 109.749 42.1809 110.931 42.1809C111.627 42.1809 112.255 42.3309 112.811 42.6279C113.367 42.9249 113.781 43.2999 114.054 43.7499H114.129L114.054 42.4799V38.2599H115.774V51.6399H114.129V50.3699H114.054C113.781 50.8169 113.367 51.1919 112.811 51.4919C112.256 51.7859 111.628 51.9359 110.931 51.9359V51.9369ZM111.211 50.3669C111.599 50.3722 111.984 50.2949 112.34 50.1403C112.696 49.9857 113.015 49.7572 113.276 49.4699C113.843 48.8729 114.126 48.0679 114.126 47.0699C114.126 46.0719 113.844 45.2569 113.276 44.6699C113.015 44.3827 112.696 44.1542 112.34 43.9995C111.984 43.8449 111.599 43.7676 111.211 43.7729C110.413 43.7729 109.728 44.0759 109.155 44.6789C108.582 45.2819 108.297 46.0839 108.297 47.0789C108.297 48.0739 108.582 48.8769 109.155 49.4789C109.414 49.7672 109.731 49.997 110.085 50.1532C110.44 50.3094 110.824 50.3884 111.211 50.3849V50.3669Z" fill="#5F6368"/>
</svg>
