<svg width="74" height="77" viewBox="0 0 74 77" fill="none" xmlns="http://www.w3.org/2000/svg">
<g filter="url(#filter0_d)">
<path d="M36.5 18C26.2742 18 18 26.2749 18 36.5C18 46.7258 26.2749 55 36.5 55C46.7258 55 55 46.7251 55 36.5C55 26.2742 46.7251 18 36.5 18ZM36.5 52.1094C27.872 52.1094 20.8906 45.1274 20.8906 36.5C20.8906 27.872 27.8726 20.8906 36.5 20.8906C45.128 20.8906 52.1094 27.8726 52.1094 36.5C52.1094 45.128 45.1274 52.1094 36.5 52.1094Z" fill="#FF3D00"/>
<path d="M36.5 27.3135C35.7018 27.3135 35.0547 27.9605 35.0547 28.7588V38.0661C35.0547 38.8643 35.7018 39.5114 36.5 39.5114C37.2982 39.5114 37.9453 38.8643 37.9453 38.0661V28.7588C37.9453 27.9605 37.2982 27.3135 36.5 27.3135Z" fill="#FF3D00"/>
<path d="M36.5 45.1833C37.5776 45.1833 38.4512 44.3098 38.4512 43.2322C38.4512 42.1546 37.5776 41.281 36.5 41.281C35.4224 41.281 34.5488 42.1546 34.5488 43.2322C34.5488 44.3098 35.4224 45.1833 36.5 45.1833Z" fill="#FF3D00"/>
</g>
<defs>
<filter id="filter0_d" x="-15" y="-11" width="102" height="102" filterUnits="userSpaceOnUse" color-interpolation-filters="sRGB">
<feFlood flood-opacity="0" result="BackgroundImageFix"/>
<feColorMatrix in="SourceAlpha" type="matrix" values="0 0 0 0 0 0 0 0 0 0 0 0 0 0 0 0 0 0 127 0"/>
<feOffset dy="4"/>
<feGaussianBlur stdDeviation="7.5"/>
<feColorMatrix type="matrix" values="0 0 0 0 0.101961 0 0 0 0 0.101961 0 0 0 0 0.352941 0 0 0 0.07 0"/>
<feBlend mode="normal" in2="BackgroundImageFix" result="effect1_dropShadow"/>
<feBlend mode="normal" in="SourceGraphic" in2="effect1_dropShadow" result="shape"/>
</filter>
</defs>
</svg>
