<svg width="120" height="60" viewBox="0 0 120 60" fill="none" xmlns="http://www.w3.org/2000/svg">
<path d="M110.2 33.8659C110.167 34.0609 110.265 34.1099 110.346 34.1099H110.816C110.979 34.1099 111.016 33.9469 111.016 33.8659L112.3 26.5499C111.373 26.2099 110.3 26.0299 109.57 26.0299C107.44 26.0299 106.57 26.8749 106.205 28.9559L105.603 32.3539C105.572 32.5474 105.555 32.743 105.554 32.9389C105.554 33.9139 106.107 34.2719 107.114 34.2719C108.252 34.2719 109.39 33.7349 110.3 32.9549L110.2 33.8659ZM107.225 33.4599C106.737 33.4599 106.493 33.3299 106.493 32.8259C106.496 32.6678 106.513 32.5103 106.542 32.3549L107.112 29.1199C107.412 27.3799 107.99 26.8439 109.469 26.8439C110.095 26.8515 110.718 26.9389 111.322 27.1039L110.477 31.8999C109.453 32.7999 108.217 33.4599 107.225 33.4599ZM105.273 26.8599L105.387 26.3399C105.42 26.1939 105.354 26.2099 105.273 26.2099H103.046L103.346 24.3899C103.379 24.1949 103.248 24.1619 103.151 24.1899L102.647 24.2549C102.501 24.2709 102.447 24.4009 102.447 24.4549L102.147 26.1949H100.765C100.732 26.1949 100.619 26.2109 100.585 26.3249L100.505 26.8289C100.505 26.8789 100.505 26.9749 100.635 26.9749H101.985L100.945 32.8929L100.912 33.1929C100.912 33.9079 101.416 34.2499 102.212 34.2499C102.83 34.2499 103.952 34.0699 104.504 33.7949C104.667 33.6969 104.65 33.5949 104.618 33.5019L104.504 33.1769C104.471 33.1119 104.39 33.1119 104.324 33.1269C103.787 33.3269 103.479 33.4519 102.374 33.4519C102 33.4519 101.837 33.3719 101.837 33.0519C101.837 32.9719 101.853 32.8719 101.87 32.7589L102.894 26.9389H105.094C105.208 26.9549 105.257 26.9059 105.274 26.8409L105.273 26.8599ZM97.216 33.8659C97.183 34.0609 97.281 34.1099 97.362 34.1099H97.832C97.995 34.1099 98.032 33.9469 98.032 33.8659L99.316 26.5499C98.389 26.2099 97.316 26.0299 96.586 26.0299C94.456 26.0299 93.586 26.8749 93.221 28.9559L92.619 32.3539C92.5879 32.5474 92.5715 32.743 92.57 32.9389C92.57 33.9139 93.123 34.2719 94.13 34.2719C95.268 34.2719 96.406 33.7349 97.316 32.9549L97.216 33.8659ZM94.256 33.4599C93.768 33.4599 93.524 33.3299 93.524 32.8259C93.5274 32.6678 93.5438 32.5103 93.573 32.3549L94.143 29.1199C94.443 27.3799 95.021 26.8439 96.5 26.8439C97.1262 26.8515 97.7489 26.9389 98.353 27.1039L97.508 31.8999C96.484 32.7999 95.248 33.4599 94.256 33.4599ZM89.2 33.8659C89.167 34.0609 89.265 34.1099 89.346 34.1099H89.816C89.979 34.1099 90.016 33.9469 90.016 33.8659L91.918 23.0859C91.951 22.8909 91.82 22.8579 91.723 22.8859L91.219 22.9509C91.073 22.9669 91.019 23.0969 91.019 23.1509L90.466 26.3049C89.978 26.1589 89.068 26.0449 88.548 26.0449C86.532 26.0449 85.548 26.8249 85.183 28.9709L84.581 32.3689C84.5499 32.5624 84.5335 32.758 84.532 32.9539C84.532 33.9289 85.085 34.2869 86.092 34.2869C87.23 34.2869 88.417 33.7499 89.327 32.9699L89.2 33.8659ZM86.176 33.4599C85.688 33.4599 85.444 33.3299 85.444 32.8259C85.4474 32.6678 85.4638 32.5103 85.493 32.3549L86.063 29.1199C86.363 27.3639 86.963 26.8439 88.42 26.8439C89.054 26.8439 89.688 26.9419 90.322 27.1039L89.477 31.8999C88.453 32.7999 87.185 33.4599 86.177 33.4599H86.176ZM83.933 26.1999H81.657C81.559 26.1999 81.429 26.2799 81.397 26.3459L79.797 28.6859L78.854 26.2459C78.804 26.1159 78.674 26.0659 78.578 26.0829L76.595 26.3759L78.302 30.1319L75.164 34.0989H77.294C77.44 34.0989 77.634 34.0339 77.749 33.9039L79.229 32.1319L80.059 33.9039C80.09 33.9599 80.1348 34.0071 80.1889 34.0412C80.2431 34.0753 80.3051 34.0952 80.369 34.0989H82.449L80.774 30.4249L83.933 26.1999ZM74.163 33.9539L75.513 26.2139C75.546 26.0509 75.415 26.0509 75.318 26.0679L73.416 26.3279C73.3483 26.3362 73.285 26.3659 73.2353 26.4126C73.1857 26.4594 73.1523 26.5208 73.14 26.5879L72.31 31.2859C71.725 31.5789 70.684 32.0339 70.262 32.0339C70.034 32.0339 69.962 31.9539 69.962 31.7899C69.962 31.7249 69.978 31.6269 69.995 31.5459L70.922 26.2139C70.955 26.0509 70.824 26.0509 70.742 26.0679L68.856 26.3279C68.7883 26.3362 68.725 26.3659 68.6753 26.4126C68.6257 26.4594 68.5923 26.5208 68.58 26.5879L67.68 31.7419C67.629 32.0393 67.6022 32.3403 67.6 32.6419C67.6 33.6339 68.006 34.2419 69.047 34.2419C69.947 34.2419 70.933 33.9419 72.167 33.3479L72.183 33.9329C72.183 33.9829 72.199 34.0789 72.281 34.0789H74.037C74.135 34.0789 74.183 33.9989 74.183 33.9329L74.163 33.9539ZM65.8 33.7539L67.718 22.8289C67.751 22.6659 67.653 22.6659 67.572 22.6829L65.377 23.0409C64.4751 22.7984 63.5468 22.6674 62.613 22.6509C60.581 22.6509 59.898 23.3509 59.573 25.1709L59.393 26.2109H58.515C58.271 26.2109 58.255 26.3249 58.239 26.4109L57.979 27.9389C57.963 28.0039 57.995 28.0689 58.093 28.0689H59.085L58.002 34.0989C57.872 34.8139 57.774 35.2369 57.102 35.9519C56.972 36.0819 57.004 36.1319 57.102 36.2119L58.305 37.3339C58.435 37.4479 58.485 37.4139 58.605 37.2839C59.711 36.1619 60.068 35.4139 60.247 34.3579L61.353 28.0659H63.109C63.207 28.0659 63.239 28.0659 63.272 27.9359L63.695 26.3429C63.728 26.2289 63.615 26.1969 63.532 26.1969H61.7L61.9 25.0429C61.98 24.6369 62.144 24.5059 62.664 24.5059C63.347 24.5059 64.452 24.6359 65.07 24.7989L63.5 33.7399C63.435 34.0649 63.467 34.0979 63.744 34.0979H65.444C65.639 34.0979 65.737 34.0979 65.802 33.7399L65.8 33.7539ZM55.352 26.0469C54.452 26.0469 53.466 26.3469 52.232 26.9409L52.248 26.2409C52.248 26.0609 52.118 26.0949 52.02 26.1109L50.54 26.3549C50.296 26.4049 50.215 26.5499 50.2 26.6309L48.948 33.7679C48.883 34.0929 48.915 34.1259 49.192 34.1259H50.892C51.087 34.1259 51.185 34.1259 51.25 33.7679L52.08 29.0209C52.698 28.6959 53.706 28.2729 54.128 28.2729C54.356 28.2729 54.428 28.3379 54.428 28.5009C54.428 28.5659 54.412 28.6469 54.395 28.7449L53.517 33.7689C53.452 34.0939 53.484 34.1269 53.761 34.1269H55.461C55.656 34.1269 55.754 34.1269 55.819 33.7689L56.719 28.5669C56.7727 28.2666 56.7999 27.9621 56.8 27.6569C56.8 26.6489 56.4 26.0569 55.353 26.0569L55.352 26.0469ZM48.98 22.6969L48.606 24.7449C48.556 25.0049 48.508 25.0049 48.33 25.0379L46.46 25.2979C46.26 25.3309 46.232 25.3309 46.265 25.0979L46.605 23.1149C46.621 23.0499 46.67 22.9149 46.881 22.8709L48.783 22.6109C48.963 22.5779 48.983 22.5949 48.978 22.7089L48.98 22.6969ZM48.15 26.0789L46.248 26.3389C46.1803 26.3472 46.117 26.3769 46.0673 26.4236C46.0177 26.4704 45.9843 26.5318 45.972 26.5989L44.704 33.7989C44.654 34.0749 44.688 34.0989 44.948 34.0989H46.648C46.843 34.0989 46.941 34.0989 47.006 33.7409L48.339 26.2139C48.389 26.0509 48.259 26.0679 48.159 26.0679L48.15 26.0789ZM39.91 33.3949L36.783 19.7949C36.603 19.0499 35.919 18.2949 35.205 18.0969L20.94 13.6999C20.7473 13.6391 20.5461 13.609 20.344 13.6109C19.719 13.6109 19.094 13.8489 18.676 14.2069L8.43099 23.7069C7.89499 24.2129 7.56699 25.2069 7.74599 25.9109L11.082 40.4739C11.262 41.2189 11.946 41.9739 12.66 42.1719L26.002 46.2719C26.1947 46.3328 26.3959 46.3628 26.598 46.3609C27.223 46.3609 27.848 46.1229 28.266 45.7649L39.226 35.6089C39.792 35.0729 40.09 34.1089 39.911 33.3749L39.91 33.3949ZM22.41 16.9549L32.18 19.9629C32.567 20.0829 32.567 20.2609 32.18 20.3499L27.028 21.5499C26.641 21.6499 26.105 21.4499 25.828 21.1929L22.224 17.3209C21.926 16.9929 22.016 16.8439 22.404 16.9639L22.41 16.9549ZM28.515 34.5249C28.615 34.9119 28.365 35.1499 27.979 35.0309L17.406 31.7549C17.019 31.6349 16.959 31.3079 17.256 31.0399L25.356 23.5349C25.654 23.2669 25.952 23.3549 26.041 23.7429L28.515 34.5249ZM11.092 24.9049L19.669 16.9229C19.967 16.6549 20.414 16.6549 20.711 16.9529L25.031 21.5999C25.299 21.8979 25.299 22.3449 25.001 22.6419L16.394 30.6239C16.096 30.8919 15.649 30.8919 15.352 30.5939L11.052 25.9479C10.784 25.6499 10.814 25.1739 11.082 24.9059L11.092 24.9049ZM13.177 37.5919L10.914 27.6149C10.814 27.2279 10.974 27.1379 11.242 27.4349L14.846 31.3069C15.114 31.6049 15.233 32.1409 15.114 32.5269L13.564 37.5899C13.444 37.9769 13.266 37.9769 13.177 37.5899V37.5919ZM25.735 43.3999L14.537 39.9449C14.15 39.8249 13.941 39.4089 14.06 39.0219L15.936 32.9759C16.056 32.5889 16.472 32.3799 16.859 32.4989L28.027 35.9539C28.414 36.0739 28.623 36.4899 28.504 36.8769L26.628 42.9229C26.528 43.3099 26.122 43.5189 25.735 43.3999ZM35.682 35.2699L28.177 42.2099C27.879 42.4779 27.73 42.3899 27.849 42.0019L29.399 36.9389C29.475 36.733 29.598 36.5477 29.7582 36.3977C29.9185 36.2477 30.1115 36.1372 30.322 36.0749L35.474 34.8749C35.891 34.8149 35.98 34.9749 35.682 35.2619V35.2699ZM36.516 33.7699L30.351 35.1699C30.1654 35.2131 29.9702 35.181 29.8082 35.0805C29.6463 34.98 29.5307 34.8194 29.487 34.6339L26.867 23.2269C26.8238 23.0413 26.8559 22.8461 26.9564 22.6841C27.0569 22.5222 27.2175 22.4067 27.403 22.3629L33.568 20.9629C33.7536 20.9197 33.9488 20.9519 34.1108 21.0524C34.2727 21.1528 34.3882 21.3134 34.432 21.4989L37.052 32.9059C37.0952 33.0916 37.063 33.2867 36.9626 33.4487C36.8621 33.6107 36.7015 33.7262 36.516 33.7699Z" fill="black"/>
</svg>
