<svg width="120" height="60" viewBox="0 0 120 60" fill="none" xmlns="http://www.w3.org/2000/svg">
<path d="M20.2134 14.648C19.9303 14.6648 19.6535 14.7382 19.3993 14.8639L8.38594 20.1201C8.10187 20.2554 7.85199 20.453 7.65494 20.6983C7.45789 20.9436 7.31875 21.2302 7.2479 21.5367L4.55071 33.3361C4.48707 33.6098 4.47972 33.8935 4.52909 34.17C4.57847 34.4466 4.68353 34.7102 4.83792 34.9449C4.87535 35.0025 4.91494 35.058 4.95669 35.1112L12.5753 44.5784C12.7738 44.822 13.0241 45.0182 13.308 45.1527C13.592 45.2872 13.9024 45.3566 14.2165 45.3558H26.4306C26.746 45.3565 27.0576 45.2864 27.3423 45.1507C27.6271 45.0151 27.8778 44.8173 28.0761 44.5719L35.6882 35.1004C35.8853 34.856 36.0242 34.5699 36.0945 34.2639C36.1648 33.9579 36.1647 33.6399 36.0942 33.334L33.3776 21.5216C33.3068 21.2151 33.1676 20.9285 32.9706 20.6832C32.7735 20.4379 32.5236 20.2403 32.2396 20.105L21.2348 14.8639C20.9177 14.7079 20.5666 14.6336 20.2134 14.648Z" fill="#326CE5"/>
<path d="M20.3235 18.6646C20.1411 18.6773 19.9711 18.7612 19.8499 18.8981C19.7287 19.035 19.6662 19.214 19.6757 19.3966V19.5823C19.6939 19.7926 19.7241 20.0017 19.7664 20.2086C19.8268 20.6043 19.8485 21.005 19.8312 21.4049C19.7932 21.537 19.7183 21.6554 19.6152 21.7461L19.6001 22.0269C19.1997 22.0601 18.8021 22.1214 18.4102 22.2104C16.7619 22.5818 15.2624 23.4377 14.1042 24.6679L13.8667 24.4995C13.7363 24.5381 13.596 24.5241 13.4758 24.4606C13.1546 24.223 12.8574 23.9547 12.5883 23.6594C12.4532 23.4979 12.309 23.3444 12.1564 23.1995L12.0095 23.0828C11.8793 22.9779 11.7188 22.9174 11.5517 22.9101C11.4521 22.905 11.3526 22.9235 11.2615 22.964C11.1703 23.0045 11.09 23.0659 11.027 23.1433C10.9198 23.2937 10.8767 23.4805 10.9071 23.6627C10.9374 23.8448 11.0388 24.0075 11.1889 24.1151L11.325 24.2231C11.5008 24.34 11.6832 24.4467 11.8713 24.5427C12.2217 24.7374 12.5523 24.966 12.8582 25.2251C12.9367 25.337 12.9824 25.4686 12.9899 25.6051L13.2059 25.793C12.041 27.5407 11.5627 29.6571 11.8627 31.7359L11.5863 31.8158C11.5143 31.9306 11.4177 32.028 11.3034 32.1008C10.9169 32.2039 10.5213 32.269 10.1221 32.2952C9.91046 32.2996 9.6992 32.3162 9.48942 32.3449L9.31666 32.388H9.29506C9.17322 32.4043 9.05831 32.4541 8.96326 32.5321C8.8682 32.61 8.79677 32.7129 8.75699 32.8292C8.71721 32.9455 8.71067 33.0706 8.73808 33.1905C8.7655 33.3103 8.82579 33.4201 8.91219 33.5075C8.99861 33.595 9.10771 33.6566 9.22724 33.6854C9.34676 33.7143 9.47196 33.7092 9.58875 33.6708H9.60171L9.78095 33.6492C9.98214 33.5886 10.1797 33.5165 10.3726 33.4332C10.7437 33.2839 11.1285 33.1711 11.5215 33.0964C11.6575 33.1047 11.7884 33.1511 11.8994 33.2302L12.1866 33.1806C12.8294 35.1753 14.1807 36.8655 15.9851 37.9314L15.8642 38.1841C15.9199 38.2994 15.9402 38.4287 15.9225 38.5555C15.7589 38.9337 15.5593 39.2953 15.3265 39.6353C15.1984 39.804 15.0802 39.9799 14.9723 40.1622L14.886 40.3393C14.8241 40.445 14.7929 40.5658 14.7958 40.6883C14.7987 40.8107 14.8355 40.93 14.9022 41.0327C14.9689 41.1354 15.0628 41.2176 15.1735 41.27C15.2842 41.3224 15.4073 41.3431 15.5291 41.3296C15.6508 41.3161 15.7664 41.2691 15.8629 41.1937C15.9595 41.1184 16.0332 41.0177 16.0758 40.9029L16.1579 40.7344C16.2328 40.5367 16.2963 40.3348 16.3479 40.1298C16.5207 39.6979 16.6179 39.2336 16.8576 38.9464C16.9358 38.8729 17.0344 38.8247 17.1405 38.8082L17.2916 38.5382C19.2472 39.2903 21.4113 39.2956 23.3706 38.5534L23.5001 38.806C23.6346 38.827 23.7556 38.8999 23.837 39.009C24.0231 39.3627 24.1743 39.7338 24.2883 40.1168C24.3407 40.3219 24.4049 40.5238 24.4805 40.7215L24.5626 40.8899C24.6052 41.0047 24.6789 41.1054 24.7755 41.1808C24.8721 41.2561 24.9877 41.3032 25.1094 41.3166C25.2312 41.3301 25.3542 41.3095 25.4649 41.257C25.5756 41.2046 25.6696 41.1224 25.7363 41.0197C25.803 40.917 25.8398 40.7977 25.8427 40.6753C25.8455 40.5529 25.8143 40.432 25.7525 40.3263L25.6661 40.1492C25.5582 39.9676 25.44 39.7924 25.3119 39.6245C25.0841 39.2958 24.8888 38.9458 24.7289 38.5793C24.7131 38.5123 24.7109 38.4428 24.7224 38.3749C24.7339 38.3071 24.7589 38.2422 24.7958 38.1841C24.7535 38.098 24.7167 38.0093 24.6857 37.9185C26.4877 36.8455 27.8338 35.1491 28.4691 33.1503L28.7498 33.2C28.8504 33.1081 28.9829 33.0592 29.1191 33.064C29.5121 33.1387 29.8968 33.2515 30.2679 33.4008C30.4606 33.4885 30.6582 33.5649 30.8596 33.6297C30.9071 33.6427 30.9762 33.6513 31.0324 33.6665H31.0453C31.1621 33.7049 31.2873 33.71 31.4068 33.6812C31.5264 33.6524 31.6355 33.5908 31.7219 33.5033C31.8083 33.4159 31.8687 33.3061 31.8961 33.1862C31.9235 33.0664 31.917 32.9412 31.8772 32.8249C31.8372 32.7083 31.7655 32.6052 31.67 32.5272C31.5745 32.4493 31.4591 32.3996 31.3369 32.3837L31.1425 32.3405C30.9327 32.3118 30.7215 32.2953 30.5098 32.2909C30.1107 32.2647 29.715 32.1996 29.3286 32.0965C29.2089 32.0298 29.1103 31.9311 29.0435 31.8115L28.7779 31.7337C29.0625 29.6565 28.5746 27.5471 27.4066 25.806L27.6398 25.59C27.6304 25.4542 27.6746 25.32 27.7629 25.2164C28.0665 24.9554 28.3949 24.7247 28.7433 24.5275C28.9314 24.4316 29.1139 24.3249 29.2897 24.2079L29.4344 24.0913C29.5406 24.0252 29.6259 23.9305 29.6805 23.8179C29.7351 23.7054 29.7568 23.5797 29.743 23.4554C29.7293 23.3311 29.6806 23.2132 29.6027 23.1154C29.5248 23.0176 29.4207 22.9438 29.3026 22.9025C29.1845 22.8613 29.0572 22.8543 28.9353 22.8824C28.8134 22.9105 28.7019 22.9725 28.6138 23.0613L28.4669 23.1779C28.3143 23.3228 28.1701 23.4764 28.035 23.6378C27.7739 23.9363 27.4847 24.209 27.1712 24.452C27.0447 24.5032 26.9063 24.5182 26.7717 24.4951L26.5212 24.6744C25.0767 23.1599 23.1314 22.2214 21.047 22.0333C21.047 21.947 21.034 21.7872 21.0318 21.7396C20.9197 21.6627 20.8422 21.5448 20.8159 21.4114C20.8023 21.0118 20.8276 20.6119 20.8915 20.2172C20.9337 20.0104 20.964 19.8013 20.9822 19.591V19.4031C20.9917 19.2205 20.9291 19.0415 20.8079 18.9046C20.6868 18.7677 20.5167 18.6838 20.3343 18.671L20.3235 18.6646ZM19.4986 23.7739L19.3043 27.229H19.2891C19.2846 27.334 19.2518 27.4358 19.194 27.5235C19.1363 27.6113 19.0558 27.6817 18.9612 27.7273C18.8666 27.773 18.7613 27.7921 18.6567 27.7827C18.5521 27.7733 18.452 27.7357 18.367 27.6739L15.5338 25.6656C16.4358 24.7796 17.5675 24.1633 18.8011 23.8862C19.0323 23.8369 19.2658 23.7994 19.5008 23.7739H19.4986ZM21.1484 23.7739C22.6365 23.9585 24.0227 24.627 25.0938 25.6764L22.2865 27.6717C22.2016 27.7396 22.0994 27.7823 21.9915 27.795C21.8836 27.8077 21.7742 27.7899 21.6759 27.7436C21.5776 27.6972 21.4943 27.6242 21.4354 27.5329C21.3765 27.4416 21.3444 27.3355 21.3428 27.2269L21.1484 23.7739ZM14.5016 26.9678L17.0929 29.2784V29.2935C17.172 29.3626 17.2309 29.4519 17.2633 29.5518C17.2956 29.6517 17.3003 29.7585 17.2769 29.8608C17.2534 29.9632 17.2026 30.0572 17.1299 30.133C17.0572 30.2088 16.9653 30.2635 16.864 30.2912V30.302L13.5384 31.2586C13.3736 29.7604 13.7124 28.2498 14.5016 26.9656V26.9678ZM26.1261 26.9678C26.9133 28.2486 27.2612 29.7513 27.1173 31.2478L23.7873 30.289V30.2761C23.686 30.2483 23.5942 30.1937 23.5215 30.1179C23.4488 30.0421 23.398 29.948 23.3745 29.8457C23.351 29.7433 23.3557 29.6365 23.3881 29.5366C23.4205 29.4367 23.4794 29.3475 23.5584 29.2784L26.1282 26.9764L26.1261 26.9678ZM19.7923 29.462H20.8504L21.4983 30.2826L21.2607 31.3105L20.3106 31.7683L19.3561 31.3105L19.1315 30.2804L19.7923 29.462ZM23.1892 32.2693C23.2336 32.2641 23.2786 32.2641 23.323 32.2693L26.7523 32.848C26.2475 34.2731 25.2816 35.4891 24.0076 36.3032L22.6817 33.0899C22.6452 33.0038 22.6299 32.9103 22.6371 32.8171C22.6443 32.7239 22.6739 32.6338 22.7232 32.5544C22.7725 32.4751 22.8402 32.4087 22.9205 32.3609C23.0009 32.3132 23.0915 32.2855 23.1848 32.2801L23.1892 32.2693ZM17.4298 32.2844C17.5252 32.2859 17.6187 32.3108 17.7021 32.357C17.7856 32.4032 17.8563 32.4693 17.9082 32.5493C17.9601 32.6294 17.9914 32.7209 17.9995 32.816C18.0076 32.911 17.9922 33.0065 17.9546 33.0942V33.1072L16.6351 36.2859C15.3766 35.4769 14.419 34.2765 13.9099 32.8696L17.3089 32.2909C17.347 32.2871 17.3853 32.2871 17.4233 32.2909L17.4298 32.2844ZM20.3019 33.6794C20.41 33.6762 20.5168 33.7029 20.6105 33.7566C20.7043 33.8104 20.7814 33.889 20.8332 33.9839H20.8461L22.5219 37.0072C22.302 37.0809 22.0786 37.1436 21.8524 37.195C20.6198 37.4772 19.3329 37.4107 18.136 37.0029L19.8074 33.9796C19.8575 33.8923 19.9295 33.8196 20.0161 33.7685C20.1028 33.7174 20.2013 33.6896 20.3019 33.6881V33.6794Z" fill="white" stroke="white" stroke-width="0.053987"/>
<path d="M43.0499 30.6152L43.687 29.9198C43.9058 29.6779 44.1181 29.439 44.324 29.2029L44.9071 28.5291C45.0885 28.316 45.2447 28.1303 45.3757 27.972H47.8548C47.3595 28.5406 46.8772 29.0826 46.4079 29.598C45.9372 30.1134 45.4218 30.6461 44.8617 31.1961C45.169 31.4786 45.4575 31.7808 45.7255 32.1009C46.0235 32.4507 46.3115 32.8106 46.5893 33.1806C46.8672 33.5506 47.1234 33.9249 47.3581 34.3035C47.5913 34.6779 47.7871 35.0191 47.9455 35.3271H45.5484C45.4045 35.0824 45.2346 34.8132 45.0388 34.5195C44.843 34.2244 44.6415 33.935 44.4341 33.6514C44.2182 33.3635 43.9922 33.0806 43.7561 32.8027C43.541 32.5538 43.3047 32.3241 43.0499 32.116V35.3423H40.9639V24.8105L43.0499 24.4736V30.6173V30.6152ZM55.2078 35.081C54.7569 35.2043 54.299 35.3002 53.8365 35.3682C53.2536 35.4588 52.6644 35.5036 52.0744 35.5021C51.5426 35.5178 51.0127 35.432 50.5131 35.2494C50.1285 35.1034 49.7885 34.8601 49.5262 34.5433C49.2763 34.2257 49.0994 33.8571 49.0079 33.4635C48.9015 33.0092 48.8501 32.5437 48.8546 32.0771V27.9741H50.9407V31.818C50.9407 32.4903 51.0292 32.9755 51.2063 33.2735C51.3834 33.5715 51.7145 33.7205 52.1996 33.7205C52.3436 33.7205 52.502 33.7133 52.6747 33.6989C52.8475 33.6845 52.9965 33.6679 53.1217 33.6492V27.9698H55.2078V35.081ZM64.0142 31.6517C64.0216 32.1947 63.9338 32.7348 63.755 33.2476C63.5952 33.7025 63.3397 34.1178 63.0057 34.4655C62.6667 34.8098 62.256 35.0752 61.8028 35.2429C61.2828 35.4323 60.7323 35.5245 60.1789 35.515C59.927 35.515 59.6635 35.5035 59.3885 35.4805C59.115 35.4574 58.8444 35.4272 58.5766 35.3898C58.3103 35.3523 58.0562 35.3077 57.8143 35.2559C57.5724 35.2041 57.3565 35.1501 57.1664 35.0939V24.8083L59.2525 24.4714V28.1426C59.4867 28.0398 59.7305 27.9602 59.9803 27.905C60.247 27.8474 60.5193 27.8191 60.7922 27.8208C61.2685 27.8111 61.7413 27.9039 62.1786 28.0929C62.5716 28.2685 62.9173 28.5349 63.1871 28.8703C63.4696 29.2299 63.6787 29.6415 63.8025 30.0818C63.9482 30.5922 64.0195 31.1209 64.0142 31.6517ZM61.8871 31.5956C61.8871 30.2524 61.3925 29.5808 60.4035 29.5808C60.1884 29.5809 59.9742 29.6092 59.7665 29.665C59.5858 29.7102 59.4131 29.7831 59.2547 29.8809V33.6665C59.3554 33.6852 59.485 33.7018 59.6434 33.7162C59.8017 33.7306 59.9745 33.7378 60.1616 33.7378C60.4094 33.7549 60.6575 33.7101 60.8836 33.6076C61.1098 33.5051 61.3069 33.348 61.4573 33.1504C61.764 32.6919 61.914 32.1464 61.8849 31.5956H61.8871ZM65.271 31.7079C65.2584 31.1222 65.3604 30.5398 65.5711 29.9932C65.7501 29.5364 66.0189 29.12 66.3615 28.7688C66.6828 28.4497 67.0666 28.2005 67.4888 28.0367C67.905 27.8701 68.3491 27.7843 68.7974 27.7841C69.8426 27.7841 70.6682 28.1037 71.2743 28.7429C71.879 29.3821 72.1813 30.3222 72.1813 31.5632C72.1813 31.6841 72.177 31.8173 72.1684 31.9627C72.1597 32.1066 72.1504 32.2348 72.1403 32.3471H67.411C67.4295 32.5513 67.4931 32.7489 67.5973 32.9256C67.7015 33.1022 67.8437 33.2535 68.0135 33.3685C68.4383 33.6402 68.9374 33.7723 69.4409 33.7464C69.8192 33.7466 70.1966 33.7112 70.5682 33.6406C70.8777 33.5879 71.1805 33.501 71.4708 33.3814L71.7516 35.0745C71.6075 35.1429 71.458 35.1992 71.3046 35.2429C71.1001 35.3031 70.8925 35.3521 70.6826 35.3898C70.4523 35.433 70.2075 35.4689 69.9484 35.4977C69.688 35.5254 69.4264 35.539 69.1645 35.5388C68.5752 35.5515 67.9889 35.4519 67.4369 35.2451C66.9769 35.069 66.5611 34.794 66.219 34.4396C65.8944 34.0937 65.6509 33.6799 65.5064 33.2281C65.3461 32.7382 65.2659 32.2255 65.2688 31.71L65.271 31.7079ZM70.1687 30.9088C70.1597 30.733 70.1292 30.559 70.078 30.3906C70.029 30.2274 69.9482 30.0755 69.8404 29.9436C69.7287 29.8095 69.5905 29.7 69.4345 29.6218C69.2443 29.5323 69.0355 29.4894 68.8255 29.4965C68.6183 29.4911 68.4126 29.5317 68.223 29.6153C68.0626 29.6895 67.9197 29.797 67.804 29.9306C67.6899 30.065 67.6021 30.2195 67.5449 30.3863C67.4844 30.5567 67.4396 30.7324 67.411 30.911H70.1687V30.9088ZM78.2279 29.8183C78.0407 29.7722 77.8248 29.7233 77.58 29.6715C77.3126 29.6185 77.0406 29.5924 76.768 29.5937C76.6113 29.5955 76.4548 29.6071 76.2994 29.6283C76.1602 29.6437 76.0223 29.6697 75.887 29.706V35.3207H73.8009V28.3607C74.2316 28.2146 74.6699 28.092 75.1139 27.9935C75.672 27.8717 76.2421 27.8131 76.8134 27.8186C76.9257 27.8186 77.061 27.8258 77.2194 27.8402C77.3777 27.8546 77.5361 27.8733 77.6945 27.8964C77.8528 27.9194 78.0112 27.9482 78.1695 27.9827C78.3083 28.0095 78.4442 28.0493 78.5755 28.1015L78.2279 29.8183ZM79.6963 28.2246C80.1472 28.1015 80.6051 28.0056 81.0676 27.9374C81.6513 27.8467 82.2412 27.8019 82.8319 27.8035C83.3645 27.7878 83.8954 27.8713 84.3975 28.0497C84.7812 28.1909 85.1214 28.4298 85.3844 28.7429C85.6334 29.0545 85.8104 29.4173 85.9026 29.8054C86.0094 30.2545 86.0609 30.715 86.056 31.1766V35.3358H83.9678V31.4271C83.9678 30.7548 83.8792 30.2797 83.7021 30.0019C83.5251 29.7226 83.1939 29.5829 82.7088 29.5829C82.5648 29.5829 82.4065 29.5901 82.2337 29.6045C82.0609 29.6189 81.9119 29.6355 81.7867 29.6542V35.3336H79.7006V28.2246H79.6963ZM87.5892 31.7079C87.5767 31.1222 87.6787 30.5398 87.8894 29.9932C88.0684 29.5364 88.3371 29.12 88.6797 28.7688C88.9986 28.4508 89.3793 28.2016 89.7984 28.0367C90.2146 27.8702 90.6587 27.7844 91.107 27.7841C92.1522 27.7841 92.9778 28.1037 93.5839 28.7429C94.1886 29.3821 94.4909 30.3222 94.4909 31.5632C94.4909 31.6841 94.4859 31.8173 94.4758 31.9627C94.4657 32.1066 94.4563 32.2348 94.4477 32.3471H89.7185C89.7369 32.5513 89.8006 32.7489 89.9048 32.9256C90.009 33.1022 90.1511 33.2535 90.3209 33.3685C90.7457 33.6402 91.2448 33.7723 91.7484 33.7464C92.1266 33.7466 92.504 33.7112 92.8756 33.6406C93.1852 33.5879 93.4879 33.5009 93.7783 33.3814L94.059 35.0745C93.9149 35.1429 93.7654 35.1992 93.612 35.2429C93.4075 35.3031 93.1999 35.3521 92.9901 35.3898C92.7597 35.433 92.515 35.4689 92.2558 35.4977C91.9955 35.5254 91.7338 35.539 91.4719 35.5388C90.8827 35.5515 90.2963 35.4519 89.7444 35.2451C89.2843 35.069 88.8685 34.794 88.5264 34.4396C88.2025 34.0914 87.9605 33.6753 87.8181 33.2216C87.6607 32.7334 87.5827 32.223 87.587 31.71L87.5892 31.7079ZM92.4869 30.9088C92.4779 30.733 92.4474 30.559 92.3962 30.3906C92.3472 30.2274 92.2665 30.0755 92.1587 29.9436C92.0469 29.8095 91.9087 29.7 91.7527 29.6218C91.5625 29.5323 91.3538 29.4894 91.1437 29.4965C90.9366 29.491 90.7308 29.5316 90.5412 29.6153C90.3808 29.6895 90.238 29.797 90.1223 29.9306C90.0081 30.0649 89.9202 30.2195 89.8631 30.3863C89.8026 30.5567 89.7578 30.7324 89.7292 30.911H92.4869V30.9088ZM96.0392 26.1364L98.1253 25.7995V27.959H100.63V29.6866H98.1253V32.278C98.1081 32.6421 98.1879 33.0042 98.3564 33.3275C98.5104 33.5866 98.8199 33.7162 99.285 33.7162C99.5174 33.7155 99.7494 33.6946 99.9781 33.6535C100.199 33.6157 100.416 33.5572 100.626 33.4786L100.92 35.1026C100.647 35.2119 100.366 35.3007 100.08 35.3682C99.7074 35.4496 99.3269 35.4873 98.9459 35.4805C98.4646 35.4953 97.9851 35.4168 97.5336 35.2494C97.1849 35.1127 96.8766 34.8898 96.6374 34.6016C96.4054 34.3094 96.2449 33.967 96.1688 33.6017C96.0765 33.1761 96.0316 32.7415 96.0349 32.306V26.1364H96.0392ZM101.74 31.7079C101.728 31.1222 101.83 30.5398 102.04 29.9932C102.219 29.5364 102.488 29.12 102.831 28.7688C103.152 28.4498 103.536 28.2006 103.958 28.0367C104.374 27.8702 104.818 27.7844 105.267 27.7841C106.312 27.7841 107.138 28.1037 107.744 28.7429C108.348 29.3821 108.651 30.32 108.651 31.5567C108.651 31.6776 108.646 31.8108 108.635 31.9562C108.625 32.1002 108.616 32.2283 108.607 32.3406H103.878C103.897 32.545 103.961 32.7427 104.065 32.9194C104.17 33.0961 104.313 33.2473 104.483 33.362C104.908 33.6337 105.407 33.7658 105.91 33.7399C106.288 33.7401 106.666 33.7047 107.037 33.6341C107.347 33.5814 107.65 33.4945 107.94 33.375L108.221 35.068C108.077 35.1364 107.927 35.1927 107.774 35.2364C107.569 35.2966 107.362 35.3457 107.152 35.3833C106.922 35.4265 106.677 35.4625 106.418 35.4913C106.157 35.5189 105.896 35.5326 105.634 35.5323C105.045 35.545 104.458 35.4454 103.906 35.2386C103.446 35.0625 103.03 34.7875 102.688 34.4331C102.361 34.0881 102.114 33.6742 101.967 33.2216C101.81 32.7333 101.733 32.2229 101.738 31.71L101.74 31.7079ZM106.642 30.9088C106.633 30.733 106.603 30.559 106.552 30.3906C106.503 30.2274 106.422 30.0755 106.314 29.9436C106.202 29.8095 106.064 29.7 105.908 29.6218C105.718 29.5323 105.509 29.4894 105.299 29.4965C105.092 29.491 104.886 29.5316 104.697 29.6153C104.533 29.6876 104.386 29.7944 104.267 29.9284C104.153 30.0628 104.065 30.2173 104.008 30.3841C103.947 30.5546 103.902 30.7302 103.874 30.9088H106.642ZM112.371 33.8349C112.647 33.8518 112.923 33.8136 113.183 33.7226C113.262 33.6835 113.327 33.6211 113.37 33.5439C113.412 33.4667 113.43 33.3784 113.421 33.2908C113.412 33.198 113.379 33.1093 113.324 33.0335C113.27 32.9576 113.197 32.8974 113.112 32.8589C112.813 32.6876 112.499 32.5431 112.175 32.427C111.872 32.3161 111.575 32.19 111.285 32.0491C111.036 31.9297 110.807 31.7716 110.607 31.5804C110.42 31.3967 110.273 31.1761 110.175 30.9326C110.066 30.6423 110.014 30.3336 110.022 30.0235C110.01 29.709 110.073 29.3963 110.207 29.1114C110.341 28.8266 110.541 28.578 110.791 28.3866C111.303 27.9835 112.007 27.7819 112.903 27.7819C113.337 27.7799 113.771 27.8197 114.198 27.9007C114.532 27.9593 114.86 28.046 115.179 28.1598L114.816 29.7838C114.557 29.6978 114.293 29.6257 114.026 29.5678C113.711 29.4996 113.389 29.467 113.067 29.4706C112.413 29.4706 112.086 29.6527 112.086 30.017C112.086 30.091 112.1 30.1643 112.127 30.2329C112.166 30.3095 112.224 30.3744 112.296 30.4208C112.405 30.4958 112.519 30.5616 112.639 30.6173C112.783 30.6893 112.967 30.767 113.192 30.8505C113.582 30.9899 113.96 31.1574 114.326 31.3515C114.589 31.4894 114.827 31.6696 115.032 31.8849C115.199 32.0668 115.323 32.2837 115.395 32.5198C115.469 32.7832 115.505 33.056 115.5 33.3296C115.518 33.6516 115.452 33.9726 115.308 34.2614C115.165 34.5501 114.949 34.7968 114.682 34.9773C114.135 35.3487 113.363 35.5359 112.367 35.5388C111.819 35.55 111.271 35.4934 110.737 35.3703C110.429 35.2985 110.128 35.2047 109.834 35.0896L110.184 33.3966C110.538 33.5362 110.902 33.646 111.274 33.7248C111.635 33.7996 112.003 33.8365 112.371 33.8349Z" fill="black"/>
</svg>
