<svg width="120" height="52" viewBox="0 0 120 52" fill="none" xmlns="http://www.w3.org/2000/svg">
<path d="M29.1844 18.7941C28.4694 18.5875 27.7098 18.4756 26.9234 18.4756C22.5712 18.4756 19.0413 21.8764 19.0413 26.0693C19.0413 30.2623 22.5712 33.6631 26.9234 33.6631C27.7098 33.6631 28.4694 33.5512 29.1844 33.3445C32.4373 32.4061 34.8145 29.5046 34.8145 26.0693C34.8145 22.6341 32.4373 19.7326 29.1844 18.7941Z" fill="white"/>
<path d="M10.2973 26.0001C10.2973 34.0554 17.3011 40.6067 25.9127 40.6067C26.5395 40.6067 27.1481 40.5727 27.7568 40.5047V37.3098C27.1572 37.3948 26.5395 37.4372 25.9127 37.4372C19.1724 37.4372 13.6856 32.305 13.6856 26.0001C13.6856 19.6952 19.1724 14.563 25.9127 14.563C26.5395 14.563 27.1572 14.6055 27.7568 14.6904V11.4955C27.1481 11.4275 26.5395 11.3936 25.9127 11.3936C17.3011 11.3936 10.2973 17.9448 10.2973 26.0001Z" fill="white" stroke="white"/>
<path d="M13.1139 9.52343C16.4648 7.01409 20.6135 5.5255 25.0981 5.5255C26.3242 5.5255 27.5168 5.63608 28.6757 5.84873V1.0257C27.5 0.85557 26.3074 0.770508 25.0981 0.770508C18.4384 0.770508 12.1901 3.39043 7.48719 8.16243C7.05049 8.60475 6.63058 9.06409 6.22747 9.53193C5.42125 10.4846 4.68221 11.4799 4.02716 12.5261C1.52451 16.5156 0.189209 21.1515 0.189209 25.9915C0.189209 30.8316 1.52451 35.476 4.02716 39.4739C5.00134 41.0305 6.16029 42.4936 7.47879 43.8376C9.02405 45.4027 10.7289 46.7297 12.5681 47.8185C16.3304 50.0386 20.6219 51.2295 25.0897 51.2295C26.299 51.2295 27.4916 51.1445 28.6673 50.9743V46.1513C27.9703 46.2789 27.2648 46.364 26.5426 46.4235C26.0639 46.4575 25.5768 46.4745 25.0813 46.4745C13.937 46.4745 4.87537 37.2963 4.87537 26.0085C4.88377 19.2461 8.12545 13.2577 13.1139 9.52343Z" fill="white"/>
<path d="M53.3247 9C47.8382 9 45 12.1683 45 17.7128V35.7247C45 41.2692 47.8382 44.4375 53.3247 44.4375C58.8113 44.4375 61.6495 41.2692 61.6495 35.7247V31.1266H56.374V36.0745C56.374 38.5535 55.2556 39.4382 53.483 39.4382C51.7104 39.4382 50.592 38.5432 50.592 36.0745V17.363C50.592 14.884 51.7104 13.9479 53.483 13.9479C55.2556 13.9479 56.374 14.884 56.374 17.363V21.0765H61.6495V17.7128C61.6495 12.1683 58.8113 9 53.3247 9Z" fill="white"/>
<path d="M72.8299 8.28125C67.4391 8.28125 64.5052 11.4495 64.5052 16.994V35.006C64.5052 40.5505 67.4494 43.7188 72.8299 43.7188C78.2104 43.7188 81.1547 40.5505 81.1547 35.006V16.994C81.1547 11.4495 78.2104 8.28125 72.8299 8.28125ZM75.6705 35.3557C75.6705 37.8348 74.5716 38.7709 72.8299 38.7709C71.0883 38.7709 69.9894 37.8348 69.9894 35.3557V16.6443C69.9894 14.1652 71.0883 13.2291 72.8299 13.2291C74.5716 13.2291 75.6705 14.1652 75.6705 16.6443V35.3557Z" fill="white"/>
<path d="M101.393 33.9545C101.393 30.2613 100.466 27.5783 97.6532 26.4104C100.168 25.2424 101.339 22.8645 101.339 19.2239V16.4357C101.339 10.9643 98.8251 8.28125 92.9867 8.28125H84.4742V43.7188H90.1102V29.2933H92.0599C94.6275 29.2933 95.7461 30.5033 95.7461 33.7967V39.3627C95.7461 42.2457 95.9486 42.8034 96.2575 43.7188H102C101.435 42.4035 101.382 41.1409 101.382 39.4153V33.9545H101.393ZM95.7035 20.4866C95.7035 23.3169 94.425 24.2323 92.3156 24.2323H90.1102V13.3528H92.8269C94.8299 13.3528 95.6929 14.4681 95.6929 16.9933V20.4866H95.7035Z" fill="white"/>
<path d="M119.397 14.067V9.125H104.5V43.7188H119.397V38.7768H109.961V28.6463H117.456V23.7043H109.961V14.067H119.397Z" fill="white"/>
</svg>
