<svg width="197" height="50" viewBox="0 0 197 66" fill="none" xmlns="http://www.w3.org/2000/svg">
<g clip-path="url(#clip0)">
<path fill-rule="evenodd" clip-rule="evenodd" d="M101.731 58.1724L102.664 58.3044C102.519 58.8852 102.243 59.3472 101.849 59.664C101.455 59.9808 100.956 60.1524 100.339 60.1524C99.5641 60.1524 98.9468 59.8884 98.5003 59.3736C98.0406 58.8588 97.8174 58.1328 97.8174 57.2088C97.8174 56.2452 98.0538 55.4928 98.5003 54.9648C98.96 54.4368 99.5641 54.1729 100.286 54.1729C100.996 54.1729 101.574 54.4369 102.02 54.9517C102.467 55.4665 102.69 56.2056 102.69 57.156C102.69 57.2088 102.69 57.288 102.69 57.4068H98.7367C98.7761 58.0404 98.9337 58.5156 99.2358 58.8456C99.5247 59.1888 99.8924 59.3472 100.339 59.3472C100.667 59.3472 100.943 59.2548 101.18 59.07C101.416 58.8852 101.6 58.5816 101.731 58.1724ZM98.7892 56.6148H101.744C101.705 56.1264 101.587 55.77 101.403 55.5324C101.114 55.1496 100.746 54.9648 100.3 54.9648C99.8793 54.9648 99.5378 55.11 99.2489 55.4136C98.9731 55.7172 98.8155 56.1132 98.7892 56.6148Z" fill="#030529"/>
<path fill-rule="evenodd" clip-rule="evenodd" d="M146.7 20.1699H152.387C153.976 20.1699 155.421 20.8299 156.471 21.8727C157.522 22.9287 158.165 24.3807 158.165 25.9911V41.0787C158.165 42.6759 157.522 44.1279 156.471 45.1839C155.421 46.2399 153.976 46.8999 152.387 46.8999H146.7C145.098 46.8999 143.653 46.2399 142.602 45.1839C141.552 44.1279 140.908 42.6759 140.908 41.0787V25.9911C140.908 24.3807 141.552 22.9287 142.602 21.8727C143.653 20.8299 145.098 20.1699 146.7 20.1699ZM152.387 24.0507H146.7C146.162 24.0507 145.689 24.2619 145.334 24.6183C144.98 24.9747 144.769 25.4631 144.769 25.9911V41.0787C144.769 41.6067 144.98 42.0951 145.334 42.4515C145.689 42.7947 146.162 43.0191 146.7 43.0191H152.387C152.912 43.0191 153.398 42.7947 153.739 42.4515C154.094 42.0951 154.317 41.6067 154.317 41.0787V25.9911C154.317 25.4631 154.094 24.9747 153.739 24.6183C153.398 24.2619 152.912 24.0507 152.387 24.0507Z" fill="#030529"/>
<path fill-rule="evenodd" clip-rule="evenodd" d="M14.4862 48.233C14.6832 48.4442 14.6832 48.4442 14.7095 46.8074C14.7226 45.1574 14.7752 41.8838 14.7883 40.2338C14.8146 38.597 14.8146 38.597 14.2104 37.4618C13.6194 36.3398 12.4112 34.0826 11.3868 31.6802C10.3755 29.291 9.53496 26.7566 8.82576 24.1826C8.12969 21.6086 7.56496 18.9818 7.22349 16.421C6.88203 13.8602 6.76383 11.3522 6.72443 9.72864C6.67189 8.11824 6.69816 7.37904 6.71129 7.02264C6.72443 6.65304 6.72443 6.65304 9.45616 6.58704C12.1879 6.52104 17.6514 6.37584 20.8559 6.30984C24.0473 6.24384 24.9798 6.24384 26.2931 6.24384C27.6064 6.24384 29.3138 6.24384 31.3363 6.24384C33.372 6.24384 35.736 6.24384 40.3852 6.28344C45.0344 6.33624 51.9688 6.42864 55.4885 6.46824C59.0082 6.52104 59.1002 6.52104 59.1133 6.57384C59.1396 6.62664 59.1002 6.74544 59.1002 7.27344C59.1002 7.78824 59.1396 8.72544 59.087 10.2302C59.0345 11.735 58.8638 13.8074 58.5486 16.157C58.2334 18.5066 57.7606 21.1334 57.0908 23.6546C56.421 26.1626 55.5542 28.5914 54.7399 30.677C53.9256 32.7758 53.1508 34.5578 52.3234 36.1946C51.496 37.8446 50.616 39.3494 49.6442 40.907C48.6854 42.4646 47.6348 44.0882 46.3346 45.9362C45.0344 47.7842 43.4715 49.8566 41.4752 52.1666C39.479 54.4898 37.0493 57.0374 35.5652 58.5686C34.0812 60.0998 33.5296 60.6014 33.2538 60.8522C32.9911 61.103 32.9911 61.103 31.7828 59.9282C30.5877 58.7534 28.1843 56.4038 26.976 55.229C25.7678 54.0542 25.7678 54.0542 25.7678 54.0278C25.7678 54.0014 25.7678 53.9618 25.7809 50.8994C25.794 47.8238 25.8203 41.7386 25.8203 35.759C25.8203 29.7662 25.794 23.8922 25.8203 20.9222C25.8466 17.9654 25.9122 17.9126 25.9779 17.873C26.0436 17.8202 26.1092 17.7806 28.3025 17.7278C30.4958 17.6882 34.8035 17.6486 37.0624 17.6354C39.3214 17.6222 39.5184 17.6486 39.6497 17.675C39.7942 17.7146 39.8598 17.7542 39.8861 18.401C39.8992 19.0346 39.8861 20.2622 39.8861 22.6778C39.8861 25.0934 39.8992 28.697 39.9124 30.5978C39.9255 32.4854 39.9255 32.6702 39.8992 32.7758C39.8861 32.8946 39.8336 32.9342 39.6497 32.9606C39.4527 32.987 39.1112 32.987 37.6009 32.9738C36.0906 32.9606 33.4245 32.9342 32.0849 32.9474C30.7453 32.9606 30.7453 33.0134 30.7453 33.053C30.7453 33.1058 30.7453 33.1454 30.7322 34.0298C30.719 34.9274 30.6928 36.6566 30.6796 37.5278C30.6796 38.3858 30.6796 38.3858 30.6796 38.3726C30.6928 38.3726 30.719 38.3462 32.6102 38.333C34.5014 38.3198 38.2707 38.3198 40.2013 38.2934C42.1319 38.2802 42.2238 38.2274 42.933 37.5278C43.6422 36.815 44.9818 35.4422 45.6516 34.769C46.3214 34.0826 46.3214 34.0826 46.3083 33.6602C46.282 33.2378 46.2295 32.393 46.2295 29.5022C46.2164 26.5982 46.2295 21.6482 46.2426 19.1534C46.2558 16.6586 46.2558 16.619 46.2295 16.553C46.2164 16.4738 46.1638 16.3946 45.494 15.695C44.8242 14.9954 43.5372 13.7018 42.8805 13.0418C42.2238 12.395 42.1976 12.395 39.1375 12.395C36.0774 12.395 29.9704 12.395 26.9104 12.4082C23.8503 12.4214 23.824 12.4478 23.1936 13.0418C22.5764 13.6358 21.355 14.7974 20.7377 15.4046C20.1204 16.025 20.1204 16.091 20.1204 16.5926C20.1204 17.0942 20.1204 18.0314 20.1204 18.6386C20.1204 19.2326 20.1204 19.5098 20.1204 25.661C20.1204 31.8254 20.1204 43.8638 20.1204 49.883C20.1204 55.9022 20.1204 55.9022 20.1204 55.9022C20.1204 55.9022 20.1204 55.9022 21.3944 57.2222C22.6683 58.5422 25.203 61.1822 26.8841 62.8718C28.5652 64.5614 29.3794 65.2874 29.7866 65.657C30.1937 66.0266 30.1937 66.0266 30.2462 66.0266C30.2856 66.0266 30.3776 66.0266 31.31 66.0134C32.2425 66.0002 34.0024 65.9738 34.9086 65.9606C35.8016 65.9474 35.8279 65.9474 35.841 65.9474C35.8673 65.9474 35.8936 65.9474 37.3514 64.535C38.8223 63.1226 41.7248 60.2978 43.9837 57.8822C46.2295 55.4666 47.8449 53.4602 49.4866 51.2426C51.1282 49.0118 52.8093 46.5698 54.6086 43.4942C56.3947 40.4186 58.299 36.6962 59.6912 33.515C61.0702 30.3206 61.937 27.6542 62.6856 24.7766C63.4473 21.899 64.104 18.8234 64.5111 15.5498C64.9051 12.263 65.0364 8.77824 65.1021 6.99624C65.1546 5.21424 65.1284 5.14824 64.3535 4.36944C63.5918 3.60384 62.0683 2.11224 61.3066 1.37304C60.5448 0.633842 60.5448 0.633842 58.6142 0.581042C56.6705 0.515042 52.7962 0.409442 47.9762 0.330242C43.1694 0.251042 37.4302 0.198242 33.4114 0.198242C29.3794 0.198242 27.068 0.251042 22.6158 0.330242C18.1767 0.409442 11.5969 0.515042 8.31356 0.581042C5.01709 0.633842 5.01709 0.633842 4.60996 1.08264C4.20283 1.51824 3.38856 2.41584 2.63996 3.16824C1.89136 3.92064 1.20843 4.52784 0.880092 4.87104C0.551758 5.21424 0.578025 5.28024 0.617425 6.62664C0.656825 7.97304 0.735625 10.5998 0.998292 13.385C1.27409 16.157 1.74689 19.1006 2.45609 22.1498C3.15216 25.1858 4.08463 28.3406 5.20096 31.2974C6.31729 34.2674 7.60436 37.0394 8.68129 39.1382C9.75823 41.237 10.625 42.6494 11.3868 43.8902C12.1616 45.1178 12.8446 46.1606 13.383 46.8998C13.9084 47.6258 14.2892 48.035 14.4862 48.233Z" fill="#0082ED"/>
<path fill-rule="evenodd" clip-rule="evenodd" d="M83.8043 23.8262C83.7119 23.9054 83.7251 23.9186 83.7911 23.945L83.8175 23.9054L83.8043 23.8262Z" fill="#030529"/>
<path fill-rule="evenodd" clip-rule="evenodd" d="M83.9482 23.7205C83.8825 23.7601 83.8431 23.7997 83.8037 23.8261L83.8168 23.9053C83.9482 23.7337 84.2502 23.4961 83.9482 23.7205Z" fill="#030529"/>
<path fill-rule="evenodd" clip-rule="evenodd" d="M101.915 22.1103C101.915 21.0411 102.782 20.1699 103.846 20.1699C104.909 20.1699 105.776 21.0411 105.776 22.1103V44.9595C105.776 46.0287 104.909 46.8999 103.846 46.8999C102.782 46.8999 101.915 46.0287 101.915 44.9595V22.1103Z" fill="#030529"/>
<path fill-rule="evenodd" clip-rule="evenodd" d="M121.786 38.3597H117.636C116.231 38.3597 115.403 38.3597 114.773 38.5445C114.536 38.6105 114.313 38.7029 114.156 38.8349C114.011 38.9405 113.893 39.0857 113.801 39.2969C113.67 39.6269 113.578 40.0757 113.551 40.5509C113.525 41.0657 113.565 41.5937 113.657 42.0029C113.722 42.2405 113.801 42.4121 113.893 42.4913C113.985 42.5969 114.169 42.6761 114.458 42.7553C114.917 42.8873 115.521 42.9533 116.204 42.9797C116.861 43.0193 117.767 43.0193 118.673 43.0193C119.75 43.0193 120.604 43.8905 120.604 44.9597C120.604 46.0289 119.75 46.9001 118.673 46.9001C117.833 46.9001 116.979 46.9001 116.021 46.8473C115.075 46.7945 114.195 46.7021 113.46 46.5041C112.527 46.2401 111.778 45.8441 111.174 45.2369C110.557 44.6297 110.163 43.8773 109.927 42.9533C109.73 42.1745 109.651 41.2373 109.703 40.3265C109.769 39.4289 109.94 38.5313 110.255 37.7921C110.636 36.9077 111.174 36.2477 111.818 35.7593C112.409 35.2973 113.065 35.0069 113.722 34.8221C114.878 34.4789 115.889 34.4789 117.636 34.4789H121.786V33.7133C121.786 32.8157 121.786 32.1161 121.747 31.6145C121.72 31.2449 121.681 31.0073 121.602 30.8621C121.576 30.7829 121.51 30.7301 121.445 30.6773C121.274 30.5585 121.037 30.4793 120.749 30.4133C119.934 30.2285 118.7 30.2285 117.675 30.2285C117.084 30.2285 116.546 30.2285 116.244 30.2417C115.876 30.2549 115.548 30.2813 115.246 30.3473C114.983 30.4001 114.733 30.4793 114.523 30.5981C114.418 30.6509 114.326 30.7169 114.287 30.7697C114.09 31.0073 113.959 31.6277 113.827 32.2481H113.814V32.2613C113.591 33.3041 112.566 33.9509 111.529 33.7265C110.491 33.5021 109.835 32.4725 110.058 31.4297C110.281 30.3605 110.518 29.3045 111.279 28.3541C111.687 27.8525 112.172 27.4697 112.737 27.1661C113.262 26.8889 113.867 26.6909 114.471 26.5589C114.996 26.4533 115.521 26.4005 116.073 26.3741C116.703 26.3477 117.163 26.3477 117.675 26.3477C118.884 26.3477 120.315 26.3477 121.602 26.6381C122.351 26.8097 123.007 27.0869 123.572 27.4697C124.229 27.9053 124.728 28.4729 125.069 29.1725C125.385 29.8061 125.529 30.4793 125.595 31.3109C125.647 31.9973 125.647 32.7497 125.647 33.7133V44.9597C125.647 46.0289 124.78 46.9001 123.717 46.9001C122.653 46.9001 121.786 46.0289 121.786 44.9597V38.3597Z" fill="#030529"/>
<path fill-rule="evenodd" clip-rule="evenodd" d="M128.956 30.2279C127.892 30.2279 127.025 29.3567 127.025 28.2875C127.025 27.2183 127.892 26.3471 128.956 26.3471H130.151V23.2187C130.151 22.1495 131.018 21.2783 132.082 21.2783C133.146 21.2783 134.012 22.1495 134.012 23.2187V26.3471H136.298C137.361 26.3471 138.228 27.2183 138.228 28.2875C138.228 29.3567 137.361 30.2279 136.298 30.2279H134.012V37.6199C134.012 40.8539 134.012 42.2003 134.209 42.7547C134.209 42.7811 134.209 42.7943 134.222 42.8075V42.8207C134.262 42.8471 134.341 42.8735 134.459 42.8999C134.708 42.9527 134.971 42.9923 135.26 43.0055C135.51 43.0187 135.943 43.0187 136.376 43.0187C137.44 43.0187 138.294 43.8899 138.294 44.9591C138.294 46.0283 137.44 46.8995 136.376 46.8995C135.982 46.8995 135.601 46.8995 135.063 46.8599C134.551 46.8335 134.052 46.7807 133.592 46.6751C132.988 46.5299 132.41 46.3055 131.885 45.8963C131.32 45.4607 130.86 44.8667 130.571 44.0351V44.0219C130.151 42.8075 130.151 41.2895 130.151 37.6199V30.2279H128.956Z" fill="#030529"/>
<path fill-rule="evenodd" clip-rule="evenodd" d="M166.307 58.5821L166.215 33.6473C166.215 32.1293 166.202 31.0601 166.202 30.2945L167.568 30.2813C169.078 30.2549 170.917 30.2153 172.033 30.2153C172.743 30.2153 173.137 30.2153 173.386 30.2549C173.399 30.2549 173.425 30.2681 173.465 30.2945C173.636 30.3869 173.833 30.5189 173.99 30.6905C174.095 30.7829 174.174 30.8885 174.227 30.9941C174.292 31.1393 174.332 31.3901 174.358 31.7201C174.397 32.1557 174.397 32.7365 174.397 33.4229C174.397 34.7033 174.397 36.3665 174.424 38.2277L174.437 38.6237C174.45 39.6929 174.476 40.4849 174.279 41.1713C174.174 41.5277 174.016 41.8841 173.819 42.2009C173.649 42.4517 173.478 42.6497 173.32 42.7553C173.228 42.8345 173.097 42.8741 172.953 42.8873C172.743 42.9269 172.388 42.9269 172.046 42.9269H169.709C168.645 42.9269 167.778 43.7981 167.778 44.8673C167.778 45.9365 168.645 46.8077 169.709 46.8077H172.046C172.519 46.8077 172.992 46.8077 173.57 46.7153C174.24 46.5965 174.91 46.3721 175.553 45.9101C176.131 45.5009 176.643 44.9333 177.05 44.2865C177.457 43.6661 177.786 42.9401 177.983 42.2405C178.324 41.0261 178.311 39.9701 178.272 38.5445V38.1617C178.245 37.1057 178.245 35.0201 178.245 33.4229C178.245 32.6573 178.245 32.0105 178.193 31.3901C178.14 30.6641 177.996 30.0173 177.72 29.3969C177.457 28.8293 177.116 28.3673 176.735 27.9845C176.275 27.5093 175.776 27.1529 175.382 26.9285C174.923 26.6645 174.555 26.5061 173.898 26.4269C173.465 26.3609 172.926 26.3477 172.033 26.3477C170.838 26.3609 169 26.3873 167.502 26.4137L165.992 26.4401L165.257 26.4533C163.733 26.4665 163.575 26.4665 162.971 27.0605C162.577 27.4697 162.38 27.7337 162.367 29.1725C162.367 29.8325 162.367 31.1261 162.38 33.6473L162.459 58.5821C162.459 59.6513 163.326 60.5093 164.39 60.5093C165.454 60.5093 166.307 59.6513 166.307 58.5821Z" fill="#030529"/>
<path fill-rule="evenodd" clip-rule="evenodd" d="M197.591 31.9841C197.591 33.0533 196.724 33.9113 195.66 33.9113C194.596 33.9113 193.73 33.0533 193.73 31.9841C193.73 31.2713 193.73 30.5717 193.664 30.5321C193.48 30.4133 193.06 30.3341 192.508 30.2813C191.838 30.2285 190.88 30.2285 189.921 30.2285C188.253 30.2285 186.572 30.2285 186.06 30.5321C186.034 30.5585 186.099 30.5321 186.086 30.5717C186.02 30.8753 186.02 31.4297 186.02 32.0105C186.02 32.8553 186.02 33.8057 186.349 34.0037C186.677 34.2149 187.334 34.3337 188.095 34.3997C188.949 34.4789 190.052 34.4789 191.011 34.4789C193.414 34.4789 195.096 34.4789 196.356 35.7593C197.026 36.4589 197.341 37.3433 197.486 38.3333C197.591 39.1121 197.591 39.8645 197.591 40.6301C197.591 42.5177 197.591 44.4581 195.857 45.7781C194.36 46.9001 192.127 46.9001 189.882 46.9001C187.649 46.9001 185.429 46.9001 183.958 45.8705C183.013 45.2105 182.54 44.2865 182.33 43.2437C182.159 42.4385 182.159 41.6861 182.159 40.9337C182.159 39.8645 183.026 38.9933 184.09 38.9933C185.154 38.9933 186.02 39.8645 186.02 40.9337C186.02 41.5277 186.02 42.1085 186.099 42.4781C186.125 42.6101 186.139 42.6893 186.152 42.6893C186.611 43.0193 188.24 43.0193 189.882 43.0193C191.497 43.0193 193.099 43.0193 193.546 42.6893C193.73 42.5441 193.73 41.5805 193.73 40.6301C193.73 39.9701 193.73 39.3101 193.677 38.8613C193.638 38.6369 193.611 38.4785 193.611 38.4785C193.506 38.3597 192.469 38.3597 191.011 38.3597C190.039 38.3597 188.936 38.3597 187.754 38.2541C186.467 38.1353 185.246 37.8713 184.339 37.3037C182.159 35.9705 182.159 33.8717 182.159 32.0105C182.159 31.2317 182.159 30.5057 182.343 29.7269C182.579 28.6973 183.065 27.8261 184.077 27.2189C185.508 26.3477 187.728 26.3477 189.921 26.3477C190.893 26.3477 191.852 26.3477 192.85 26.4401C193.979 26.5457 194.977 26.7701 195.752 27.2717C197.591 28.4597 197.591 30.2153 197.591 31.9841Z" fill="#030529"/>
<path fill-rule="evenodd" clip-rule="evenodd" d="M81.2295 58.3176L82.1226 58.1593C82.1751 58.542 82.3064 58.8324 82.5428 59.0436C82.7661 59.2548 83.0944 59.3472 83.5016 59.3472C83.9087 59.3472 84.2239 59.268 84.4209 59.0832C84.6179 58.8984 84.723 58.6872 84.723 58.4364C84.723 58.2252 84.631 58.0536 84.4472 57.9216C84.329 57.8424 84.0138 57.7236 83.5278 57.5917C82.8712 57.4201 82.4115 57.2616 82.162 57.1296C81.9124 56.9976 81.7154 56.8128 81.5841 56.5884C81.4528 56.3508 81.3871 56.1001 81.3871 55.8229C81.3871 55.5589 81.4396 55.3212 81.5447 55.11C81.6629 54.8989 81.8074 54.7141 81.9912 54.5689C82.1226 54.4633 82.3196 54.3709 82.556 54.2917C82.8055 54.2125 83.055 54.1729 83.3308 54.1729C83.7511 54.1729 84.1188 54.2388 84.434 54.3708C84.7492 54.4896 84.9725 54.6745 85.1301 54.8989C85.2746 55.1101 85.3796 55.4136 85.4322 55.7832L84.5522 55.9153C84.5128 55.6249 84.3946 55.3872 84.2108 55.2156C84.0138 55.044 83.7511 54.9648 83.3965 54.9648C82.9894 54.9648 82.7004 55.0441 82.5166 55.1893C82.3458 55.3345 82.2539 55.5061 82.2539 55.7041C82.2539 55.8361 82.2933 55.9416 82.359 56.0472C82.4378 56.1528 82.556 56.2321 82.7136 56.2981C82.7924 56.3377 83.055 56.4168 83.5016 56.5488C84.132 56.7336 84.5785 56.8788 84.828 56.9976C85.0776 57.1164 85.2746 57.288 85.419 57.5124C85.5635 57.7368 85.6423 58.014 85.6423 58.344C85.6423 58.6608 85.5504 58.9644 85.3796 59.2548C85.1958 59.532 84.9462 59.7564 84.6179 59.9148C84.2896 60.0732 83.9218 60.1524 83.5016 60.1524C82.8055 60.1524 82.2802 59.994 81.9256 59.6904C81.5578 59.3736 81.3346 58.9248 81.2295 58.3176Z" fill="#030529"/>
<path fill-rule="evenodd" clip-rule="evenodd" d="M118.673 57.9216L119.553 58.0536C119.461 58.7136 119.212 59.2284 118.818 59.598C118.424 59.9676 117.938 60.1524 117.36 60.1524C116.638 60.1524 116.047 59.8884 115.613 59.3736C115.167 58.872 114.943 58.1328 114.943 57.1824C114.943 56.562 115.048 56.0208 115.232 55.5588C115.416 55.0969 115.705 54.7536 116.099 54.516C116.48 54.2916 116.9 54.1729 117.36 54.1729C117.938 54.1729 118.411 54.3313 118.778 54.6481C119.133 54.9517 119.369 55.4004 119.474 55.9812L118.608 56.1264C118.529 55.7437 118.371 55.4533 118.161 55.2553C117.951 55.0705 117.701 54.9648 117.399 54.9648C116.94 54.9648 116.572 55.1365 116.296 55.4929C116.007 55.8493 115.863 56.3904 115.863 57.156C115.863 57.9216 116.007 58.476 116.283 58.8324C116.546 59.1756 116.913 59.3472 117.347 59.3472C117.701 59.3472 117.99 59.2416 118.227 59.004C118.463 58.7664 118.621 58.41 118.673 57.9216Z" fill="#030529"/>
<path fill-rule="evenodd" clip-rule="evenodd" d="M135.208 60.0208V59.176C134.788 59.8228 134.236 60.1528 133.527 60.1528C133.212 60.1528 132.923 60.0868 132.647 59.9548C132.385 59.8228 132.175 59.6644 132.043 59.4664C131.912 59.2684 131.82 59.0308 131.767 58.7404C131.741 58.5556 131.715 58.252 131.715 57.8428V54.292H132.621V57.46C132.621 57.9748 132.634 58.318 132.674 58.4896C132.726 58.7404 132.844 58.9384 133.028 59.0836C133.212 59.2288 133.435 59.308 133.711 59.308C133.974 59.308 134.223 59.2288 134.46 59.0836C134.696 58.9384 134.867 58.7272 134.959 58.4764C135.064 58.2256 135.116 57.8428 135.116 57.3544V54.292H136.009V60.0208H135.208Z" fill="#030529"/>
<path fill-rule="evenodd" clip-rule="evenodd" d="M148.827 60.0204V54.2917H149.628V55.176C149.838 54.7668 150.035 54.4896 150.206 54.3708C150.377 54.2388 150.574 54.1729 150.784 54.1729C151.086 54.1729 151.401 54.2785 151.703 54.4765L151.388 55.3741C151.165 55.2421 150.955 55.176 150.731 55.176C150.534 55.176 150.364 55.2421 150.206 55.3741C150.049 55.4929 149.943 55.6776 149.878 55.902C149.773 56.2452 149.72 56.6148 149.72 57.024V60.0204H148.827Z" fill="#030529"/>
<path fill-rule="evenodd" clip-rule="evenodd" d="M179.743 59.1624L179.874 60.0204C179.612 60.0732 179.388 60.0996 179.191 60.0996C178.863 60.0996 178.614 60.0468 178.43 59.9412C178.259 59.8224 178.128 59.6772 178.062 59.4924C177.983 59.3076 177.944 58.9248 177.944 58.344V55.044H177.287V54.2916H177.944V52.8792L178.85 52.2852V54.2916H179.743V55.044H178.85V58.3968C178.85 58.674 178.863 58.8588 178.889 58.938C178.929 59.0172 178.981 59.0832 179.047 59.1228C179.126 59.1756 179.218 59.202 179.349 59.202C179.454 59.202 179.585 59.1888 179.743 59.1624Z" fill="#030529"/>
<path fill-rule="evenodd" clip-rule="evenodd" d="M192.01 62.2252L191.905 61.3276C192.102 61.3936 192.273 61.42 192.417 61.42C192.627 61.42 192.785 61.3804 192.903 61.3144C193.021 61.2352 193.126 61.1428 193.192 61.0108C193.258 60.9052 193.35 60.6676 193.468 60.2848C193.494 60.232 193.507 60.1528 193.547 60.0472L191.537 54.292H192.496L193.612 57.6052C193.757 58.0276 193.875 58.4632 193.993 58.9252C194.098 58.4896 194.216 58.054 194.361 57.6316L195.49 54.292H196.396L194.387 60.1264C194.164 60.76 194.006 61.1824 193.875 61.42C193.717 61.7368 193.533 61.9744 193.323 62.1196C193.126 62.278 192.877 62.344 192.588 62.344C192.417 62.344 192.22 62.3044 192.01 62.2252Z" fill="#030529"/>
<path fill-rule="evenodd" clip-rule="evenodd" d="M84.6703 44.92C84.6703 45.9892 83.8035 46.8472 82.7529 46.8472C81.6891 46.8472 80.8223 45.9892 80.8223 44.92V26.11C80.8223 21.3448 80.8223 21.226 81.6628 20.6056C82.2144 20.1964 82.3589 20.1964 83.7773 20.1832H84.5521L86.1544 20.1568C87.7304 20.1436 89.661 20.1172 90.8955 20.1172C91.8149 20.1172 92.3665 20.1172 92.7736 20.17C93.3646 20.2228 93.7192 20.3284 94.1526 20.5132C94.5729 20.698 95.0851 20.962 95.5579 21.3184C95.9781 21.6352 96.3721 22.0312 96.6742 22.5196C97.0288 23.0872 97.1995 23.6944 97.2783 24.3808C97.3309 24.922 97.3309 25.4368 97.3309 26.044C97.3309 27.2716 97.3309 28.8688 97.3571 29.7004L97.3703 30.1096C97.3965 31.1788 97.4228 31.9972 97.1864 32.9476C97.0288 33.5812 96.753 34.2412 96.2671 34.8484C95.768 35.4688 95.0719 35.9968 94.1001 36.34C93.3121 36.6172 92.3665 36.7492 91.3552 36.8152C90.3571 36.868 89.4115 36.868 88.4659 36.868C87.3889 36.868 86.5353 35.9968 86.5353 34.9276C86.5353 33.8584 87.3889 32.9872 88.4659 32.9872C89.4246 32.9872 90.3833 32.9872 91.1188 32.9476C91.8411 32.908 92.4453 32.8288 92.8393 32.6968C93.0494 32.6176 93.1807 32.5252 93.2595 32.4328C93.3515 32.3272 93.404 32.1688 93.4434 31.9972C93.5616 31.5484 93.5485 30.9676 93.5222 30.2152L93.5091 29.7928C93.4697 28.3672 93.4697 27.0472 93.4697 26.044C93.4697 25.516 93.4697 25.0804 93.4434 24.8032C93.4303 24.658 93.4171 24.5656 93.404 24.5392C93.3777 24.5128 93.3252 24.46 93.2464 24.4072C93.0625 24.262 92.8393 24.1564 92.6554 24.0772C92.5766 24.0376 92.5109 24.0244 92.4059 24.0112C92.1038 23.9848 91.6704 23.9716 90.8955 23.9716C89.7135 23.9848 87.7829 24.0112 86.2069 24.0244L84.5915 24.0376L84.0399 24.0508C84.3157 24.2224 84.6703 24.6844 84.6703 26.11V44.92Z" fill="#030529"/>
</g>
<defs>
<clipPath id="clip0">
<rect width="197" height="50" fill="white"/>
</clipPath>
</defs>
</svg>
