<svg width="120" height="60" viewBox="0 0 120 60" fill="none" xmlns="http://www.w3.org/2000/svg">
<path d="M60.8393 29.3985H59.0472V22.4019C59.0381 21.7097 59.0642 21.0173 59.1251 20.3276C59.0671 20.6731 58.9618 21.009 58.8122 21.3258L55.5299 29.4636H54.2802L50.9926 21.4071L50.6797 20.3221C50.7576 20.7832 50.7576 21.4742 50.7576 22.474V29.4799H49.0378V18.6422H51.6165L54.5099 25.8649L54.9783 27.095C55.097 26.6472 55.2537 26.2104 55.4467 25.7894L58.4162 18.5666H60.9174L60.8393 29.3985ZM64.1995 20.0239C64.0549 20.0315 63.9103 20.008 63.7755 19.955C63.6407 19.9019 63.5189 19.8206 63.4182 19.7165C63.2084 19.5502 63.0918 19.2927 63.1054 19.0257C63.0756 18.7554 63.1954 18.4906 63.4182 18.3348C63.6412 18.1549 63.9138 18.0477 64.1995 18.0274C64.3442 18.0198 64.4888 18.0433 64.6236 18.0963C64.7583 18.1494 64.8802 18.2307 64.9809 18.3348C65.1907 18.5011 65.3073 18.7586 65.2937 19.0257C65.3235 19.2959 65.2037 19.5607 64.9809 19.7165C64.8802 19.8206 64.7583 19.9019 64.6236 19.955C64.4888 20.008 64.3442 20.0315 64.1995 20.0239ZM65.0585 29.3985H63.2609V21.6387H65.0585V29.3985ZM73.1056 29.0932C72.4798 29.4767 71.6987 29.6361 70.8396 29.6361C69.6677 29.6361 68.7291 29.2526 68.0257 28.56C67.3222 27.8673 66.9406 26.947 66.9406 25.793C66.9406 24.4874 67.3312 23.4874 68.1125 22.7187C68.8938 21.95 69.9101 21.5665 71.2374 21.5665C71.882 21.5667 72.5198 21.6971 73.1127 21.95V23.5595C72.6133 23.1883 72.0146 22.9742 71.393 22.9447C70.6142 22.9447 69.9861 23.1745 69.5177 23.7132C69.0367 24.2615 68.7848 24.9737 68.8143 25.7025C68.8143 26.471 69.0493 27.1616 69.5175 27.6232C70.0003 28.0845 70.6476 28.3332 71.3151 28.314C71.9775 28.3053 72.615 28.0602 73.1127 27.6232V29.0937L73.1056 29.0932ZM79.4352 23.3314C79.1519 23.1653 78.8264 23.0856 78.4961 23.1016C77.9533 23.1016 77.557 23.3314 77.1669 23.7925C76.7769 24.2536 76.6241 24.8775 76.6241 25.7131V29.4024H74.8265V21.6387H76.6241V23.2517C76.7718 22.7583 77.0403 22.3096 77.4051 21.9461C77.7469 21.6375 78.1945 21.4724 78.6549 21.485C78.898 21.4815 79.1387 21.5341 79.3583 21.6387L79.4352 23.3314ZM84.1995 29.6354C82.9498 29.6354 82.0114 29.252 81.3061 28.5593C80.6009 27.8666 80.2211 26.8684 80.2211 25.719C80.2211 24.4134 80.6117 23.4134 81.393 22.6447C82.1743 21.876 83.1906 21.5597 84.44 21.5597C85.6895 21.5597 86.6282 21.9431 87.3334 22.6447C88.0387 23.3463 88.3408 24.3301 88.3408 25.6357C88.3738 26.7363 87.9858 27.808 87.2558 28.6321C86.3824 29.3078 85.3036 29.6629 84.1995 29.64V29.6354ZM84.2774 22.8737C83.5745 22.8737 83.0279 23.104 82.6374 23.5646C82.2469 24.0256 82.0116 24.7167 82.0116 25.5539C82.0116 26.3911 82.2466 27.013 82.6374 27.4745C83.0282 27.936 83.5765 28.1653 84.2774 28.1653C84.9783 28.1653 85.5271 27.9356 85.9174 27.4745C86.3077 27.0134 86.4603 26.3984 86.4603 25.4852C86.4603 24.6407 86.3045 23.9505 85.9174 23.4958C85.6988 23.2893 85.441 23.1285 85.1593 23.023C84.8777 22.9174 84.5778 22.8691 84.2772 22.8811L84.2774 22.8737ZM89.5924 29.1688V27.5517C90.2956 28.0128 90.9992 28.3202 91.7805 28.3202C92.8739 28.3202 93.4205 28.0128 93.4205 27.398C93.4044 27.2344 93.3511 27.0767 93.2648 26.9369C93.1718 26.7944 93.0346 26.6866 92.8742 26.6295C92.6995 26.5393 92.5181 26.4623 92.3314 26.3998L91.6282 26.17C91.3355 26.0569 91.0489 25.9289 90.7692 25.7866C90.5472 25.652 90.3378 25.4977 90.1435 25.3255C89.9696 25.1518 89.8363 24.9419 89.7529 24.7107C89.6563 24.4657 89.6037 24.2056 89.5974 23.9423C89.592 23.5952 89.6727 23.2522 89.8324 22.9441C89.9837 22.6421 90.2312 22.399 90.5358 22.2532C90.8487 22.0235 91.1616 21.9458 91.5521 21.7922C91.9369 21.7033 92.3293 21.6518 92.724 21.6385C93.3887 21.6155 94.0516 21.7198 94.6771 21.9458V23.4851C94.1251 23.1104 93.4686 22.9205 92.8019 22.9425C92.5903 22.9246 92.3773 22.9505 92.1761 23.0185C92.0203 23.0945 91.8632 23.0945 91.7077 23.172C91.5686 23.2315 91.4571 23.3415 91.3948 23.4794C91.332 23.5969 91.305 23.7302 91.3169 23.8628C91.3044 24.0205 91.3311 24.1789 91.3946 24.3239C91.4565 24.462 91.5682 24.5718 91.7074 24.6313C91.8822 24.7215 92.0636 24.7985 92.2503 24.861C92.4853 24.9371 92.6408 25.0145 92.9535 25.0907C93.2509 25.2509 93.5643 25.3794 93.8885 25.4742C94.2014 25.5502 94.3569 25.7816 94.5917 25.9353C94.7661 26.1256 94.9229 26.3314 95.0601 26.55C95.1563 26.8215 95.2089 27.1066 95.2158 27.3946C95.2158 27.778 95.138 28.163 94.903 28.3928C94.7313 28.6806 94.49 28.9207 94.2014 29.0909C93.852 29.2722 93.4893 29.4263 93.1163 29.552C91.9333 29.8507 90.6824 29.714 89.5917 29.1667L89.5924 29.1688ZM100.457 29.6354C99.2073 29.6354 98.2689 29.252 97.5636 28.5593C96.8584 27.8666 96.4786 26.8684 96.4786 25.719C96.4786 24.4134 96.8692 23.4134 97.6505 22.6447C98.4318 21.876 99.4481 21.5597 100.698 21.5597C101.947 21.5597 102.886 21.9431 103.591 22.6447C104.296 23.3463 104.607 24.3356 104.607 25.6412C104.64 26.7418 104.252 27.8135 103.522 28.6376C102.637 29.3035 101.555 29.6553 100.448 29.6377L100.457 29.6354ZM100.535 22.8737C99.832 22.8737 99.2854 23.104 98.8949 23.5646C98.5044 24.0256 98.2691 24.7167 98.2691 25.5539C98.2691 26.3911 98.5041 27.013 98.8949 27.4745C99.2857 27.936 99.834 28.1653 100.535 28.1653C101.236 28.1653 101.785 27.9356 102.175 27.4745C102.565 27.0134 102.718 26.3984 102.718 25.4852C102.718 24.6407 102.562 23.9505 102.175 23.4958C101.957 23.2866 101.699 23.1232 101.417 23.0154C101.134 22.9076 100.833 22.8575 100.531 22.8682L100.535 22.8737ZM110.765 19.4105C110.506 19.2541 110.208 19.1744 109.906 19.1807C109.047 19.1807 108.577 19.6418 108.577 20.6398V21.7163H110.375V23.0998H108.577V29.4817H106.787V23.098H105.457V21.7145H106.787V20.4845C106.787 19.64 107.022 19.0254 107.565 18.5639C107.993 18.236 108.493 18.0155 109.023 17.921C109.553 17.8266 110.098 17.8608 110.613 18.021V19.4045H110.763L110.765 19.4105ZM115.927 29.3223C115.614 29.4754 115.145 29.552 114.52 29.552C112.958 29.552 112.254 28.8612 112.254 27.4001V23.0222H110.925V21.6387H112.254V19.8704L114.051 19.4093V21.715H115.927V23.0984H114.051V26.9465C114.026 27.2954 114.108 27.6436 114.286 27.9447C114.442 28.1745 114.755 28.2521 115.145 28.2521C115.423 28.2561 115.696 28.1726 115.924 28.0135V29.3191L115.927 29.3223ZM59.9909 45.356H57.9583L56.942 42.5909H52.5657L51.6266 45.3578H49.5958L53.7371 34.5236H55.7642L59.9909 45.356ZM56.4736 41.13L54.9114 36.8279C54.8428 36.6017 54.7908 36.3708 54.7559 36.1371C54.721 36.3708 54.6691 36.6017 54.6004 36.8279L53.1157 41.13H56.4736ZM67.1108 38.3591L62.8901 43.9652H67.1092V45.3487H60.3819V44.6707L64.76 38.9796H60.854V37.5961H67.1834V38.3593L67.1108 38.3591ZM75.54 45.356H73.7424V44.1283C73.5098 44.5637 73.1589 44.9246 72.7302 45.1693C72.3015 45.4141 71.8124 45.5328 71.3192 45.5117C69.4439 45.5117 68.5053 44.4356 68.5053 42.2079V37.5957H70.3029V42.0517C70.3029 43.4345 70.8496 44.126 71.9429 44.126C72.1904 44.136 72.4372 44.0927 72.6665 43.9991C72.8958 43.9055 73.1023 43.7637 73.2721 43.5833C73.6232 43.148 73.8147 42.6055 73.8147 42.0462V37.5957H75.6105L75.54 45.356ZM82.417 39.2868C82.1337 39.1207 81.8082 39.041 81.4779 39.057C80.9351 39.057 80.5388 39.2868 80.1487 39.7478C79.7587 40.2089 79.6059 40.8329 79.6059 41.6685V45.3576H77.8083V37.5957H79.6059V39.2087C79.7536 38.7153 80.0221 38.2665 80.387 37.9031C80.7255 37.5975 81.1657 37.4326 81.6238 37.442C81.867 37.4385 82.1077 37.4911 82.3273 37.5957L82.417 39.2868ZM90.3867 41.9758H84.996C84.996 42.6667 85.231 43.2814 85.6992 43.6667C86.0897 44.0501 86.7155 44.2815 87.4968 44.2815C88.345 44.3003 89.1743 44.0292 89.8478 43.513V44.8965C89.1389 45.3607 88.1986 45.5928 87.0267 45.5928C86.5209 45.6098 86.0169 45.5222 85.5465 45.3355C85.076 45.1488 84.6491 44.867 84.2925 44.5078C83.5893 43.817 83.2762 42.8169 83.2762 41.5113C83.2392 40.4329 83.6291 39.3834 84.3613 38.5907C84.7078 38.2138 85.1313 37.9158 85.603 37.7167C86.0747 37.5177 86.5837 37.4223 87.0955 37.4369C88.1805 37.4369 88.9707 37.7443 89.5967 38.4351C90.2227 39.126 90.4557 40.0481 90.4557 41.2754L90.3867 41.9758ZM88.667 40.7458C88.667 40.1311 88.5112 39.5937 88.1986 39.2868C88.0493 39.1025 87.8577 38.9569 87.6402 38.8624C87.4226 38.7679 87.1855 38.7273 86.9489 38.7439C86.7014 38.7339 86.4546 38.7772 86.2253 38.8708C85.996 38.9644 85.7894 39.1062 85.6197 39.2865C85.2291 39.67 85.0768 40.1311 84.9939 40.7456L88.667 40.7458Z" fill="#035BDA"/>
<path fill-rule="evenodd" clip-rule="evenodd" d="M28.5312 19.0379L22.7041 30.7738L32.9657 42.6644L13.9245 44.826L43.4709 45.1352L28.5312 19.0379ZM27.382 14.405L14.004 25.6007L4.07291 42.3559L12.5266 41.5084L27.382 14.405Z" fill="#035BDA"/>
</svg>
