<svg width="15" height="6" viewBox="0 0 15 6" fill="none" xmlns="http://www.w3.org/2000/svg">
<path d="M4.19854 1.18347C4.04687 1.00069 3.84872 0.84784 3.6041 0.724286C3.35947 0.602643 3.05796 0.541504 2.7008 0.541504H0.000106812V5.99824H1.61527V4.34747H2.56932C2.86776 4.34747 3.14297 4.30798 3.39555 4.22773C3.6469 4.1494 3.86524 4.02903 4.0481 3.86917C4.23096 3.70868 4.37345 3.50806 4.47375 3.26542C4.57405 3.0234 4.6242 2.73681 4.6242 2.405C4.6242 2.21075 4.59117 2.00568 4.52512 1.78532C4.45907 1.56751 4.35082 1.36626 4.19854 1.18347ZM3.02127 2.79094C2.9699 2.87055 2.90385 2.92915 2.82312 2.96736C2.74239 3.00493 2.65066 3.0285 2.54791 3.0355C2.44517 3.04251 2.34242 3.04697 2.23968 3.04697H1.61588V1.93881H2.33509C2.43294 1.93881 2.52834 1.94263 2.6213 1.95154C2.71426 1.95919 2.79621 1.9802 2.86715 2.01651C2.93809 2.05153 2.99436 2.10503 3.03595 2.177C3.07692 2.24769 3.09833 2.34513 3.09833 2.46677C3.09833 2.60434 3.07264 2.71261 3.02127 2.79094Z" fill="#0057FF"/>
<path d="M9.65131 1.386C9.46539 1.1338 9.2226 0.92936 8.92231 0.773963C8.62142 0.618566 8.25203 0.541504 7.81659 0.541504H5.16727V5.99824H7.50102C7.95603 5.99824 8.35233 5.93456 8.69053 5.80654C9.0275 5.67981 9.30699 5.49702 9.52593 5.26074C9.7461 5.02319 9.91 4.73596 10.0189 4.39842C10.1265 4.05896 10.1803 3.68066 10.1803 3.26287C10.1803 2.92278 10.1387 2.58587 10.0556 2.25788C9.97177 1.92925 9.83784 1.63884 9.65131 1.386ZM8.5254 3.66665C8.4985 3.82459 8.44407 3.97235 8.36395 4.10927C8.28261 4.24748 8.16702 4.36275 8.01535 4.45764C7.86368 4.55254 7.66309 4.59839 7.41418 4.59839H6.78304V1.93944H7.29676C7.5897 1.93944 7.82149 1.99039 7.99028 2.09229C8.15846 2.19419 8.28628 2.31647 8.3719 2.45913C8.45752 2.60243 8.51195 2.74509 8.53336 2.89093C8.55537 3.03678 8.5676 3.15205 8.5676 3.2393C8.56577 3.36604 8.55231 3.5087 8.5254 3.66665Z" fill="#0057FF"/>
<path d="M10.8769 5.99824H12.4921V3.92012H14.5836V2.62026H12.4921V1.93944H14.9279V0.541504H10.8769V5.99824Z" fill="#0057FF"/>
</svg>
