<svg width="120" height="60" viewBox="0 0 120 60" fill="none" xmlns="http://www.w3.org/2000/svg">
<path d="M59.999 5.26904C50.769 5.26904 43.286 12.751 43.286 21.982C43.286 31.213 50.769 38.695 59.999 38.695C69.229 38.695 76.712 31.212 76.712 21.982C76.712 12.752 69.229 5.26904 59.999 5.26904ZM59.999 36.549C57.373 36.549 55.244 34.795 55.244 32.631H64.754C64.754 34.794 62.624 36.549 59.999 36.549ZM67.853 31.334H52.143V28.484H67.843V31.334H67.853ZM67.797 27.019H52.189L52.034 26.839C50.426 24.886 50.047 23.867 49.68 22.829C49.674 22.795 51.63 23.229 53.017 23.541C53.6001 23.6718 54.1859 23.7902 54.774 23.896C53.772 22.722 53.177 21.229 53.177 19.703C53.177 16.353 55.747 13.425 54.819 11.059C55.721 11.132 56.686 12.963 56.751 15.826C57.711 14.501 58.111 12.08 58.111 10.596C58.111 9.05904 59.124 7.27404 60.136 7.21304C59.233 8.70104 60.37 9.97704 61.38 13.141C61.76 14.331 61.71 16.331 62.003 17.598C62.1 14.963 62.553 11.118 64.225 9.79204C63.488 11.462 64.335 13.555 64.913 14.56C65.847 16.182 66.413 17.41 66.413 19.736C66.413 21.296 65.838 22.762 64.867 23.909C65.971 23.702 66.733 23.515 66.733 23.515L70.317 22.815C70.317 22.815 69.797 24.955 67.795 27.019H67.797Z" fill="#DA4E31"/>
<path d="M14.292 42.1909C15.07 42.0609 16.089 41.9509 17.385 41.9509C18.978 41.9509 20.145 42.3209 20.885 42.9879C21.552 43.5809 21.978 44.4879 21.978 45.5999C21.978 46.7299 21.645 47.6199 21.015 48.2669C20.145 49.1749 18.775 49.6369 17.199 49.6369C16.717 49.6369 16.273 49.6169 15.902 49.5369V54.5369H14.302L14.292 42.1909ZM15.892 48.2109C16.244 48.3039 16.689 48.3409 17.226 48.3409C19.171 48.3409 20.356 47.3779 20.356 45.6909C20.356 44.0239 19.171 43.2279 17.411 43.2279C16.707 43.2279 16.171 43.2839 15.891 43.3579L15.892 48.2109ZM23.785 48.3589L23.711 45.5619H25.137L25.211 47.3399H25.267C25.675 46.1359 26.675 45.3759 27.767 45.3759C27.934 45.3759 28.063 45.3959 28.212 45.4129V46.9499C28.045 46.9129 27.879 46.9129 27.656 46.9129C26.508 46.9129 25.693 47.7649 25.47 48.9879C25.4315 49.2394 25.4128 49.4935 25.414 49.7479V54.5279H23.784V48.3599L23.785 48.3589ZM37.779 49.9589C37.779 53.2749 35.464 54.7189 33.315 54.7189C30.907 54.7189 29.018 52.9409 29.018 50.1069C29.018 47.1249 31 45.3649 33.464 45.3649C36.039 45.3649 37.78 47.2349 37.78 49.9589H37.779ZM30.685 50.0519C30.685 52.0159 31.785 53.4969 33.389 53.4969C34.945 53.4969 36.112 52.0339 36.112 50.0149C36.112 48.4949 35.352 46.5879 33.426 46.5879C31.518 46.5879 30.686 48.3659 30.686 50.0519H30.685ZM39.837 47.9759L39.763 45.5499H41.189L41.263 47.0129H41.319C41.819 46.1609 42.653 45.3629 44.153 45.3629C45.357 45.3629 46.283 46.1029 46.673 47.1599H46.71C46.9593 46.7005 47.3073 46.3019 47.729 45.9929C48.266 45.5859 48.829 45.3629 49.692 45.3629C50.896 45.3629 52.656 46.1409 52.656 49.2629V54.5229H51.063V49.4669C51.063 47.7269 50.413 46.7069 49.118 46.7069C48.173 46.7069 47.468 47.3919 47.173 48.1699C47.0895 48.4337 47.0457 48.7083 47.043 48.9849V54.5229H45.449V49.1529C45.449 47.7269 44.819 46.7079 43.579 46.7079C42.579 46.7079 41.819 47.5229 41.559 48.3379C41.466 48.5599 41.429 48.8579 41.429 49.1349V54.5349H39.836V47.9949L39.837 47.9759ZM56.194 50.3309C56.231 52.5349 57.62 53.4429 59.269 53.4429C60.436 53.4429 61.169 53.2389 61.751 52.9799L62.047 54.1469C61.473 54.4069 60.473 54.7209 59.047 54.7209C56.287 54.7209 54.639 52.8869 54.639 50.1829C54.639 47.4789 56.232 45.3669 58.844 45.3669C61.789 45.3669 62.549 47.9229 62.549 49.5719C62.5541 49.8265 62.5354 50.0809 62.493 50.3319L56.194 50.3309ZM60.974 49.1639C60.994 48.1439 60.548 46.5339 58.714 46.5339C57.047 46.5339 56.344 48.0339 56.214 49.1639H60.974ZM66.529 43.4039V45.5539H68.863V46.7939H66.529V51.6289C66.529 52.7289 66.844 53.3689 67.752 53.3689C68.197 53.3689 68.456 53.3319 68.697 53.2689L68.771 54.5089C68.456 54.6089 67.956 54.7309 67.326 54.7309C66.566 54.7309 65.956 54.4709 65.566 54.0459C65.121 53.5459 64.936 52.7489 64.936 51.6929V46.7929H63.549V45.5529H64.949V43.8969L66.529 43.4039ZM70.699 41.3569H72.329V46.9699H72.366C72.6412 46.4817 73.0448 46.0781 73.533 45.8029C74.0401 45.5112 74.6149 45.3577 75.2 45.3579C76.404 45.3579 78.33 46.0979 78.33 49.1739V54.5079H76.7V49.3669C76.7 47.9219 76.163 46.7169 74.625 46.7169C73.569 46.7169 72.755 47.4569 72.439 48.3169C72.347 48.5569 72.339 48.7989 72.339 49.0949V54.4949H70.709V41.3669L70.699 41.3569ZM81.887 50.3209C81.924 52.5249 83.313 53.4329 84.962 53.4329C86.129 53.4329 86.862 53.2289 87.444 52.9699L87.74 54.1369C87.166 54.3969 86.166 54.7109 84.74 54.7109C81.98 54.7109 80.34 52.8769 80.34 50.1729C80.34 47.4689 81.933 45.3569 84.545 45.3569C87.49 45.3569 88.25 47.9129 88.25 49.5619C88.2558 49.8165 88.237 50.071 88.194 50.3219L81.887 50.3209ZM86.667 49.1539C86.687 48.1339 86.241 46.5239 84.407 46.5239C82.74 46.5239 82.037 48.0239 81.907 49.1539H86.667ZM97.761 52.0639L97.835 54.5279H96.389L96.296 53.0649H96.249C95.841 53.7869 94.879 54.7319 93.285 54.7319C91.877 54.7319 90.192 53.9349 90.192 50.8049V45.5629H91.822V50.5079C91.822 52.2119 92.359 53.3779 93.822 53.3779C94.915 53.3779 95.674 52.6179 95.972 51.8779C96.0739 51.6119 96.1242 51.3288 96.12 51.0439V45.5609H97.75L97.761 52.0639ZM100.244 52.8779C100.744 53.1739 101.596 53.5079 102.411 53.5079C103.578 53.5079 104.133 52.9339 104.133 52.1739C104.133 51.3959 103.67 50.9889 102.483 50.5439C100.853 49.9509 100.083 49.0809 100.083 48.0059C100.083 46.5609 101.268 45.3759 103.176 45.3759C104.084 45.3759 104.88 45.6159 105.362 45.9319L104.962 47.1169C104.61 46.8949 103.962 46.5799 103.128 46.5799C102.165 46.5799 101.646 47.1359 101.646 47.8029C101.646 48.5429 102.164 48.8769 103.331 49.3399C104.868 49.9139 105.683 50.6919 105.683 52.0259C105.683 53.6189 104.443 54.7299 102.349 54.7299C101.367 54.7299 100.449 54.4699 99.829 54.0999L100.244 52.8779Z" fill="#E6522C"/>
</svg>
