<?xml version="1.0" encoding="utf-8"?>
<!-- Generator: Adobe Illustrator 25.2.1, SVG Export Plug-In . SVG Version: 6.00 Build 0)  -->
<svg version="1.1" id="Layer_1" xmlns="http://www.w3.org/2000/svg" xmlns:xlink="http://www.w3.org/1999/xlink" x="0px" y="0px"
	 viewBox="0 0 428 26" style="enable-background:new 0 0 428 26;" xml:space="preserve">
<style type="text/css">
	.st0{fill:#4949C0;stroke:#4949C0;stroke-width:2;}
</style>
<path class="st0" d="M425.7,14.5l-8.7,9.9c-0.6,0.7-1.6,0.7-2.1,0c-0.5-0.6-0.5-1.5,0-2l6.9-7.9H2.5h-1v-1v-1v-1h1
	c0,0,419.3,0,419.3,0l-6.9-7.9c-0.5-0.6-0.5-1.5,0-2c0.6-0.7,1.6-0.7,2.1,0l8.7,9.9l-0.8-0.9l1.2,1.4c0.5,0.6,0.5,1.5,0,2
	L425.7,14.5z M411.7,1.7L411.7,1.7C411.7,1.7,411.7,1.7,411.7,1.7z"/>
</svg>
