<svg width="96" height="96" viewBox="0 0 96 96" fill="none" xmlns="http://www.w3.org/2000/svg">
<path d="M54 43.5H63V46.5H54V43.5Z" fill="url(#paint0_linear)"/>
<path d="M54 25.5H63V28.5H54V25.5Z" fill="url(#paint1_linear)"/>
<path d="M18 43.5H24V46.5H18V43.5Z" fill="url(#paint2_linear)"/>
<path d="M27 43.5H33V46.5H27V43.5Z" fill="url(#paint3_linear)"/>
<path d="M18 61.5H24V64.5H18V61.5Z" fill="url(#paint4_linear)"/>
<path d="M27 61.5H33V64.5H27V61.5Z" fill="url(#paint5_linear)"/>
<path d="M18 25.5H24V28.5H18V25.5Z" fill="url(#paint6_linear)"/>
<path d="M27 25.5H33V28.5H27V25.5Z" fill="url(#paint7_linear)"/>
<path d="M87 66C87 63.791 85.4004 61.9453 83.291 61.5703C83.0977 60.9551 82.8691 60.4629 82.623 60.0117C83.1152 59.2793 83.3789 58.418 83.3789 57.5156C83.3789 56.3086 82.9102 55.1836 82.0605 54.334C80.5488 52.8223 78.0176 52.623 76.3066 53.8242C75.8613 53.6074 75.4043 53.4258 74.9414 53.2617C74.6543 51.5215 73.3535 50.127 71.6719 49.6699C71.877 49.1543 72 48.5918 72 48V42C72 40.0488 70.7402 38.3965 69 37.7754V34.2246C70.7402 33.6035 72 31.9512 72 30V24C72 21.5156 69.9785 19.5 67.5 19.5H66V18C66 15.5156 63.9785 13.5 61.5 13.5H19.5C17.0215 13.5 15 15.5156 15 18V19.5H13.5C11.0215 19.5 9 21.5156 9 24V30C9 31.9512 10.2598 33.6035 12 34.2246V37.7754C10.2598 38.3965 9 40.0488 9 42V48C9 49.9512 10.2598 51.6035 12 52.2246V55.7754C10.2598 56.3965 9 58.0488 9 60V66C9 68.4785 11.0215 70.5 13.5 70.5H15V72C15 74.4785 17.0215 76.5 19.5 76.5H57.9434C58.1602 76.9629 58.4531 77.3906 58.834 77.7715C60.4336 79.377 62.959 79.5117 64.7168 78.1875C65.1562 78.3926 65.6016 78.5801 66.0586 78.7383C66.4102 80.8652 68.2676 82.5 70.5 82.5C72.7324 82.5 74.5898 80.8711 74.9414 78.7383C75.3984 78.5801 75.8438 78.3926 76.2832 78.1875C78 79.4883 80.6191 79.3242 82.166 77.7715C83.748 76.1953 83.9062 73.7168 82.6406 71.9648C82.8809 71.5195 83.1035 71.0391 83.291 70.4297C85.4004 70.0547 87 68.209 87 66ZM58.0605 55.5H15V52.5H66.2578C66.1699 52.7461 66.1055 52.998 66.0586 53.2617C65.543 53.4434 65.0332 53.6543 64.541 53.9004C62.7949 52.7109 60.3867 52.8926 58.834 54.4395C58.5117 54.7559 58.2656 55.1191 58.0605 55.5ZM66 34.5V37.5H15V34.5H66ZM18 18C18 17.1738 18.6738 16.5 19.5 16.5H61.5C62.3262 16.5 63 17.1738 63 18V19.5H18V18ZM12 24C12 23.1738 12.6738 22.5 13.5 22.5H67.5C68.3262 22.5 69 23.1738 69 24V30C69 30.8262 68.3262 31.5 67.5 31.5H13.5C12.6738 31.5 12 30.8262 12 30V24ZM12 42C12 41.1738 12.6738 40.5 13.5 40.5H67.5C68.3262 40.5 69 41.1738 69 42V48C69 48.8262 68.3262 49.5 67.5 49.5H13.5C12.6738 49.5 12 48.8262 12 48V42ZM12 66V60C12 59.1738 12.6738 58.5 13.5 58.5H57.6152C57.7324 59.0801 57.9492 59.6484 58.2949 60.1582C58.0781 60.5625 57.873 61.1016 57.6973 61.6699C55.6875 62.0449 54.1465 63 54.0234 66L54 66.0293L54.0059 66.0586C54.0059 66.0762 54 66.0586 54 66.0703C54 66.1289 54.0176 66.0293 54.0176 66.082L54.0234 66C54.0469 66 54.123 67.1133 54.2637 67.5H13.5C12.6738 67.5 12 66.8262 12 66ZM18 72V70.5H57.7324C57.9199 71.0684 58.1309 71.5371 58.3594 71.9648C58.0254 72.4336 57.791 72.9609 57.6562 73.5H19.5C18.6738 73.5 18 72.8262 18 72ZM82.5 67.5H80.8652L80.6309 68.7188C80.4082 69.873 80.1035 70.377 79.5996 71.2207L78.9023 72.3867L80.0449 73.5293C80.6309 74.1152 80.6309 75.0703 80.0449 75.6504C79.4824 76.2188 78.4922 76.2188 77.9238 75.6562L76.7637 74.4902L75.7676 75.0762C74.9473 75.5508 74.0625 75.9141 73.125 76.1543L72 76.4473V78C72 78.8262 71.3262 79.5 70.5 79.5C69.6738 79.5 69 78.8262 69 78V76.4473L67.875 76.1543C66.9375 75.9141 66.0527 75.5508 65.2324 75.0703L64.2363 74.4902L63.0762 75.6504C62.4902 76.2363 61.541 76.2363 60.9551 75.6504C60.3691 75.0645 60.3691 74.1152 60.9551 73.5293L62.0977 72.3867L61.4004 71.2148C60.8965 70.377 60.5918 69.8672 60.3691 68.7129L60.1289 67.5H58.5C57.6621 67.5 57.0059 66.8555 57 66.0469C57.0059 65.209 57.6914 64.5 58.5 64.5H60.1406L60.3691 63.2754C60.5684 62.1914 60.8262 61.752 61.2598 61.0254L62.0098 59.7363L60.9551 58.6816C60.3691 58.0957 60.3691 57.1465 60.9551 56.5605C61.5352 55.9746 62.4902 55.9746 63.0762 56.5605L64.1133 57.6035L65.1211 57C65.9766 56.4844 66.9023 56.0977 67.875 55.8457L69 55.5527V54C69 53.1738 69.6738 52.5 70.5 52.5C71.3262 52.5 72 53.1738 72 54V55.5527L73.125 55.8457C74.0566 56.0859 74.9473 56.4492 75.7676 56.9238L76.7637 57.5098L77.8184 56.4551C78.3867 55.8867 79.3711 55.8867 79.9395 56.4551C80.5254 57.041 80.5254 57.9902 79.9395 58.5762L78.9023 59.6191L79.5938 60.7734C80.1035 61.6172 80.4082 62.127 80.6367 63.2812L80.8711 64.5H82.5C83.3262 64.5 84 65.1738 84 66C84 66.8262 83.3262 67.5 82.5 67.5Z" fill="url(#paint8_linear)"/>
<path d="M70.5 58.5C66.3574 58.5 63 61.8574 63 66C63 70.1426 66.3574 73.5 70.5 73.5C74.6426 73.5 78 70.1426 78 66C78 61.8574 74.6426 58.5 70.5 58.5Z" fill="url(#paint9_linear)"/>
<defs>
<linearGradient id="paint0_linear" x1="58.5" y1="12.2505" x2="58.5" y2="83.2575" gradientUnits="userSpaceOnUse">
<stop stop-color="#00C6FF"/>
<stop offset="1" stop-color="#0072FF"/>
</linearGradient>
<linearGradient id="paint1_linear" x1="58.5" y1="12.2505" x2="58.5" y2="83.2575" gradientUnits="userSpaceOnUse">
<stop stop-color="#00C6FF"/>
<stop offset="1" stop-color="#0072FF"/>
</linearGradient>
<linearGradient id="paint2_linear" x1="21" y1="12.2505" x2="21" y2="83.2575" gradientUnits="userSpaceOnUse">
<stop stop-color="#00C6FF"/>
<stop offset="1" stop-color="#0072FF"/>
</linearGradient>
<linearGradient id="paint3_linear" x1="30" y1="12.2505" x2="30" y2="83.2575" gradientUnits="userSpaceOnUse">
<stop stop-color="#00C6FF"/>
<stop offset="1" stop-color="#0072FF"/>
</linearGradient>
<linearGradient id="paint4_linear" x1="21" y1="12.2505" x2="21" y2="83.2575" gradientUnits="userSpaceOnUse">
<stop stop-color="#00C6FF"/>
<stop offset="1" stop-color="#0072FF"/>
</linearGradient>
<linearGradient id="paint5_linear" x1="30" y1="12.2505" x2="30" y2="83.2575" gradientUnits="userSpaceOnUse">
<stop stop-color="#00C6FF"/>
<stop offset="1" stop-color="#0072FF"/>
</linearGradient>
<linearGradient id="paint6_linear" x1="21" y1="12.2505" x2="21" y2="83.2575" gradientUnits="userSpaceOnUse">
<stop stop-color="#00C6FF"/>
<stop offset="1" stop-color="#0072FF"/>
</linearGradient>
<linearGradient id="paint7_linear" x1="30" y1="12.2505" x2="30" y2="83.2575" gradientUnits="userSpaceOnUse">
<stop stop-color="#00C6FF"/>
<stop offset="1" stop-color="#0072FF"/>
</linearGradient>
<linearGradient id="paint8_linear" x1="48" y1="12.2505" x2="48" y2="83.2575" gradientUnits="userSpaceOnUse">
<stop stop-color="#00C6FF"/>
<stop offset="1" stop-color="#0072FF"/>
</linearGradient>
<linearGradient id="paint9_linear" x1="70.5" y1="56.25" x2="70.5" y2="73.7505" gradientUnits="userSpaceOnUse">
<stop stop-color="#70DFFF"/>
<stop offset="1" stop-color="#70AFFF"/>
</linearGradient>
</defs>
</svg>
