<svg width="96" height="96" viewBox="0 0 96 96" fill="none" xmlns="http://www.w3.org/2000/svg">
<path d="M36.2437 0.000962244C35.7909 0.0160862 35.36 0.196952 35.0346 0.508429L8.5562 25.769C8.29484 26.0189 8.11496 26.3403 8.03962 26.6919C7.96427 27.0435 7.99689 27.4093 8.13329 27.7424C8.26969 28.0756 8.50366 28.3609 8.80522 28.5618C9.10678 28.7627 9.46219 28.8701 9.82591 28.8702H20.7825V68.5654C20.7825 69.0439 20.9749 69.5028 21.3174 69.8412C21.6598 70.1795 22.1243 70.3697 22.6086 70.3697H40.8695C41.1115 70.3731 41.3517 70.3289 41.5763 70.2398C41.8009 70.1506 42.0052 70.0182 42.1776 69.8503C42.3499 69.6825 42.4867 69.4824 42.5801 69.2618C42.6735 69.0412 42.7216 68.8045 42.7216 68.5654C42.7216 68.3263 42.6735 68.0895 42.5801 67.8689C42.4867 67.6483 42.3499 67.4483 42.1776 67.2804C42.0052 67.1125 41.8009 66.9802 41.5763 66.891C41.3517 66.8018 41.1115 66.7577 40.8695 66.7611H24.4347V27.0659C24.4346 26.5873 24.2422 26.1284 23.8998 25.7901C23.5573 25.4517 23.0929 25.2616 22.6086 25.2615H14.3448L36.3043 4.31443L58.2638 25.2615H50C49.5157 25.2616 49.0513 25.4517 48.7088 25.7901C48.3664 26.1284 48.174 26.5873 48.1739 27.0659V36.0875C48.1705 36.3266 48.2152 36.564 48.3054 36.7859C48.3957 37.0077 48.5296 37.2097 48.6995 37.3799C48.8694 37.5502 49.0719 37.6854 49.2952 37.7777C49.5184 37.87 49.758 37.9175 50 37.9175C50.242 37.9175 50.4816 37.87 50.7048 37.7777C50.9281 37.6854 51.1306 37.5502 51.3005 37.3799C51.4704 37.2097 51.6043 37.0077 51.6946 36.7859C51.7848 36.564 51.8295 36.3266 51.8261 36.0875V28.8702H62.7827C63.1464 28.8701 63.5018 28.7627 63.8034 28.5618C64.1049 28.3609 64.3389 28.0756 64.4753 27.7424C64.6117 27.4093 64.6443 27.0434 64.569 26.6919C64.4936 26.3403 64.3137 26.0189 64.0524 25.769L37.574 0.508429C37.398 0.340001 37.1896 0.208275 36.961 0.121094C36.7325 0.0339128 36.4885 -0.00694169 36.2437 0.000962244ZM59.1305 12.6312C58.8885 12.6279 58.6483 12.672 58.4237 12.7612C58.1991 12.8504 57.9948 12.9827 57.8224 13.1506C57.6501 13.3185 57.5133 13.5185 57.4199 13.7391C57.3265 13.9597 57.2784 14.1965 57.2784 14.4356C57.2784 14.6747 57.3265 14.9114 57.4199 15.132C57.5133 15.3526 57.6501 15.5527 57.8224 15.7205C57.9948 15.8884 58.1991 16.0208 58.4237 16.11C58.6483 16.1991 58.8885 16.2433 59.1305 16.2399H75.5653V55.9351C75.5654 56.4136 75.7578 56.8725 76.1002 57.2109C76.4427 57.5493 76.9071 57.7394 77.3914 57.7394H85.6552L63.6957 78.6865L41.7362 57.7394H50C50.4843 57.7394 50.9487 57.5493 51.2912 57.2109C51.6336 56.8725 51.826 56.4136 51.8261 55.9351V46.9135C51.8295 46.6744 51.7848 46.437 51.6946 46.2151C51.6043 45.9932 51.4704 45.7913 51.3005 45.621C51.1306 45.4507 50.9281 45.3155 50.7048 45.2232C50.4816 45.131 50.242 45.0834 50 45.0834C49.758 45.0834 49.5184 45.131 49.2952 45.2232C49.0719 45.3155 48.8694 45.4507 48.6995 45.621C48.5296 45.7913 48.3957 45.9932 48.3054 46.2151C48.2152 46.437 48.1705 46.6744 48.1739 46.9135V54.1308H37.2173C36.8536 54.1308 36.4982 54.2382 36.1966 54.4391C35.8951 54.6401 35.6611 54.9254 35.5247 55.2585C35.3883 55.5917 35.3557 55.9575 35.431 56.3091C35.5064 56.6607 35.6863 56.982 35.9476 57.232L62.426 82.4925C62.7666 82.818 63.2219 83 63.6957 83C64.1695 83 64.6248 82.818 64.9654 82.4925L91.4438 57.232C91.7052 56.982 91.885 56.6607 91.9604 56.3091C92.0357 55.9575 92.0031 55.5917 91.8667 55.2585C91.7303 54.9254 91.4963 54.6401 91.1948 54.4391C90.8932 54.2382 90.5378 54.1308 90.1741 54.1308H79.2175V14.4356C79.2175 13.9571 79.0251 13.4981 78.6826 13.1598C78.3402 12.8214 77.8757 12.6313 77.3914 12.6312H59.1305Z" fill="#0057FF"/>
</svg>
