<svg width="120" height="60" viewBox="0 0 120 60" fill="none" xmlns="http://www.w3.org/2000/svg">
<path d="M50.66 30.044V30C50.66 25.615 53.965 22.024 58.702 22.024C61.602 22.024 63.352 22.994 64.782 24.404L62.622 26.904C61.422 25.824 60.22 25.164 58.678 25.164C56.078 25.164 54.205 27.324 54.205 29.968V30.012C54.205 32.657 56.035 34.86 58.678 34.86C60.441 34.86 61.52 34.154 62.732 33.053L64.892 35.233C63.306 36.928 61.544 37.987 58.569 37.987C54.029 37.987 50.669 34.484 50.669 30.054L50.66 30.044ZM68.564 22.268H71.958V28.373H78.218V22.268H81.613V37.698H78.218V31.503H71.958V37.697H68.564V22.268ZM85.74 22.268H97.38V25.288H89.113V28.418H96.387V31.438H89.113V34.678H97.489V37.698H85.74V22.268ZM101.94 22.268H113.687V25.354H105.333V28.638H112.695V31.724H105.333V37.697H101.93L101.94 22.268ZM25.134 38.48C20.464 38.48 16.662 34.68 16.662 30.01C16.662 25.34 20.462 21.537 25.134 21.537C28.99 21.537 32.25 24.137 33.272 27.657H36.56C35.46 22.345 30.756 18.345 25.134 18.345C22.0443 18.3492 19.0824 19.5785 16.8977 21.7634C14.713 23.9482 13.484 26.9103 13.48 30C13.4842 33.0895 14.7134 36.0513 16.898 38.2359C19.0827 40.4205 22.0445 41.6497 25.134 41.654C30.754 41.654 35.458 37.654 36.55 32.351H33.272C32.25 35.881 28.992 38.471 25.134 38.471" fill="#435363"/>
<path d="M19.423 35.71C20.886 37.173 22.907 38.08 25.123 38.08V34.702C24.5053 34.7025 23.8936 34.5811 23.323 34.3446C22.7524 34.1082 22.2342 33.7613 21.798 33.324L19.423 35.71Z" fill="#435363"/>
<path d="M17.054 30C17.0537 31.12 17.2873 32.2277 17.74 33.252L20.84 31.892C20.577 31.2956 20.4414 30.6509 20.442 29.999C20.442 27.402 22.548 25.297 25.144 25.297V21.92C23.002 21.923 20.9487 22.7752 19.4341 24.2899C17.9196 25.8046 17.0676 27.8581 17.065 30" fill="#F38B00"/>
<path d="M28.063 22.48L26.838 25.62C27.838 26.02 28.674 26.72 29.205 27.65H32.865C32.14 25.277 30.356 23.365 28.063 22.48Z" fill="#435363"/>
<path d="M26.84 34.38L28.065 37.53C29.2036 37.0839 30.2267 36.3865 31.058 35.4897C31.8893 34.5929 32.5074 33.52 32.866 32.351H29.206C28.674 33.271 27.839 33.991 26.839 34.381" fill="#F38B00"/>
<path d="M10.185 34.5199L10.033 33.9859L10.023 33.9529L9.89999 33.4529L9.87699 33.3499L9.77699 32.9159L9.74299 32.7209L9.68299 32.3709L9.64099 32.0709C9.54899 31.3909 9.49899 30.6979 9.50099 29.9969H6.30099C6.29999 30.7609 6.34799 31.5169 6.43799 32.2619L6.44499 32.3099L6.52899 32.9159L6.55699 33.0829L6.64499 33.5769L6.69799 33.8369L6.78299 34.2369L6.86699 34.5769L6.94399 34.8809L7.10399 35.4479C7.32399 36.1779 7.58399 36.8879 7.88999 37.5759L10.814 36.2899C10.562 35.7199 10.344 35.1299 10.162 34.5239L10.185 34.5199Z" fill="#435363"/>
<path d="M25.134 45.62C20.828 45.62 16.934 43.867 14.096 41.038L11.836 43.298C15.24 46.702 19.94 48.81 25.134 48.81C34.726 48.81 42.64 41.63 43.797 32.35H40.577C40.0087 36.0401 38.14 39.4054 35.308 41.8385C32.4761 44.2716 28.8676 45.6121 25.134 45.618V45.62ZM25.134 14.38C28.5012 14.3759 31.7785 15.4664 34.472 17.487L36.384 14.925C33.1376 12.4942 29.1896 11.1835 25.134 11.19C17.152 11.19 10.334 16.16 7.60201 23.177L10.579 24.335C12.86 18.514 18.52 14.38 25.134 14.38Z" fill="#F38B00"/>
<path d="M40.577 27.65H43.797C43.4604 24.9466 42.5372 22.3494 41.092 20.04L38.38 21.732C39.5094 23.5333 40.2571 25.5472 40.577 27.649" fill="#435363"/>
<path d="M36.96 27.6501H40.19C39.347 22.2301 35.637 17.7501 30.665 15.8101L29.5 18.7771C31.3846 19.5141 33.054 20.7124 34.3553 22.2621C35.6566 23.8118 36.548 25.6634 36.948 27.6471" fill="#F38B00"/>
<path d="M25.134 17.954V14.772C18.684 14.772 13.159 18.802 10.934 24.478L13.899 25.632C15.652 21.132 20.023 17.954 25.125 17.954" fill="#435363"/>
<path d="M13.088 30H9.90601C9.90601 36.4 13.876 41.886 19.479 44.135L20.662 41.18C16.228 39.4 13.09 35.06 13.09 29.998" fill="#F38B00"/>
<path d="M25.134 42.045V45.227C32.731 45.227 39.046 39.634 40.18 32.35H36.96C35.864 37.87 30.983 42.045 25.145 42.045" fill="#435363"/>
</svg>
