<svg width="78" height="70" viewBox="0 0 78 70" fill="none" xmlns="http://www.w3.org/2000/svg">
<path d="M78 53C78 50.791 76.4004 48.9453 74.291 48.5703C74.0977 47.9551 73.8691 47.4629 73.623 47.0117C74.1152 46.2793 74.3789 45.418 74.3789 44.5156C74.3789 43.3086 73.9102 42.1836 73.0605 41.334C71.5488 39.8223 69.0176 39.623 67.3066 40.8242C66.8613 40.6074 66.4043 40.4258 65.9414 40.2617C65.6543 38.5215 64.3535 37.127 62.6719 36.6699C62.877 36.1543 63 35.5918 63 35V29C63 27.0488 61.7402 25.3965 60 24.7754V21.2246C61.7402 20.6035 63 18.9512 63 17V11C63 8.51562 60.9785 6.5 58.5 6.5H57V5C57 2.51562 54.9785 0.5 52.5 0.5H10.5C8.02148 0.5 6 2.51562 6 5V6.5H4.5C2.02148 6.5 0 8.51562 0 11V17C0 18.9512 1.25977 20.6035 3 21.2246V24.7754C1.25977 25.3965 0 27.0488 0 29V35C0 36.9512 1.25977 38.6035 3 39.2246V42.7754C1.25977 43.3965 0 45.0488 0 47V53C0 55.4785 2.02148 57.5 4.5 57.5H6V59C6 61.4785 8.02148 63.5 10.5 63.5H48.9434C49.1602 63.9629 49.4531 64.3906 49.834 64.7715C51.4336 66.377 53.959 66.5117 55.7168 65.1875C56.1562 65.3926 56.6016 65.5801 57.0586 65.7383C57.4102 67.8652 59.2676 69.5 61.5 69.5C63.7324 69.5 65.5898 67.8711 65.9414 65.7383C66.3984 65.5801 66.8438 65.3926 67.2832 65.1875C69 66.4883 71.6191 66.3242 73.166 64.7715C74.748 63.1953 74.9062 60.7168 73.6406 58.9648C73.8809 58.5195 74.1035 58.0391 74.291 57.4297C76.4004 57.0547 78 55.209 78 53ZM49.0605 42.5H6V39.5H57.2578C57.1699 39.7461 57.1055 39.998 57.0586 40.2617C56.543 40.4434 56.0332 40.6543 55.541 40.9004C53.7949 39.7109 51.3867 39.8926 49.834 41.4395C49.5117 41.7559 49.2656 42.1191 49.0605 42.5ZM57 21.5V24.5H6V21.5H57ZM9 5C9 4.17383 9.67383 3.5 10.5 3.5H52.5C53.3262 3.5 54 4.17383 54 5V6.5H9V5ZM3 11C3 10.1738 3.67383 9.5 4.5 9.5H58.5C59.3262 9.5 60 10.1738 60 11V17C60 17.8262 59.3262 18.5 58.5 18.5H4.5C3.67383 18.5 3 17.8262 3 17V11ZM3 29C3 28.1738 3.67383 27.5 4.5 27.5H58.5C59.3262 27.5 60 28.1738 60 29V35C60 35.8262 59.3262 36.5 58.5 36.5H4.5C3.67383 36.5 3 35.8262 3 35V29ZM3 53V47C3 46.1738 3.67383 45.5 4.5 45.5H48.6152C48.7324 46.0801 48.9492 46.6484 49.2949 47.1582C49.0781 47.5625 48.873 48.1016 48.6973 48.6699C46.6875 49.0449 45.1465 50 45.0234 53L45 53.0293L45.0059 53.0586C45.0059 53.0762 45 53.0586 45 53.0703C45 53.1289 45.0176 53.0293 45.0176 53.082L45.0234 53C45.0469 53 45.123 54.1133 45.2637 54.5H4.5C3.67383 54.5 3 53.8262 3 53ZM9 59V57.5H48.7324C48.9199 58.0684 49.1309 58.5371 49.3594 58.9648C49.0254 59.4336 48.791 59.9609 48.6562 60.5H10.5C9.67383 60.5 9 59.8262 9 59ZM73.5 54.5H71.8652L71.6309 55.7188C71.4082 56.873 71.1035 57.377 70.5996 58.2207L69.9023 59.3867L71.0449 60.5293C71.6309 61.1152 71.6309 62.0703 71.0449 62.6504C70.4824 63.2188 69.4922 63.2188 68.9238 62.6562L67.7637 61.4902L66.7676 62.0762C65.9473 62.5508 65.0625 62.9141 64.125 63.1543L63 63.4473V65C63 65.8262 62.3262 66.5 61.5 66.5C60.6738 66.5 60 65.8262 60 65V63.4473L58.875 63.1543C57.9375 62.9141 57.0527 62.5508 56.2324 62.0703L55.2363 61.4902L54.0762 62.6504C53.4902 63.2363 52.541 63.2363 51.9551 62.6504C51.3691 62.0645 51.3691 61.1152 51.9551 60.5293L53.0977 59.3867L52.4004 58.2148C51.8965 57.377 51.5918 56.8672 51.3691 55.7129L51.1289 54.5H49.5C48.6621 54.5 48.0059 53.8555 48 53.0469C48.0059 52.209 48.6914 51.5 49.5 51.5H51.1406L51.3691 50.2754C51.5684 49.1914 51.8262 48.752 52.2598 48.0254L53.0098 46.7363L51.9551 45.6816C51.3691 45.0957 51.3691 44.1465 51.9551 43.5605C52.5352 42.9746 53.4902 42.9746 54.0762 43.5605L55.1133 44.6035L56.1211 44C56.9766 43.4844 57.9023 43.0977 58.875 42.8457L60 42.5527V41C60 40.1738 60.6738 39.5 61.5 39.5C62.3262 39.5 63 40.1738 63 41V42.5527L64.125 42.8457C65.0566 43.0859 65.9473 43.4492 66.7676 43.9238L67.7637 44.5098L68.8184 43.4551C69.3867 42.8867 70.3711 42.8867 70.9395 43.4551C71.5254 44.041 71.5254 44.9902 70.9395 45.5762L69.9023 46.6191L70.5938 47.7734C71.1035 48.6172 71.4082 49.127 71.6367 50.2812L71.8711 51.5H73.5C74.3262 51.5 75 52.1738 75 53C75 53.8262 74.3262 54.5 73.5 54.5Z" fill="url(#paint0_linear)"/>
<defs>
<linearGradient id="paint0_linear" x1="39" y1="-0.749502" x2="39" y2="70.2575" gradientUnits="userSpaceOnUse">
<stop stop-color="#00C6FF"/>
<stop offset="1" stop-color="#0072FF"/>
</linearGradient>
</defs>
</svg>
