<svg width="120" height="60" viewBox="0 0 120 60" fill="none" xmlns="http://www.w3.org/2000/svg">
<path d="M26.7958 50.1535L10.2226 42.225L6.0836 24.3122L17.4933 9.90299L35.8612 9.84631L47.3543 24.1868L43.3217 42.1254L26.7958 50.1535Z" fill="white"/>
<path d="M26.7958 50.6081C26.7279 50.6081 26.6609 50.5928 26.5997 50.5635L10.0265 42.6349C9.96492 42.6055 9.91078 42.5626 9.86808 42.5093C9.82538 42.4561 9.79524 42.3939 9.77988 42.3274L5.64089 24.4146C5.62556 24.3481 5.62538 24.279 5.64036 24.2125C5.65534 24.146 5.68509 24.0836 5.72742 24.0302L17.1371 9.62095C17.1795 9.56742 17.2334 9.52415 17.2948 9.49432C17.3562 9.46449 17.4236 9.44888 17.4919 9.44866L35.8598 9.39197H35.8612C35.9293 9.39195 35.9965 9.40724 36.0579 9.4367C36.1192 9.46615 36.1732 9.50903 36.2158 9.56215L47.7088 23.9027C47.7514 23.9559 47.7815 24.018 47.7969 24.0845C47.8123 24.1509 47.8125 24.22 47.7975 24.2865L43.765 42.2251C43.7501 42.2917 43.7203 42.3541 43.6779 42.4076C43.6356 42.4611 43.5817 42.5044 43.5203 42.5342L26.9944 50.5624C26.9325 50.5924 26.8646 50.608 26.7958 50.6081ZM10.6161 41.9096L26.7943 49.6491L42.9263 41.8124L46.863 24.3005L35.6436 10.3014L17.7136 10.3568L6.57554 24.423L10.6161 41.9096Z" fill="#3C6EB4"/>
<path d="M22.8944 41.2979L22.3229 40.5914L26.4147 37.2819L26.9863 37.9884L22.8944 41.2979ZM33.6002 39.9653L32.6918 39.9351L32.867 34.6764L33.7754 34.7066L33.6002 39.9653ZM20.6583 35.1714L15.476 34.244L15.6362 33.3494L20.8185 34.2768L20.6583 35.1714ZM39.0944 31.0925L35.0705 27.704L35.6558 27.0088L39.6797 30.3971L39.0944 31.0925ZM17.8008 27.6097L15.326 22.9675L16.1279 22.5399L18.6027 27.1821L17.8008 27.6097ZM30.8737 21.6116L30.68 20.7236L35.8202 19.6022L36.0139 20.4901L30.8737 21.6116ZM23.3326 21.2923L22.5031 20.9211L24.6515 16.1191L25.4811 16.4903L23.3326 21.2923Z" fill="#3C6EB4"/>
<path d="M19.5774 13.5363L18.7668 13.9484L22.0617 20.4334L17.9029 19.5455L17.714 20.4343L22.5915 21.4733L24.0462 24.3354L24.3553 23.9447L24.8654 23.9422L19.5774 13.5363ZM34.0742 13.5792L30.8111 20.0797L29.0568 16.2069L28.2281 16.5821L30.2865 21.1247L28.8764 23.9327H29.0619L29.5711 24.5707L34.8849 13.9862L34.0742 13.5792ZM37.4438 22.539L35.0995 26.9399L31.9601 27.5453L32.0073 27.6037L31.8029 28.5002L43.5587 26.2332L43.387 25.3401L36.2425 26.7184L38.2433 22.9658L37.4438 22.539ZM10.1831 25.3401L10.0114 26.2332L17.1919 27.6183L13.8927 30.3971L14.4784 31.0927L18.34 27.8424L21.6255 28.4762L21.4297 27.6389L21.5155 27.5307L10.1831 25.3401ZM31 32.0785L30.9743 32.1927L30.186 32.5739L39.2712 40.4398L39.8663 39.7502L34.3679 34.9895L38.5533 34.2424L38.3944 33.3468L33.4843 34.2261L31 32.0785ZM22.479 32.1575L13.7073 39.7511L14.3023 40.4381L19.8325 35.6516L19.9784 39.9623L20.8861 39.9331L20.7169 34.8882L23.336 32.6212L22.4945 32.2201L22.479 32.1575ZM26.2453 34.0123V45.896H27.1521V38.6227L30.4582 41.2968L31.0292 40.5909L27.153 37.454V34.0449L26.7374 34.2467L26.2453 34.0123Z" fill="#294172"/>
<path d="M26.7391 34.7038C26.6713 34.7038 26.6044 34.6886 26.5432 34.6594L22.2968 32.6301C22.2353 32.6007 22.1812 32.5578 22.1385 32.5046C22.0957 32.4514 22.0655 32.3893 22.0501 32.3228L20.9871 27.7373C20.9717 27.6707 20.9714 27.6015 20.9865 27.5348C21.0015 27.4681 21.0313 27.4057 21.0738 27.3521L24.0012 23.6648C24.0436 23.6114 24.0975 23.5682 24.1588 23.5384C24.2202 23.5087 24.2874 23.4931 24.3556 23.4929L29.0614 23.4784H29.0628C29.1308 23.4784 29.198 23.4937 29.2594 23.5231C29.3207 23.5526 29.3747 23.5954 29.4172 23.6485L32.3625 27.3194C32.4053 27.3727 32.4354 27.4348 32.4508 27.5014C32.4662 27.5679 32.4664 27.637 32.4514 27.7036L31.4167 32.2951C31.4017 32.3617 31.3719 32.4241 31.3295 32.4776C31.2871 32.5311 31.2331 32.5743 31.1717 32.6042L26.9374 34.6583C26.8756 34.6883 26.8078 34.7038 26.7391 34.7038L26.7391 34.7038ZM22.886 31.9044L26.7377 33.745L30.5782 31.882L31.5167 27.7173L28.8454 24.3879L24.577 24.4011L21.9218 27.7455L22.886 31.9044Z" fill="#294172"/>
<path d="M62.2947 38.3735C60.3673 38.4048 58.5055 37.6736 57.1146 36.3389C55.6678 34.9653 54.9444 33.1753 54.9444 30.9691C54.9444 28.7633 55.6947 26.9733 57.1954 25.5992C58.7143 24.2058 60.5588 23.5091 62.729 23.5091C64.8982 23.5091 66.7331 24.2594 68.2338 25.7601L66.4446 27.9569C65.1964 26.8714 63.9396 26.3286 62.6742 26.3286C61.4484 26.3131 60.2637 26.7698 59.3655 27.6041C58.443 28.4372 57.9818 29.5223 57.9818 30.8594C57.9703 31.4848 58.0872 32.106 58.3252 32.6845C58.5632 33.263 58.9173 33.7866 59.3655 34.2229C59.8062 34.673 60.3344 35.028 60.9177 35.266C61.5009 35.504 62.1267 35.6199 62.7564 35.6066C64.1118 35.6066 65.3864 34.9917 66.5802 33.7619L68.3694 35.7149C66.6158 37.4868 64.5909 38.3728 62.2947 38.3728L62.2947 38.3735ZM79.0868 26.5753C77.5862 26.5753 76.4559 27.0635 75.6959 28.0399C74.9374 29.0163 74.5582 30.327 74.5582 31.9719V38.1563H71.5208V23.727H74.5582V26.6302C75.032 25.742 75.7107 24.9795 76.5379 24.4059C77.3241 23.8483 78.2582 23.5369 79.2217 23.5113L79.2506 26.5753H79.0868V26.5753ZM85.3109 38.1563H82.2735V23.727H85.3109V38.1563ZM82.4633 20.8534C82.1564 20.5402 81.9674 20.1304 81.9283 19.6937C81.8893 19.257 82.0025 18.8202 82.2489 18.4574C82.4953 18.0947 82.8596 17.8285 83.2801 17.7039C83.7005 17.5793 84.151 17.604 84.5553 17.7739C84.9595 17.9438 85.2925 18.2483 85.4977 18.6358C85.7029 19.0233 85.7677 19.4698 85.6811 19.8997C85.5944 20.3295 85.3617 20.7161 85.0224 20.9938C84.6831 21.2716 84.2581 21.4233 83.8197 21.4233C83.5666 21.426 83.3157 21.3768 83.0825 21.2788C82.8492 21.1808 82.6385 21.036 82.4633 20.8534Z" fill="#294172"/>
<path d="M88.1102 31.485V28.6373H97.1141V31.485H88.1102Z" fill="#3C6EB4"/>
<path d="M103.496 34.3585C104.364 35.2271 105.458 35.6614 106.777 35.6614C108.098 35.6614 109.182 35.2274 110.031 34.3592C110.9 33.4742 111.334 32.336 111.334 30.9445C111.334 29.5521 110.9 28.4218 110.032 27.5536C109.183 26.6686 108.098 26.2261 106.778 26.2261C105.458 26.2261 104.364 26.6686 103.495 27.5536C102.646 28.4218 102.221 29.5521 102.221 30.9445C102.221 32.3365 102.646 33.4754 103.494 34.3614L103.496 34.3585ZM112.202 36.2307C110.755 37.6592 108.947 38.3734 106.777 38.3734C104.607 38.3734 102.8 37.6592 101.353 36.2307C100.65 35.5441 100.094 34.7207 99.7211 33.8112C99.348 32.9016 99.1652 31.9253 99.184 30.9423C99.184 28.8631 99.9064 27.1092 101.351 25.6807C102.798 24.2344 104.606 23.5112 106.775 23.5112C108.944 23.5112 110.753 24.2344 112.201 25.6807C113.647 27.1092 114.369 28.8631 114.369 30.9423C114.388 31.9253 114.205 32.9017 113.832 33.8113C113.459 34.7208 112.903 35.5442 112.199 36.2307H112.202Z" fill="#294172"/>
</svg>
