<svg width="120" height="60" viewBox="0 0 120 60" fill="none" xmlns="http://www.w3.org/2000/svg">
<path d="M41.3472 37.4371H45.1857V52.4313H41.3472V37.4371ZM75.6539 41.7554C75.5339 41.6355 74.3344 40.9157 72.4151 40.9157C70.0161 40.9157 68.2168 42.5951 68.2168 44.8742C68.2168 47.1533 69.8961 48.8327 72.4151 48.8327C74.2144 48.8327 75.414 48.1129 75.6539 47.993V52.0714C75.1741 52.1914 73.8546 52.5512 72.1752 52.5512C67.8569 52.5512 64.1384 49.6723 64.1384 44.7542C64.1384 40.316 67.4971 36.9573 72.1752 36.9573C73.9745 36.9573 75.294 37.4371 75.6539 37.4371V41.7554ZM36.0693 41.7554C35.9493 41.6355 34.7498 40.9157 32.8305 40.9157C30.4315 40.9157 28.6322 42.5951 28.6322 44.8742C28.6322 47.1533 30.3115 48.8327 32.8305 48.8327C34.6298 48.8327 35.8294 48.1129 36.0693 47.993V52.0714C35.5895 52.1914 34.27 52.5512 32.5906 52.5512C28.3923 52.5512 24.5537 49.6723 24.5537 44.7542C24.5537 40.316 27.9124 36.9573 32.5906 36.9573C34.3899 36.9573 35.7094 37.4371 36.0693 37.4371V41.7554ZM95.4462 44.9942C95.4462 49.3125 92.0875 52.7911 87.5293 52.7911C82.971 52.7911 79.6123 49.3125 79.6123 44.9942C79.6123 40.6758 82.971 37.1972 87.5293 37.1972C92.2075 37.1972 95.4462 40.6758 95.4462 44.9942ZM87.5293 41.0357C85.2502 41.0357 83.5708 42.835 83.5708 44.9942C83.5708 47.1533 85.2502 48.9526 87.5293 48.9526C89.8084 48.9526 91.4877 47.1533 91.4877 44.9942C91.4877 42.835 89.8084 41.0357 87.5293 41.0357ZM59.4602 40.9157C59.4602 40.9157 57.7808 40.4359 56.4613 40.4359C54.902 40.4359 54.0623 40.9157 54.0623 41.6355C54.0623 42.5951 55.1419 42.835 55.7416 43.0749L56.8212 43.4348C59.2203 44.2744 60.4198 45.9538 60.4198 47.7531C60.4198 51.4716 57.0611 52.7911 54.1822 52.7911C52.143 52.7911 50.2238 52.4313 50.1038 52.4313V48.9526C50.4637 49.0726 52.0231 49.5524 53.7024 49.5524C55.6217 49.5524 56.4613 48.9526 56.4613 48.1129C56.4613 47.3932 55.7416 46.9134 54.782 46.6735C54.5421 46.5536 54.1822 46.4336 53.9423 46.4336C51.7832 45.7139 50.1038 44.5143 50.1038 41.9953C50.1038 39.2364 52.263 37.3171 55.7416 37.3171C57.5409 37.3171 59.3402 37.797 59.4602 37.797V40.9157Z" fill="#0096D6"/>
<path d="M20.5953 21.3634C20.5985 21.1104 20.5511 20.8594 20.4558 20.6251C20.3604 20.3908 20.2192 20.1779 20.0403 19.9991C19.8615 19.8202 19.6486 19.679 19.4143 19.5837C19.18 19.4883 18.929 19.4409 18.676 19.4441C18.4231 19.4409 18.1721 19.4883 17.9378 19.5837C17.7035 19.679 17.4906 19.8202 17.3117 19.9991C17.1329 20.1779 16.9916 20.3908 16.8963 20.6251C16.801 20.8594 16.7536 21.1104 16.7568 21.3634V25.3218C16.7536 25.5748 16.801 25.8258 16.8963 26.0601C16.9916 26.2944 17.1329 26.5073 17.3117 26.6861C17.4906 26.865 17.7035 27.0063 17.9378 27.1016C18.1721 27.1969 18.4231 27.2443 18.676 27.2411C18.929 27.2443 19.18 27.1969 19.4143 27.1016C19.6486 27.0063 19.8615 26.865 20.0403 26.6861C20.2192 26.5073 20.3604 26.2944 20.4558 26.0601C20.5511 25.8258 20.5985 25.5748 20.5953 25.3218V21.3634Z" fill="#0096D6"/>
<path d="M30.9113 16.2054C30.9145 15.9525 30.8671 15.7014 30.7717 15.4671C30.6764 15.2328 30.5352 15.02 30.3563 14.8411C30.1775 14.6622 29.9646 14.521 29.7303 14.4257C29.496 14.3304 29.245 14.2829 28.992 14.2861C27.9124 14.2861 27.1927 15.1258 27.1927 16.2054V25.3219C27.1895 25.5748 27.2369 25.8258 27.3322 26.0601C27.4276 26.2944 27.5688 26.5073 27.7477 26.6862C27.9265 26.865 28.1394 27.0063 28.3737 27.1016C28.608 27.1969 28.859 27.2443 29.112 27.2411C29.3649 27.2443 29.6159 27.1969 29.8502 27.1016C30.0845 27.0063 30.2974 26.865 30.4763 26.6862C30.6551 26.5073 30.7964 26.2944 30.8917 26.0601C30.987 25.8258 31.0345 25.5748 31.0312 25.3219V16.2054H30.9113ZM41.3472 9.12815C41.3504 8.87522 41.303 8.6242 41.2077 8.38989C41.1124 8.15558 40.9711 7.94272 40.7923 7.76385C40.6134 7.58499 40.4005 7.44373 40.1662 7.34842C39.9319 7.25311 39.6809 7.20567 39.428 7.20889C39.175 7.20567 38.924 7.25311 38.6897 7.34842C38.4554 7.44373 38.2425 7.58499 38.0637 7.76385C37.8848 7.94272 37.7436 8.15558 37.6482 8.38989C37.5529 8.6242 37.5055 8.87522 37.5087 9.12815V29.0404C37.5055 29.2933 37.5529 29.5444 37.6482 29.7787C37.7436 30.013 37.8848 30.2258 38.0637 30.4047C38.2425 30.5836 38.4554 30.7248 38.6897 30.8201C38.924 30.9154 39.175 30.9629 39.428 30.9597C39.6809 30.9629 39.9319 30.9154 40.1662 30.8201C40.4005 30.7248 40.6134 30.5836 40.7923 30.4047C40.9711 30.2258 41.1124 30.013 41.2077 29.7787C41.303 29.5444 41.3504 29.2933 41.3472 29.0404V9.12815ZM51.6632 16.2054C51.6664 15.9525 51.619 15.7014 51.5237 15.4671C51.4284 15.2328 51.2871 15.02 51.1083 14.8411C50.9294 14.6622 50.7165 14.521 50.4822 14.4257C50.2479 14.3304 49.9969 14.2829 49.744 14.2861C49.491 14.2829 49.24 14.3304 49.0057 14.4257C48.7714 14.521 48.5585 14.6622 48.3797 14.8411C48.2008 15.02 48.0595 15.2328 47.9642 15.4671C47.8689 15.7014 47.8215 15.9525 47.8247 16.2054V25.3219C47.8215 25.5748 47.8689 25.8258 47.9642 26.0601C48.0595 26.2944 48.2008 26.5073 48.3797 26.6862C48.5585 26.865 48.7714 27.0063 49.0057 27.1016C49.24 27.1969 49.491 27.2443 49.744 27.2411C49.9969 27.2443 50.2479 27.1969 50.4822 27.1016C50.7165 27.0063 50.9294 26.865 51.1083 26.6862C51.2871 26.5073 51.4284 26.2944 51.5237 26.0601C51.619 25.8258 51.6664 25.5748 51.6632 25.3219V16.2054Z" fill="#0096D6"/>
<path d="M61.9792 21.3634C61.9824 21.1104 61.935 20.8594 61.8397 20.6251C61.7444 20.3908 61.6031 20.1779 61.4242 19.9991C61.2454 19.8202 61.0325 19.679 60.7982 19.5837C60.5639 19.4883 60.3129 19.4409 60.0599 19.4441C59.807 19.4409 59.556 19.4883 59.3217 19.5837C59.0874 19.679 58.8745 19.8202 58.6956 19.9991C58.5168 20.1779 58.3755 20.3908 58.2802 20.6251C58.1849 20.8594 58.1375 21.1104 58.1407 21.3634V25.3218C58.1375 25.5748 58.1849 25.8258 58.2802 26.0601C58.3755 26.2944 58.5168 26.5073 58.6956 26.6861C58.8745 26.865 59.0874 27.0063 59.3217 27.1016C59.556 27.1969 59.807 27.2443 60.0599 27.2411C60.3129 27.2443 60.5639 27.1969 60.7982 27.1016C61.0325 27.0063 61.2454 26.865 61.4242 26.6861C61.6031 26.5073 61.7444 26.2944 61.8397 26.0601C61.935 25.8258 61.9824 25.5748 61.9792 25.3218V21.3634Z" fill="#0096D6"/>
<path d="M72.2952 16.2054C72.2952 15.6964 72.093 15.2082 71.7331 14.8482C71.3731 14.4883 70.885 14.2861 70.3759 14.2861C69.8669 14.2861 69.3788 14.4883 69.0188 14.8482C68.6589 15.2082 68.4567 15.6964 68.4567 16.2054V25.3218C68.4567 25.8308 68.6589 26.319 69.0188 26.6789C69.3788 27.0389 69.8669 27.2411 70.3759 27.2411C70.885 27.2411 71.3731 27.0389 71.7331 26.6789C72.093 26.319 72.2952 25.8308 72.2952 25.3218V16.2054ZM82.6112 9.12812C82.6112 8.6191 82.409 8.13093 82.0491 7.771C81.6891 7.41107 81.201 7.20886 80.6919 7.20886C80.1829 7.20886 79.6948 7.41107 79.3348 7.771C78.9749 8.13093 78.7727 8.6191 78.7727 9.12812V29.0404C78.7727 29.5494 78.9749 30.0376 79.3348 30.3975C79.6948 30.7574 80.1829 30.9596 80.6919 30.9596C81.201 30.9596 81.6891 30.7574 82.0491 30.3975C82.409 30.0376 82.6112 29.5494 82.6112 29.0404V9.12812ZM92.9272 16.2054C92.9272 15.9533 92.8775 15.7038 92.7811 15.4709C92.6846 15.238 92.5433 15.0265 92.3651 14.8482C92.1868 14.67 91.9753 14.5287 91.7424 14.4322C91.5095 14.3358 91.26 14.2861 91.0079 14.2861C90.7559 14.2861 90.5063 14.3358 90.2735 14.4322C90.0406 14.5287 89.829 14.67 89.6508 14.8482C89.4726 15.0265 89.3312 15.238 89.2348 15.4709C89.1383 15.7038 89.0887 15.9533 89.0887 16.2054V25.3218C89.0887 25.5739 89.1383 25.8234 89.2348 26.0563C89.3312 26.2891 89.4726 26.5007 89.6508 26.6789C89.829 26.8572 90.0406 26.9985 90.2735 27.095C90.5063 27.1914 90.7559 27.2411 91.0079 27.2411C91.26 27.2411 91.5095 27.1914 91.7424 27.095C91.9753 26.9985 92.1868 26.8572 92.3651 26.6789C92.5433 26.5007 92.6846 26.2891 92.7811 26.0563C92.8775 25.8234 92.9272 25.5739 92.9272 25.3218V16.2054ZM103.243 21.3634C103.243 20.8543 103.041 20.3662 102.681 20.0062C102.321 19.6463 101.833 19.4441 101.324 19.4441C100.815 19.4441 100.327 19.6463 99.9668 20.0062C99.6069 20.3662 99.4047 20.8543 99.4047 21.3634V25.3218C99.4047 25.8308 99.6069 26.319 99.9668 26.6789C100.327 27.0389 100.815 27.2411 101.324 27.2411C101.833 27.2411 102.321 27.0389 102.681 26.6789C103.041 26.319 103.243 25.8308 103.243 25.3218V21.3634Z" fill="#0096D6"/>
</svg>
