<svg width="120" height="60" viewBox="0 0 120 60" fill="none" xmlns="http://www.w3.org/2000/svg">
<path d="M25.93 52.0517L13.899 46.0413H45.968L25.93 52.0517ZM25.93 19.9827L13.899 44.0345L25.93 42.0276V19.9827ZM27.9266 3.94824V42.0276L45.968 44.0345L27.9266 3.94824Z" fill="#466BB0"/>
<path d="M58.497 20.33V39.347H54.297V20.33H58.497ZM64.943 35.9C65.117 36.198 65.34 36.42 65.588 36.62C65.861 36.818 66.158 36.942 66.505 37.04C66.852 37.138 67.199 37.164 67.571 37.164C67.8551 37.1663 68.1383 37.1327 68.414 37.064C68.712 36.989 68.984 36.914 69.207 36.766C69.4427 36.6403 69.6463 36.462 69.802 36.245C69.952 36.022 70.05 35.749 70.05 35.402C70.05 34.832 69.678 34.41 68.91 34.102C68.166 33.829 67.11 33.532 65.76 33.259L64.148 32.813C63.628 32.639 63.156 32.416 62.76 32.143C62.3578 31.8724 62.0193 31.5175 61.768 31.103C61.52 30.683 61.396 30.186 61.396 29.566C61.396 28.673 61.57 27.954 61.916 27.384C62.262 26.814 62.709 26.367 63.28 26.044C63.851 25.721 64.495 25.474 65.18 25.35C65.9003 25.2215 66.6303 25.1552 67.362 25.152C68.0869 25.1498 68.8099 25.2246 69.519 25.375C70.213 25.525 70.833 25.747 71.403 26.095C71.948 26.442 72.42 26.888 72.767 27.435C73.139 28.005 73.337 28.699 73.412 29.542H69.817C69.767 28.822 69.495 28.327 68.999 28.054C68.4512 27.7866 67.8485 27.6506 67.239 27.657C67.016 27.657 66.793 27.682 66.545 27.707C66.297 27.732 66.075 27.781 65.875 27.881C65.675 27.981 65.503 28.104 65.355 28.278C65.207 28.452 65.132 28.675 65.132 28.948C65.132 29.295 65.256 29.568 65.504 29.766C65.752 29.989 66.074 30.163 66.471 30.286C66.9194 30.4251 67.3746 30.5409 67.835 30.633L69.397 30.98L71.009 31.426C71.5018 31.5913 71.969 31.8249 72.397 32.12C72.794 32.418 73.141 32.765 73.389 33.22C73.637 33.675 73.761 34.187 73.761 34.832C73.761 35.749 73.587 36.492 73.216 37.112C72.8653 37.7097 72.3818 38.2188 71.803 38.6C71.208 38.972 70.539 39.245 69.795 39.393C69.0356 39.5432 68.2631 39.6179 67.489 39.616C66.7051 39.622 65.9231 39.5388 65.158 39.368C64.388 39.218 63.72 38.948 63.125 38.575C62.5256 38.2028 62.0239 37.6926 61.662 37.087C61.29 36.467 61.067 35.699 61.042 34.781H64.637C64.687 35.251 64.761 35.599 64.935 35.897L64.943 35.9ZM83.613 25.562V28.092H80.86V34.9C80.86 35.545 80.96 35.966 81.182 36.2C81.404 36.434 81.827 36.522 82.482 36.522L83.102 36.497L83.672 36.423V39.349C83.35 39.399 83.002 39.449 82.606 39.449L81.466 39.474C80.9104 39.4723 80.3557 39.4309 79.806 39.35C79.286 39.276 78.814 39.127 78.418 38.88C78.021 38.657 77.698 38.31 77.476 37.888C77.254 37.466 77.129 36.896 77.129 36.202V28.1H74.849V25.57H77.129V21.454H80.873V25.57L83.613 25.562ZM85.513 23.43V20.33H89.283V23.454H85.513V23.43ZM89.306 25.562V39.322H85.536V25.562H89.306ZM92.366 29.455C92.713 28.562 93.184 27.795 93.804 27.175C94.424 26.555 95.168 26.059 96.034 25.712C96.9 25.365 97.869 25.192 98.96 25.192C100.051 25.192 101.018 25.366 101.91 25.712C102.778 26.059 103.546 26.555 104.166 27.175C104.786 27.795 105.266 28.563 105.604 29.455C105.942 30.347 106.1 31.339 106.1 32.455C106.1 33.555 105.926 34.538 105.604 35.43C105.257 36.323 104.786 37.066 104.166 37.71C103.525 38.3505 102.756 38.8489 101.91 39.173C101.042 39.52 100.05 39.669 98.96 39.669C97.87 39.669 96.902 39.495 96.034 39.173C95.166 38.826 94.422 38.355 93.804 37.71C93.184 37.09 92.704 36.322 92.366 35.43C92.028 34.538 91.87 33.546 91.87 32.455C91.87 31.364 92.044 30.348 92.366 29.455ZM95.812 34.067C95.912 34.587 96.11 35.059 96.357 35.48C96.6044 35.8931 96.9548 36.235 97.374 36.472C97.796 36.72 98.341 36.844 98.961 36.844C99.581 36.844 100.126 36.72 100.573 36.472C101 36.2367 101.358 35.8949 101.613 35.48C101.875 35.044 102.059 34.5659 102.158 34.067C102.258 33.5355 102.308 32.9958 102.307 32.455C102.308 31.9142 102.258 31.3745 102.158 30.843C102.058 30.323 101.86 29.851 101.613 29.43C101.356 29.0164 100.998 28.6751 100.573 28.438C100.128 28.19 99.606 28.041 98.961 28.041C98.316 28.041 97.796 28.165 97.374 28.438C96.9605 28.6824 96.6117 29.0226 96.357 29.43C96.11 29.827 95.911 30.298 95.812 30.843C95.7132 31.3746 95.6634 31.9142 95.663 32.455C95.638 33 95.713 33.555 95.813 34.067H95.812Z" fill="black"/>
</svg>
