<svg width="120" height="60" viewBox="0 0 120 60" fill="none" xmlns="http://www.w3.org/2000/svg">
<path d="M6.32601 41.297C6.62888 40.7851 7.08229 40.3792 7.62438 40.1346C8.16646 39.8899 8.77082 39.8185 9.35501 39.93C12.115 40.23 14.902 40.214 17.659 39.88C18.565 39.76 19.482 39.754 20.389 39.86L24.633 40.21C25.07 40.24 25.505 40.302 25.933 40.393C26.1196 40.4199 26.2935 40.5035 26.431 40.6324C26.5686 40.7614 26.6632 40.9295 26.702 41.114C26.7462 41.3161 26.7194 41.5273 26.6262 41.712C26.5329 41.8966 26.3789 42.0436 26.19 42.128C25.815 42.343 25.393 42.465 24.96 42.481L20.4 42.265C19.084 42.225 17.767 42.264 16.455 42.377C14.64 42.557 12.811 42.569 10.995 42.411C9.98801 42.323 8.96801 42.379 7.95501 42.361C7.33501 42.446 6.71501 42.195 6.32501 41.701L6.32601 41.297ZM26.662 23.283L26.812 26.735C26.837 27.479 26.813 28.235 26.742 28.965C26.522 30.51 26.522 32.078 26.742 33.623C26.837 34.293 26.816 34.973 26.682 35.636C26.6666 35.8683 26.6045 36.0952 26.4993 36.303C26.3941 36.5107 26.248 36.6951 26.0699 36.8451C25.8917 36.9951 25.6851 37.1075 25.4624 37.1757C25.2397 37.2439 25.0056 37.2664 24.774 37.242C23.66 37.182 22.554 37.02 21.47 36.76C20.6802 36.5163 20.0067 35.9925 19.576 35.287C19.1297 34.6488 18.7191 33.9865 18.346 33.303C17.704 32.107 16.913 30.997 15.993 29.999C15.453 29.349 14.966 28.659 14.531 27.937C14.4365 27.7572 14.3292 27.5844 14.21 27.42C14.1324 27.3177 14.0279 27.2391 13.908 27.1929C13.7882 27.1468 13.6579 27.1351 13.5318 27.159C13.4056 27.1829 13.2887 27.2415 13.194 27.3282C13.0994 27.415 13.0308 27.5264 12.996 27.65C12.909 27.91 12.866 28.18 12.869 28.453L12.769 33.123C12.7579 33.3936 12.6986 33.6601 12.594 33.91C12.4343 34.2082 12.3468 34.5397 12.3386 34.8779C12.3305 35.2161 12.4018 35.5514 12.547 35.857C12.6027 35.9659 12.6321 36.0863 12.6326 36.2087C12.6332 36.331 12.605 36.4517 12.5503 36.5611C12.4956 36.6705 12.4159 36.7655 12.3177 36.8385C12.2195 36.9114 12.1056 36.9602 11.985 36.981C11.4137 37.2001 10.8047 37.3041 10.193 37.287C9.58136 37.2698 8.97913 37.1318 8.42101 36.881C7.80701 36.631 7.41101 36.031 7.42101 35.368L7.30101 32.014C7.22801 31.318 7.49301 30.628 8.01401 30.16C8.23801 29.953 8.42901 29.713 8.58101 29.448C8.92601 28.948 8.90401 28.298 8.52801 27.832C7.51152 26.4931 7.0674 24.8058 7.29301 23.14L7.36801 19.794L7.37601 18.981C7.34586 18.8103 7.36013 18.6348 7.41744 18.4713C7.47475 18.3077 7.57317 18.1617 7.70324 18.0472C7.83332 17.9327 7.99066 17.8536 8.16015 17.8174C8.32964 17.7813 8.50556 17.7894 8.67101 17.841C9.51888 17.8379 10.3591 17.681 11.151 17.378C11.3448 17.2888 11.5553 17.242 11.7685 17.2407C11.9818 17.2393 12.1929 17.2834 12.3878 17.3701C12.5826 17.4568 12.7567 17.5841 12.8985 17.7434C13.0403 17.9027 13.1465 18.0904 13.21 18.294C13.338 18.57 13.436 18.859 13.55 19.142C13.6302 19.3848 13.764 19.6063 13.9417 19.7902C14.1193 19.9741 14.3361 20.1155 14.576 20.204C15.0847 20.405 15.5107 20.7718 15.785 21.245L18.973 25.839C19.2992 26.3147 19.6761 26.7536 20.097 27.148C20.552 27.561 20.929 27.432 21.003 26.806C21.145 25.836 21.19 24.853 21.138 23.873C21.0492 22.353 21.0662 20.8286 21.189 19.311C21.091 18.791 21.269 18.259 21.659 17.903C22.049 17.547 22.597 17.419 23.104 17.565L24.228 17.629C24.7605 17.5987 25.2854 17.7657 25.7027 18.0979C26.1199 18.4301 26.4002 18.9043 26.49 19.43C26.6058 19.8547 26.6735 20.2911 26.692 20.731L26.702 23.274L26.662 23.283ZM50.946 28.776C50.872 27.696 50.97 26.612 51.236 25.564C51.4875 24.748 51.9794 24.027 52.6474 23.4953C53.3155 22.9636 54.1285 22.646 54.98 22.584C56.5673 22.2844 58.2086 22.6257 59.545 23.533C59.685 23.631 59.829 23.719 59.979 23.798C60.0796 23.8784 60.1958 23.9372 60.3202 23.9704C60.4447 24.0036 60.5746 24.0106 60.7019 23.9909C60.8292 23.9713 60.951 23.9254 61.0597 23.8562C61.1683 23.787 61.2614 23.696 61.333 23.589C61.9046 23.1468 62.5906 22.8772 63.3103 22.812C64.03 22.7468 64.7533 22.8887 65.395 23.221C66.255 23.841 66.571 24.975 66.158 25.951C65.5626 27.3996 65.4429 28.9999 65.816 30.521L66.136 33.653L66.403 37.085C66.438 38.245 66.056 39.379 65.327 40.281C64.664 41.136 63.833 41.846 62.887 42.369C62.387 42.741 61.727 42.821 61.152 42.581C59.9222 42.0663 58.541 42.0466 57.297 42.526C56.267 42.893 55.151 42.958 54.085 42.714C53.3824 42.5791 52.7231 42.2756 52.1636 41.8297C51.6041 41.3838 51.1612 40.8088 50.873 40.154C50.6912 39.9051 50.5992 39.6018 50.6123 39.2939C50.6254 38.9859 50.7427 38.6915 50.945 38.459C51.397 38.015 52.085 37.919 52.643 38.219L53.11 38.417L53.565 38.643C54.985 39.168 56.467 39.493 57.902 39.96C58.2348 40.043 58.5815 40.0541 58.9189 39.9925C59.2563 39.9308 59.5766 39.7979 59.8585 39.6025C60.1404 39.4071 60.3773 39.1538 60.5535 38.8595C60.7297 38.5652 60.841 38.2367 60.88 37.896C60.9894 37.2662 61.0089 36.6242 60.938 35.989C60.9458 35.8671 60.9211 35.7454 60.8664 35.6363C60.8118 35.5271 60.7291 35.4344 60.627 35.3676C60.5248 35.3008 60.4067 35.2623 60.2848 35.2561C60.1629 35.2498 60.0415 35.276 59.933 35.332C59.419 35.495 58.926 35.716 58.463 35.992C57.613 36.507 56.61 36.692 55.63 36.542C54.215 36.334 53.032 35.36 52.556 34.012C52.29 33.2093 51.8664 32.4678 51.31 31.831C51.08 31.501 50.96 31.108 50.963 30.707C50.91 30.065 50.949 29.407 50.949 28.773L50.946 28.776ZM61.11 29.802C61.0156 29.1728 60.8786 28.5507 60.7 27.94C60.528 27.3861 60.1846 26.9011 59.7193 26.5548C59.2541 26.2086 58.691 26.0188 58.111 26.013C57.5387 26.0875 57.0024 26.3334 56.5724 26.7183C56.1425 27.1033 55.839 27.6094 55.702 28.17C55.6619 28.2629 55.6359 28.3613 55.625 28.462C55.613 29.302 55.649 30.14 55.731 30.976C55.811 31.922 56.498 32.704 57.426 32.903C58.426 33.193 59.506 32.895 60.218 32.135C60.7766 31.4835 61.0928 30.6589 61.113 29.801L61.11 29.802ZM30.94 33.344V32.531C30.872 31.737 31.178 30.956 31.768 30.431C32.358 29.906 33.165 29.666 33.948 29.811C34.1171 29.8228 34.2852 29.8466 34.451 29.882C34.7982 29.9681 35.1604 29.9745 35.5104 29.9007C35.8604 29.8269 36.1891 29.6749 36.472 29.456C37.2965 28.8515 38.2851 28.5115 39.307 28.481C39.777 28.451 40.244 28.381 40.697 28.243C41.132 28.138 41.507 27.863 41.739 27.48C41.971 27.097 42.039 26.637 41.929 26.203C41.916 25.909 41.782 25.633 41.559 25.443C41.336 25.253 41.044 25.16 40.752 25.191C39.0426 25.1 37.3645 25.6757 36.071 26.797C35.889 26.9936 35.6392 27.114 35.372 27.134C34.394 27.139 33.419 27.042 32.472 26.844C32.1943 26.8107 31.9347 26.6888 31.7318 26.4964C31.5289 26.3039 31.3935 26.0511 31.3456 25.7755C31.2978 25.5 31.3401 25.2163 31.4663 24.9667C31.5925 24.7171 31.7958 24.5149 32.046 24.39C32.7992 23.7544 33.674 23.279 34.6171 22.9929C35.5602 22.7068 36.5517 22.616 37.531 22.726C38.6048 22.8885 39.6983 22.8699 40.766 22.671C43.364 22.366 45.769 24.081 46.326 26.637C46.376 27.107 46.33 27.581 46.189 28.031C45.873 29.005 45.929 30.061 46.349 30.994C46.5129 31.4698 46.5378 31.9825 46.421 32.472C46.2604 33.2676 46.2665 34.0879 46.439 34.881C46.629 35.351 46.549 35.889 46.235 36.287C45.921 36.685 45.415 36.884 44.915 36.809C44.375 36.819 43.831 36.799 43.291 36.833C42.681 36.931 42.059 36.73 41.621 36.293C41.464 36.108 41.238 35.995 40.996 35.98C40.754 35.965 40.516 36.05 40.336 36.213C40.1633 36.3759 39.9601 36.503 39.738 36.587L34.855 37.437C34.1441 37.4563 33.4381 37.313 32.791 37.018C32.2178 36.8372 31.7228 36.4677 31.3865 35.9696C31.0501 35.4715 30.8924 34.8742 30.939 34.275L30.945 33.355L30.94 33.344ZM37.837 34.64C38.0059 34.6508 38.1754 34.6363 38.34 34.597L41.96 33.057C42.0821 32.9912 42.1854 32.8955 42.2604 32.7789C42.3355 32.6622 42.3797 32.5285 42.389 32.3902C42.3983 32.2518 42.3723 32.1134 42.3136 31.9878C42.2548 31.8622 42.1652 31.7535 42.053 31.672C41.476 30.842 40.433 30.477 39.463 30.762C39.099 30.832 38.728 30.862 38.358 30.846C37.9196 30.855 37.4826 30.8985 37.051 30.976C36.6178 31.0875 36.2455 31.3645 36.0141 31.7473C35.7826 32.1302 35.7104 32.5885 35.813 33.024C35.793 33.841 36.416 34.531 37.231 34.592C37.431 34.626 37.636 34.627 37.838 34.64H37.837ZM96.207 29.76C96.1363 31.224 95.7609 32.6572 95.105 33.968C94.648 34.768 93.989 35.431 93.195 35.895C92.691 36.255 92.045 36.358 91.455 36.17C91.1356 36.0492 90.7871 36.0281 90.4554 36.1093C90.1238 36.1905 89.8245 36.3703 89.597 36.625C89.3477 36.8762 89.0341 37.0541 88.6906 37.1391C88.347 37.2241 87.9867 37.213 87.649 37.107C86.752 36.935 85.839 36.852 84.926 36.86C84.246 36.856 83.589 36.616 83.068 36.18L80.932 34.635C80.472 34.331 80.192 33.823 80.174 33.273C80.1241 32.2232 79.8909 31.1903 79.485 30.221C79.071 28.939 79.321 27.536 80.152 26.475C80.282 26.278 80.482 26.135 80.709 26.072C81.1203 25.9599 81.5024 25.7599 81.8291 25.486C82.1557 25.212 82.419 24.8705 82.601 24.485C83.034 23.385 84.226 22.813 85.351 23.142C85.549 23.192 85.755 23.202 85.957 23.166C87.425 22.964 88.914 22.972 90.379 23.192C92.501 23.202 94.424 24.445 95.305 26.376C95.845 27.426 96.155 28.58 96.208 29.76H96.207ZM90.63 30.31C90.7373 29.2568 90.5128 28.1964 89.988 27.277C89.8007 26.9029 89.5249 26.5802 89.1846 26.3369C88.8442 26.0936 88.4496 25.9371 88.035 25.8809C87.6205 25.8247 87.1985 25.8706 86.8056 26.0146C86.4128 26.1585 86.0611 26.3962 85.781 26.707C84.399 28.477 84.227 30.907 85.346 32.852C85.7266 33.3096 86.2305 33.6484 86.7979 33.8281C87.3653 34.0078 87.9724 34.021 88.547 33.866C89.1018 33.6972 89.5921 33.3639 89.953 32.9101C90.314 32.4563 90.5284 31.9035 90.568 31.325L90.631 30.308L90.63 30.31ZM106.127 22.396L109.547 22.794C110.234 22.9689 110.888 23.2543 111.484 23.639C111.822 23.863 112.094 24.1734 112.271 24.538C112.478 24.82 112.516 25.191 112.371 25.508C112.226 25.825 111.921 26.04 111.571 26.068C110.266 26.614 108.781 26.506 107.568 25.776C107.124 25.5285 106.642 25.3569 106.142 25.268C105.843 25.1984 105.532 25.1974 105.232 25.2649C104.932 25.3324 104.652 25.4668 104.411 25.658C104.104 25.828 103.913 26.152 103.911 26.503C103.909 26.854 104.094 27.18 104.398 27.356C104.524 27.4708 104.673 27.5568 104.835 27.608C106.015 28.03 107.245 28.293 108.492 28.39C109.241 28.3497 109.983 28.5562 110.604 28.978C111.125 29.2908 111.661 29.5772 112.21 29.836C113.144 30.242 113.727 31.186 113.672 32.202C113.592 34.492 112.708 35.959 110.45 36.346C109.605 36.4144 108.782 36.6525 108.031 37.046C107.785 37.1599 107.517 37.2189 107.246 37.219L105.02 37.409C103.299 37.3033 101.62 36.8329 100.095 36.029C99.93 35.911 99.775 35.777 99.637 35.629C99.4218 35.481 99.2579 35.2699 99.168 35.0248C99.078 34.7796 99.0665 34.5126 99.1349 34.2606C99.2033 34.0086 99.3483 33.7841 99.5498 33.6181C99.7514 33.4521 99.9996 33.3528 100.26 33.334C101.184 33.129 102.133 33.059 103.077 33.127C103.565 33.259 104.004 33.527 104.344 33.901C104.708 34.2347 105.143 34.4825 105.615 34.626C106.088 34.7695 106.587 34.805 107.075 34.73C107.512 34.68 107.935 34.544 108.321 34.332C108.721 34.132 108.979 33.705 108.951 33.25C108.923 32.795 108.621 32.403 108.191 32.256C108.009 32.168 107.806 32.129 107.619 32.05C106.989 31.814 106.372 31.54 105.773 31.23C104.959 30.7314 104.004 30.5162 103.055 30.618C101.415 30.903 99.811 29.948 99.28 28.368C98.714 26.786 99.238 25.02 100.575 24.002C101.727 23.032 103.191 22.508 104.698 22.529C105.178 22.541 105.66 22.494 106.128 22.389L106.127 22.396ZM75.464 28.514C75.431 28.946 75.439 29.381 75.49 29.812L75.88 35.066C75.9138 35.365 75.8779 35.6678 75.7752 35.9507C75.6725 36.2335 75.5057 36.4888 75.2879 36.6964C75.07 36.9041 74.8071 37.0585 74.5197 37.1476C74.2322 37.2367 73.9281 37.258 73.631 37.21C72.511 37.237 71.461 36.663 70.878 35.705C70.295 34.747 70.268 33.551 70.808 32.568C71.2141 31.6316 71.3016 30.5879 71.057 29.597L70.427 25.291C70.39 24.921 70.421 24.546 70.519 24.186C70.639 23.412 71.315 22.848 72.099 22.869C72.7412 22.8272 73.3859 22.8396 74.026 22.906C74.509 22.911 74.969 23.118 75.293 23.476C75.617 23.834 75.778 24.312 75.736 24.793V26.013C75.781 26.027 75.566 27.687 75.466 28.515L75.464 28.514ZM73.214 17.166H73.518C74.231 17.086 74.922 17.444 75.266 18.073C75.61 18.702 75.54 19.477 75.088 20.035C74.894 20.405 74.511 20.635 74.094 20.635C73.4204 20.6597 72.746 20.6306 72.077 20.548C71.679 20.538 71.304 20.36 71.045 20.048C70.786 19.736 70.667 19.348 70.718 18.953C70.715 18.035 71.394 17.258 72.303 17.138C72.605 17.111 72.91 17.138 73.213 17.138V17.165L73.214 17.166Z" fill="black"/>
</svg>
