<svg width="120" height="60" viewBox="0 0 120 60" fill="none" xmlns="http://www.w3.org/2000/svg">
<path d="M29.3266 40.2424C28.7703 40.2424 28.2287 40.0277 27.8139 39.6178L15.1952 26.999V38.0612C15.1952 39.2323 14.2388 40.1936 13.0628 40.1936C11.8868 40.1936 10.9304 39.2908 10.9304 38.0612V21.8608C10.9304 20.9971 11.4525 20.2212 12.2479 19.8894C13.0433 19.5576 13.9558 19.743 14.5706 20.353L27.1893 32.9717V21.8608C27.1893 20.6897 28.1457 19.7284 29.3217 19.7284C30.4977 19.7284 31.4541 20.6848 31.4541 21.8608V38.0612C31.4541 39.2323 30.4977 40.1936 29.3217 40.1936L29.3266 40.2424ZM39.1932 19.6991L38.6077 20.7922L34.0696 29.029L33.4841 30.0683L34.0696 31.1077L38.6077 39.0761L39.2176 40.1692H51.0751L51.6607 38.9688L55.0472 32.1471L56.5599 29.0534H53.1246L44.4632 29.0778C43.3409 29.0631 42.3016 30.083 42.3016 31.2102C42.3016 32.3374 43.3361 33.3572 44.4632 33.3426L49.6845 33.3182L48.406 35.9044H41.7014L38.3686 30.0391L41.7258 23.9639H48.8696L50.5286 27.3797H54.8227L52.1194 20.8995L51.5338 19.6991H39.1884H39.1932ZM60.7856 19.6747C59.6633 19.6894 58.6679 20.719 58.6874 21.8315V27.3943H62.9522V21.8315C62.9668 20.6994 61.9763 19.6601 60.7954 19.6747H60.7856ZM67.6269 40.2424C66.4558 40.2424 65.4945 39.286 65.4945 38.11V21.8949C65.4945 20.7238 66.4509 19.7625 67.6269 19.7625C68.8029 19.7625 69.7593 20.719 69.7593 21.8949V33.0059L82.378 20.3871C82.988 19.7772 83.9053 19.5966 84.7007 19.9236C85.4961 20.2505 86.0182 21.0313 86.0182 21.8949V38.1588C86.0182 39.3299 85.0618 40.2912 83.8858 40.2912C82.7098 40.2912 81.7534 39.3348 81.7534 38.1588V27.043L69.1347 39.6617C68.7346 40.0618 68.1929 40.2863 67.622 40.2863L67.6269 40.2424ZM101.804 30.0098L108.44 23.4028C109.27 22.5732 109.27 21.2216 108.445 20.3871C107.62 19.5527 106.264 19.5576 105.429 20.3823L98.7931 27.0039L92.1568 20.3823C91.3273 19.5527 89.9707 19.5527 89.1412 20.3871C88.3116 21.2216 88.3116 22.5732 89.1461 23.4028L95.7824 30.0098L89.151 36.5973C88.3214 37.4268 88.3214 38.7785 89.1461 39.6129C89.5462 40.0179 90.0878 40.2473 90.61 40.2473C91.1321 40.2473 91.6981 40.0423 92.1129 39.6227L98.7345 33.0205L105.356 39.6227C105.756 40.0228 106.298 40.2473 106.859 40.2473C107.42 40.2473 107.952 40.0374 108.323 39.6129C109.153 38.7834 109.153 37.4317 108.318 36.5973L101.706 30.0098H101.804ZM60.688 40.2277C59.5657 40.2131 58.5703 39.1835 58.5898 38.0709V29.1412H62.8546V38.0612C62.8692 39.1933 61.8787 40.2326 60.6978 40.218" fill="#009900"/>
</svg>
