<svg width="120" height="60" viewBox="0 0 120 60" fill="none" xmlns="http://www.w3.org/2000/svg">
<path d="M65.64 26.5499C66.127 26.8749 66.857 27.1179 67.588 27.1179C68.724 27.1179 69.373 26.5499 69.373 25.6579C69.373 24.8479 68.886 24.4409 67.75 23.9539C66.37 23.4669 65.478 22.7369 65.478 21.5199C65.478 20.2219 66.614 19.2479 68.238 19.2479C69.131 19.2479 69.698 19.4099 70.104 19.6539L69.779 20.5469C69.536 20.3849 68.969 20.1409 68.156 20.1409C67.02 20.1409 66.533 20.8709 66.533 21.4389C66.533 22.2489 67.02 22.6559 68.237 23.0619C69.697 23.6299 70.337 24.2789 70.337 25.5779C70.337 26.8769 69.363 28.0119 67.417 28.0119C66.607 28.0119 65.713 27.7689 65.227 27.4439L65.633 26.5509" fill="#02797E"/>
<path d="M72.62 24.9999C72.62 26.4599 73.594 27.0999 74.72 27.0999C75.3044 27.1114 75.8848 27.0007 76.424 26.7749L76.586 27.5749C76.18 27.7369 75.531 27.9809 74.556 27.9809C72.69 27.9809 71.553 26.7639 71.553 24.8969C71.553 23.0299 72.7 21.5999 74.405 21.5999C76.353 21.5999 76.921 23.3849 76.921 24.4399V25.0079H72.621L72.62 24.9999ZM75.867 24.2779C75.867 23.5479 75.542 22.4929 74.325 22.4929C73.189 22.4929 72.702 23.5479 72.621 24.2779H75.867ZM82.682 27.6779C82.357 27.8399 81.708 28.0029 80.897 28.0029C79.031 28.0029 77.894 26.7859 77.894 24.9189C77.894 23.0519 79.192 21.6729 81.14 21.6729C81.79 21.6729 82.357 21.8349 82.682 21.9979L82.439 22.7979C82.196 22.6359 81.789 22.4729 81.141 22.4729C79.761 22.4729 78.941 23.5279 78.941 24.8259C78.941 26.2059 79.834 27.0979 81.041 27.0979C81.691 27.0979 82.096 26.9359 82.421 26.7729L82.664 27.6659L82.682 27.6779ZM89.012 26.2159L89.092 27.8389H88.118L88.038 26.8649C87.795 27.3519 87.064 28.0009 86.008 28.0009C85.034 28.0009 83.908 27.4329 83.908 25.3229V21.7529H85.044V25.0799C85.044 26.2159 85.45 27.0279 86.424 27.0279C87.154 27.0279 87.722 26.5409 87.884 25.9729C87.964 25.8109 87.964 25.6479 87.964 25.4049V21.6719H89.1V26.2159H89.012ZM90.878 23.6989L90.798 21.8329H91.772L91.852 23.0499C92.095 22.2499 92.826 21.7519 93.556 21.7519H93.881V22.8069H93.475C92.675 22.8069 92.177 23.3749 92.015 24.1869V27.9999H90.88V23.6999L90.878 23.6989ZM95.585 20.7069C95.179 20.7069 94.855 20.3819 94.855 19.9769C94.855 19.7833 94.9319 19.5977 95.0688 19.4608C95.2057 19.3239 95.3914 19.2469 95.585 19.2469C95.7786 19.2469 95.9643 19.3239 96.1012 19.4608C96.2381 19.5977 96.315 19.7833 96.315 19.9769C96.315 20.3819 96.072 20.7069 95.585 20.7069ZM96.153 27.9289H95.098V21.8429H96.234V27.9289H96.153ZM99.317 20.3829V21.8429H100.94V22.6429H99.317V25.9699C99.317 26.6999 99.56 27.1869 100.117 27.1869C100.442 27.1869 100.604 27.1869 100.767 27.1069L100.847 27.9069C100.604 27.9869 100.279 28.0689 99.873 28.0689C99.6476 28.0752 99.4234 28.0352 99.2141 27.9515C99.0047 27.8677 98.8148 27.742 98.656 27.5819C98.331 27.2569 98.25 26.6889 98.25 25.9589V22.6319H97.276V21.8319H98.25V20.6959L99.305 20.3709L99.317 20.3829ZM102.725 21.8439L104.023 25.4139C104.185 25.8199 104.348 26.3069 104.429 26.6309C104.509 26.3059 104.672 25.8309 104.835 25.3329L106.052 21.7629H107.188L105.484 26.1449C104.684 28.2449 104.186 29.3099 103.384 29.9589C102.816 30.4459 102.329 30.6089 102.004 30.6889L101.761 29.7959C102.004 29.7159 102.411 29.5529 102.735 29.2279C103.06 28.9849 103.385 28.5779 103.628 28.0109C103.708 27.9309 103.708 27.8489 103.708 27.7679C103.708 27.6869 103.708 27.6059 103.628 27.5249L101.356 21.9249H102.736" fill="#02797E"/>
<path d="M65.64 39.13C66.127 39.455 66.857 39.698 67.588 39.698C68.724 39.698 69.373 39.13 69.373 38.238C69.373 37.428 68.886 37.021 67.75 36.534C66.37 36.047 65.478 35.317 65.478 34.1C65.478 32.802 66.614 31.828 68.238 31.828C69.131 31.828 69.698 31.99 70.104 32.234L69.779 33.127C69.536 32.965 68.969 32.721 68.156 32.721C67.02 32.721 66.533 33.451 66.533 34.019C66.533 34.829 67.02 35.236 68.237 35.642C69.697 36.21 70.337 36.859 70.337 38.158C70.337 39.457 69.363 40.592 67.417 40.592C66.607 40.592 65.713 40.349 65.227 40.024L65.633 39.131" fill="#02797E"/>
<path d="M73.188 32.9619V34.4219H74.8V35.2219H73.177V38.4679C73.177 39.1979 73.42 39.6849 73.977 39.6849C74.302 39.6849 74.464 39.6849 74.627 39.6049L74.707 40.4049C74.464 40.4849 74.139 40.5669 73.733 40.5669C73.5076 40.5732 73.2834 40.5332 73.0741 40.4494C72.8647 40.3657 72.6748 40.2399 72.516 40.0799C72.191 39.7549 72.11 39.1869 72.11 38.4569V35.1499H71.136V34.3499H72.11V33.2139L73.165 32.9709L73.188 32.9619ZM80.32 39.0579C80.32 39.6259 80.32 40.1129 80.4 40.5179H79.426L79.346 39.7879C79.021 40.2749 78.372 40.6809 77.48 40.6809C76.263 40.6809 75.614 39.7879 75.614 38.8959C75.614 37.4359 76.912 36.6239 79.266 36.6239V36.4619C79.266 35.9749 79.104 35.0019 77.886 35.0819C77.318 35.0819 76.75 35.2439 76.263 35.5689L76.02 34.8389C76.507 34.5139 77.237 34.3519 78.05 34.3519C79.916 34.3519 80.403 35.6499 80.403 36.8679V39.0679L80.32 39.0579ZM79.267 37.4449C78.05 37.4449 76.67 37.6069 76.67 38.8249C76.67 39.5549 77.157 39.8799 77.725 39.8799C78.525 39.8799 79.023 39.3929 79.185 38.8249C79.185 38.7449 79.265 38.5819 79.265 38.4999L79.267 37.4449ZM82.114 36.0449L82.034 34.4219H83.008L83.088 35.3959C83.413 34.8279 84.062 34.2599 85.118 34.2599C85.918 34.2599 87.318 34.7469 87.318 36.8569V40.4999H86.17V36.9999C86.17 36.0259 85.764 35.2149 84.79 35.2149C84.06 35.2149 83.492 35.7019 83.33 36.3509C83.25 36.5129 83.25 36.6759 83.25 36.8379V40.4999H82.114V36.0369V36.0449ZM94.367 31.5719V38.9569C94.367 39.5249 94.367 40.0929 94.447 40.4989H93.473L93.393 39.4439C93.068 40.0939 92.338 40.6609 91.363 40.6609C89.903 40.6609 88.766 39.4439 88.766 37.5769C88.766 35.5469 90.064 34.3309 91.526 34.3309C92.5 34.3309 93.068 34.7369 93.392 35.2239V31.5719H94.366H94.367ZM93.23 36.8469C93.23 36.6849 93.23 36.5219 93.15 36.3599C93.0802 35.9848 92.8778 35.6473 92.5799 35.409C92.2819 35.1708 91.9082 35.0475 91.527 35.0619C90.391 35.0619 89.661 36.0359 89.661 37.4149C89.661 38.6319 90.311 39.6869 91.446 39.6869C92.176 39.6869 92.826 39.1999 93.069 38.3889C93.149 38.2269 93.149 38.0639 93.149 37.9019V36.8469H93.23ZM100.535 39.0469C100.535 39.6149 100.535 40.1019 100.615 40.5069H99.641L99.561 39.7769C99.236 40.2639 98.587 40.6699 97.695 40.6699C96.478 40.6699 95.829 39.7769 95.829 38.8849C95.829 37.4249 97.127 36.6129 99.481 36.6129V36.4509C99.481 35.9639 99.319 34.9909 98.101 35.0709C97.533 35.0709 96.965 35.2329 96.478 35.5579L96.235 34.8279C96.722 34.5029 97.452 34.3409 98.265 34.3409C100.131 34.3409 100.618 35.6389 100.618 36.8569V39.0569L100.535 39.0469ZM99.4 37.4249C98.183 37.4249 96.803 37.5869 96.803 38.8049C96.803 39.5349 97.29 39.8599 97.858 39.8599C98.658 39.8599 99.156 39.3729 99.318 38.8049C99.318 38.7249 99.398 38.5619 99.398 38.4799L99.4 37.4249ZM102.32 36.2899L102.24 34.4239H103.214L103.294 35.6409H103.374C103.617 34.8409 104.348 34.3429 105.078 34.3429H105.403V35.3979H104.997C104.197 35.3979 103.699 35.9659 103.537 36.7779V40.5999H102.4L102.32 36.2999V36.2899ZM111.57 31.5819V38.9669C111.57 39.5349 111.57 40.1029 111.65 40.5089H110.676L110.596 39.4539C110.271 40.1039 109.541 40.6709 108.496 40.6709C107.036 40.6709 105.899 39.4539 105.899 37.5869C105.899 35.5569 107.116 34.3409 108.659 34.3409C109.633 34.3409 110.201 34.7469 110.525 35.2339V31.5819H111.58H111.57ZM110.525 36.8569C110.525 36.6949 110.525 36.5319 110.445 36.3699C110.363 36.0011 110.157 35.6715 109.862 35.4355C109.567 35.1995 109.2 35.0712 108.822 35.0719C107.686 35.0719 107.037 36.0459 107.037 37.4249C107.037 38.6419 107.687 39.6969 108.822 39.6969C109.552 39.6969 110.282 39.2099 110.445 38.3989C110.445 38.2369 110.525 38.0739 110.525 37.9119V36.8569ZM113.275 39.3729C113.6 39.6159 114.168 39.7789 114.735 39.7789C115.535 39.7789 115.871 39.3729 115.871 38.8859C115.871 38.3179 115.546 38.0859 114.735 37.7499C113.599 37.3439 113.112 36.7759 113.112 36.0459C113.112 35.0719 113.912 34.2609 115.212 34.2609C115.862 34.2609 116.348 34.4229 116.672 34.6669L116.429 35.4669C116.186 35.3049 115.779 35.1419 115.212 35.1419C114.562 35.1419 114.238 35.5479 114.238 35.9419C114.238 36.4289 114.563 36.6719 115.374 36.9969C116.429 37.4029 116.997 37.8899 116.997 38.8629C116.997 39.9179 116.197 40.7289 114.725 40.7289C114.075 40.7289 113.427 40.5669 113.021 40.3229L113.264 39.3489" fill="#02797E"/>
<path d="M60.7453 35.0123L16.0244 49.0468L2.99242 13.5708L49.941 10.9532L60.7453 35.0123Z" fill="#02797E"/>
<path d="M26.9401 27.8837C26.9401 28.7748 26.7173 29.5545 26.3275 30.2785C25.9376 30.9468 25.3807 31.5594 24.6567 32.0049C23.9327 32.4505 23.0416 32.7846 22.0392 33.0074C21.0367 33.2302 19.9229 33.3415 18.642 33.3415H17.7509V37.9083H11.9589V22.7043H18.7533C21.3152 22.7043 23.3201 23.1499 24.7681 23.9852C26.2161 24.8206 26.9401 26.1572 26.9401 27.8837ZM21.3709 27.9394C21.3709 26.6028 20.3684 25.9345 18.4192 25.9345H17.6952V30H18.3635C19.3103 30 20.09 29.8329 20.5912 29.4988C21.0924 29.2203 21.3709 28.6634 21.3709 27.9394ZM41.3087 37.9083C40.4176 38.0754 39.4152 38.1868 38.2456 38.1868C36.6306 38.1868 35.1826 38.0197 33.9573 37.6299C32.6764 37.24 31.6183 36.7388 30.7272 36.0705C29.8361 35.4022 29.1678 34.5668 28.7223 33.62C28.2767 32.6175 28.054 31.5594 28.054 30.3899C28.054 29.2203 28.2767 28.1622 28.778 27.1597C29.2866 26.1925 29.9879 25.3396 30.8386 24.6535C31.7296 23.9852 32.7878 23.4283 34.013 23.0385C35.2383 22.6486 36.5749 22.4815 38.0229 22.4815C39.1367 22.4815 40.1949 22.5372 41.1416 22.7043C42.0884 22.9271 42.0884 22.9271 42.8124 23.2055V27.2711C42.2555 26.9369 41.5872 26.6585 40.8632 26.4914C40.1392 26.2686 39.3595 26.1572 38.5798 26.1572C37.2432 26.1572 36.185 26.5471 35.3496 27.2154C34.5143 27.9394 34.1244 28.9419 34.1244 30.3342C34.1244 31.0025 34.2358 31.6151 34.5143 32.172C34.7927 32.6732 35.1269 33.1188 35.5724 33.4529C36.018 33.7871 36.5192 34.0655 37.1318 34.2326C37.7444 34.3997 38.357 34.5111 39.0253 34.5111C39.6936 34.5111 40.4176 34.4554 41.086 34.2883C41.7543 34.1212 42.4783 33.9542 43.2023 33.62V37.4628L41.3087 37.9083ZM45.597 22.7043H51.4447V37.964H45.597V22.7043ZM52.0573 17.9148C52.0573 18.9172 51.7232 19.7526 51.0549 20.3095C50.3866 20.8665 49.5512 21.2006 48.5487 21.2006C47.5463 21.2006 46.7109 20.9222 46.0426 20.3095C45.3743 19.7526 45.0401 18.9172 45.0401 17.9148C45.0401 16.8566 45.3743 16.0769 46.0426 15.4643C46.7109 14.8517 47.5463 14.5732 48.5487 14.5732C49.5512 14.5732 50.3866 14.8517 51.0549 15.4643C51.7232 16.0212 52.0573 16.8566 52.0573 17.9148Z" fill="white"/>
</svg>
