<svg width="120" height="60" viewBox="0 0 120 60" fill="none" xmlns="http://www.w3.org/2000/svg">
<path d="M85.42 41H80.084C79.94 41 79.81 41.09 79.761 41.226L79.608 41.646C79.405 41.376 79.108 41.196 78.732 41.12C78.325 41.04 77.552 41 76.372 41H74.647C74.503 41 74.373 41.09 74.324 41.226L73.964 42.212C73.934 42.092 73.896 41.972 73.839 41.859C73.659 41.503 73.352 41.235 72.924 41.063C72.536 40.906 72.062 40.827 71.518 40.827C70.9816 40.8229 70.448 40.9039 69.937 41.067C69.447 41.227 69.011 41.464 68.644 41.767C68.5448 41.8494 68.4501 41.9368 68.36 42.029L68.567 41.459C68.605 41.353 68.59 41.236 68.527 41.144C68.464 41.052 68.357 40.997 68.245 40.997H66.205C66.061 40.997 65.931 41.087 65.882 41.223L65.205 43.083L65.175 41.335C65.172 41.147 65.018 40.997 64.831 40.997H62.803C62.658 40.997 62.529 41.087 62.48 41.223L62.203 41.983C62.12 41.623 61.843 41.333 61.375 41.117C60.975 40.935 60.453 40.84 59.829 40.827C61.926 38.744 63.699 36.287 65.321 33.33C66.064 31.976 67.611 29.25 66.564 27.575C66.041 26.738 64.576 26.359 63.424 26.568C59.174 27.548 53.464 26.194 51.931 25.311C51.826 25.311 52.161 24.476 51.951 24.161C52.265 23.951 52.373 23.811 52.791 23.916C53.524 24.23 54.411 24.099 55.141 23.996C54.721 23.156 54.279 21.538 53.651 20.596C53.023 21.119 52.065 21.516 51.437 21.936C50.28 18.811 46.363 18.242 43.197 20.054C43.107 20.106 43.021 20.094 43.021 20.094L41.805 17.452C40.673 18.126 39.685 19.035 39.248 19.035C38.398 19.035 37.365 19.028 36.528 18.925C36.528 20.39 37.09 22.077 37.156 23.325C35.901 24.58 34.646 25.835 33.808 27.405C32.878 27.189 31.855 27.045 30.904 27.445C30.296 27.7 29.59 28.461 29.832 29.289C29.969 29.759 30.564 30.249 31.715 30.545C29.459 32.729 28.321 37.255 30.355 38.81C29.832 39.333 29.215 39.826 29.035 40.504C28.793 41.406 29.311 41.731 29.937 41.844C31.094 42.054 31.937 41.484 32.775 40.961C34.58 42.034 35.803 41.955 37.889 42.053C38.099 42.063 38.589 42.681 38.589 42.681C38.589 42.681 37.179 42.521 36.449 42.741C35.469 43.035 34.613 43.958 35.292 44.755C36.305 45.955 38.248 46.385 40.007 45.955C41.073 47.1 40.577 48.957 38.784 49.702C40.354 49.597 42.164 48.552 42.354 46.38C42.39 45.963 42.151 45.307 41.837 44.993C41.627 44.783 41.34 44.47 41.34 44.47C41.34 44.47 42.222 42.79 40.398 41.854C41.123 41.709 42.49 41.121 42.49 41.121C42.49 41.121 43.044 41.767 43.536 41.854C44.061 41.946 44.694 41.647 44.896 41.121C45.192 40.351 44.268 39.761 44.268 39.761L45.001 38.611C45.001 38.611 45.633 39.209 45.921 39.689C46.815 41.184 46.991 42.692 47.827 44.157C48.247 44.889 48.984 45.491 49.727 45.805C50.355 46.015 51.042 46.055 51.747 45.929C52.93 45.721 53.859 45.327 54.539 44.922C54.9378 44.6829 55.3309 44.4345 55.718 44.177C55.713 44.234 55.708 44.292 55.708 44.347C55.708 44.407 55.711 44.467 55.718 44.523C55.755 44.869 55.87 45.151 56.06 45.361C56.217 45.535 56.537 45.791 57.034 46.145H55.2C55.056 46.145 54.926 46.235 54.877 46.371L54.685 46.898C54.472 47.483 54.368 47.948 54.368 48.31C54.368 48.353 54.37 48.395 54.373 48.435C54.405 48.885 54.673 49.25 55.163 49.521C55.598 49.761 56.178 49.881 56.887 49.881C57.519 49.881 58.119 49.781 58.669 49.586C59.045 49.452 59.359 49.291 59.615 49.106L59.565 49.246C59.525 49.352 59.542 49.469 59.605 49.561C59.668 49.653 59.775 49.708 59.887 49.708H61.927C62.071 49.708 62.201 49.618 62.25 49.481L62.876 47.761L62.851 49.365C62.851 49.465 62.887 49.542 62.951 49.605C63.015 49.668 63.104 49.708 63.196 49.708H65.328C65.472 49.708 65.602 49.618 65.651 49.481L66.021 48.461C66.0487 48.5953 66.093 48.7257 66.153 48.849C66.333 49.205 66.641 49.473 67.068 49.645C67.456 49.801 67.93 49.881 68.474 49.881C69.0101 49.8854 69.5434 49.8044 70.054 49.641C70.546 49.481 70.98 49.244 71.347 48.941C71.437 48.867 71.52 48.791 71.597 48.713L71.402 49.249C71.362 49.355 71.379 49.472 71.444 49.564C71.509 49.656 71.614 49.711 71.726 49.711H74.159C74.304 49.711 74.433 49.621 74.482 49.485L75.662 46.241C75.638 46.328 75.605 46.434 75.55 46.586L74.58 49.249C74.566 49.287 74.56 49.327 74.56 49.367C74.56 49.437 74.58 49.505 74.622 49.564C74.687 49.656 74.792 49.711 74.904 49.711H77.166C77.311 49.711 77.44 49.621 77.489 49.484L78.259 47.369C78.586 46.471 78.639 46.216 78.649 46.094C78.651 46.07 78.652 46.046 78.652 46.022C78.652 45.827 78.589 45.624 78.464 45.416C78.438 45.373 78.401 45.336 78.366 45.299C78.52 45.232 78.661 45.156 78.766 45.061C79.066 44.805 79.349 44.345 79.6 43.657C79.644 43.535 79.682 43.419 79.715 43.307H80.432L78.27 49.247C78.256 49.285 78.25 49.325 78.25 49.365C78.25 49.435 78.27 49.503 78.312 49.562C78.377 49.654 78.482 49.709 78.594 49.709H81.026C81.17 49.709 81.3 49.619 81.349 49.482L83.597 43.306H84.821C84.966 43.306 85.095 43.216 85.144 43.079L85.73 41.479C85.7439 41.4412 85.751 41.4013 85.751 41.361C85.751 41.291 85.731 41.221 85.689 41.164C85.624 41.064 85.519 41.019 85.407 41.019L85.42 41ZM60.93 45.5C60.926 45.49 60.925 45.48 60.92 45.47C60.75 45.082 60.276 44.645 59.472 44.12H61.432L60.93 45.5ZM76.778 43.227L76.618 43.665C76.581 43.769 76.548 43.845 76.518 43.905L76.814 43.091C76.8074 43.1381 76.795 43.1841 76.777 43.228L76.778 43.227Z" fill="white" stroke="white" stroke-width="0.603" stroke-miterlimit="10"/>
<path d="M53.425 19.9399C52.902 19.1029 51.437 18.7239 50.285 18.9329C46.035 19.9129 40.325 18.5589 38.792 17.6759C38.687 17.6759 39.022 16.8409 38.812 16.5259C39.126 16.3159 39.234 16.1759 39.652 16.2809C40.385 16.5949 41.272 16.4639 42.002 16.3609C41.582 15.5209 41.14 13.9029 40.512 12.9609C39.884 13.4839 38.926 13.8809 38.298 14.3009C37.141 11.1759 33.225 10.6069 30.06 12.4189C29.97 12.4709 29.884 12.4589 29.884 12.4589L28.67 9.81494C27.538 10.4889 26.55 11.3979 26.113 11.3979C25.263 11.3979 24.23 11.3909 23.393 11.2879C23.393 12.7529 23.955 14.4399 24.021 15.6879C22.766 16.9429 21.511 18.1979 20.673 19.7679C19.743 19.5519 18.72 19.4079 17.769 19.8079C17.161 20.0629 16.455 20.8239 16.697 21.6519C16.834 22.1219 17.429 22.6119 18.58 22.9079C16.324 25.0919 15.186 29.6179 17.22 31.1729C16.697 31.6959 16.08 32.1889 15.9 32.8669C15.658 33.7689 16.176 34.0939 16.802 34.2069C17.959 34.4169 18.802 33.8469 19.64 33.3239C21.445 34.3969 22.668 34.3179 24.754 34.4159C24.964 34.4259 25.454 35.0439 25.454 35.0439C25.454 35.0439 24.044 34.8839 23.314 35.1039C22.334 35.3979 21.478 36.3209 22.157 37.1179C23.17 38.3179 25.113 38.7479 26.872 38.3179C27.938 39.4629 27.442 41.3199 25.649 42.0649C27.219 41.9599 29.029 40.9149 29.219 38.7429C29.255 38.3259 29.016 37.6699 28.702 37.3559C28.492 37.1459 28.205 36.8329 28.205 36.8329C28.205 36.8329 29.087 35.1529 27.263 34.2169C27.988 34.0719 29.355 33.4839 29.355 33.4839C29.355 33.4839 29.909 34.1299 30.401 34.2169C30.926 34.3089 31.559 34.0099 31.761 33.4839C32.057 32.7139 31.133 32.1239 31.133 32.1239L31.866 30.9739C31.866 30.9739 32.498 31.5719 32.786 32.0519C33.68 33.5469 33.856 35.0549 34.692 36.5199C35.112 37.2519 35.849 37.8539 36.592 38.1679C37.22 38.3779 37.907 38.4179 38.612 38.2919C39.795 38.0839 40.724 37.6899 41.404 37.2849C46.081 34.4979 49.358 30.8629 52.19 25.7049C52.934 24.3519 54.48 21.6249 53.433 19.9509L53.425 19.9399ZM40.125 13.6999C40.2492 13.9864 40.3891 14.2658 40.544 14.5369L41.16 16.0599L40.315 15.9199L39.525 15.3539C39.525 15.3539 39.413 15.7699 38.975 16.1079C38.763 15.4959 39.221 15.1879 38.58 14.5009C39.103 14.1879 40.126 13.7009 40.126 13.7009L40.125 13.6999ZM28.625 38.7599C28.817 39.8759 27.823 41.0099 27.143 41.4449C27.736 40.5209 28.311 40.1199 27.631 38.2189C27.363 37.4689 26.689 36.9189 26.009 36.4759C25.799 36.3359 25.511 36.2419 25.189 36.1619C24.839 36.0739 24.456 36.3359 24.143 36.6499C24.143 36.6499 25.137 37.1399 25.991 37.2959C26.479 37.9419 25.503 37.9589 25.503 37.9589C25.398 38.0629 22.669 37.6839 22.853 36.3549C22.923 35.8479 23.953 34.8719 26.009 35.6749C27.146 36.1179 28.446 37.7189 28.625 38.7609V38.7599ZM27.475 34.8359C27.988 35.0699 27.998 35.6729 27.998 36.1959C27.998 36.3009 27.893 36.3009 27.788 36.4059C27.458 35.8309 26.934 35.5509 26.428 35.1509C26.312 35.0589 26.254 35.0289 26.358 34.9239C26.672 34.6089 27.091 34.6619 27.474 34.8359H27.475ZM31.289 33.0459C31.094 33.7779 30.415 33.6529 30.347 33.2819C30.287 32.9569 30.685 32.8599 30.827 32.6999C30.941 32.7599 31.327 32.9459 31.29 33.0469L31.289 33.0459ZM35.256 34.9629C34.131 31.5759 30.992 28.4759 29.469 27.5859C29.369 27.5339 29.189 27.8159 29.189 27.8159C29.189 27.8159 30.562 29.1039 30.772 30.0459C30.982 30.8829 30.512 31.7789 29.987 32.4059C27.895 34.3959 25.057 34.0019 22.362 33.8119C21.52 33.7519 20.289 33.1849 20.936 31.9289C19.994 32.6609 18.529 34.0289 17.47 33.6029C17.265 33.5209 16.953 32.9969 17.17 32.5189C17.552 31.7129 18.83 30.4469 19.95 29.8839C20.01 29.7699 19.864 29.5699 19.452 29.7599C19.027 29.9549 18.184 30.7599 17.845 30.6039C15.945 29.6639 17.159 26.1559 17.785 24.9979C18.565 23.5579 19.557 23.3029 20.603 22.9879C19.359 22.7659 18.407 22.6379 17.779 22.0079C17.465 21.5879 17.615 21.2629 17.929 20.8439C18.2378 20.5315 18.6223 20.3044 19.045 20.1849C19.463 20.0629 19.831 20.1129 20.24 20.2009C21.268 20.4229 21.324 20.9439 21.847 20.8389C21.737 20.6049 21.211 20.0989 21.312 19.8889C21.817 18.8329 22.649 17.7109 23.788 16.7539C23.93 16.6339 24.056 16.6069 24.265 16.6069C24.579 16.7119 24.458 17.0269 24.64 17.3339C24.95 17.8589 25.815 17.8539 26.338 17.4359C27.384 16.5989 27.738 15.0289 28.155 13.7729C28.155 13.6679 28.495 13.0129 27.922 13.1979C27.644 14.3459 27.189 15.2909 26.562 16.3379C26.248 16.7579 25.885 17.1399 25.362 16.9309C25.257 16.8259 25.038 16.7679 24.992 16.4429C24.782 14.9429 24.475 12.1389 24.475 12.1389C24.475 12.1389 25.932 12.3319 26.479 12.2069C26.803 12.1329 27.529 11.2719 28.262 10.9569C28.785 11.6889 29.272 12.3819 29.727 13.1029C31.819 12.1609 34.277 11.4029 36.371 12.9729C37.104 13.6009 37.871 14.3729 38.131 15.0729C38.319 15.6029 38.438 16.9129 38.297 17.9089C40.077 18.8509 41.835 19.3819 43.827 19.7809C44.715 19.9589 45.387 20.0309 46.254 20.1009C46.684 20.1349 47.684 20.2769 49.688 19.9249C45.606 20.7619 42.31 23.3829 39.538 26.5819C38.178 28.1499 35.718 31.9879 35.398 33.3619C35.2622 33.88 35.2115 34.4166 35.248 34.9509L35.256 34.9629ZM51.962 24.5829C51.282 26.6029 49.516 29.2449 47.698 31.2259C46.008 33.0659 41.198 37.4779 37.83 37.2909C36.25 37.2039 35.627 35.5709 36.196 33.7539C37.276 30.3009 42.038 23.3099 48.091 20.8039C49.348 20.2839 51.571 20.0439 52.067 20.7119C52.784 21.6749 52.385 23.3289 51.963 24.5839L51.962 24.5829Z" fill="#F7A8AA"/>
<path d="M53.425 19.9399C52.902 19.1029 51.437 18.7239 50.285 18.9329C46.035 19.9129 40.325 18.5589 38.792 17.6759C38.687 17.6759 39.022 16.8409 38.812 16.5259C39.126 16.3159 39.234 16.1759 39.652 16.2809C40.385 16.5949 41.272 16.4639 42.002 16.3609C41.582 15.5209 41.14 13.9029 40.512 12.9609C39.884 13.4839 38.926 13.8809 38.298 14.3009C37.141 11.1759 33.225 10.6069 30.06 12.4189C29.97 12.4709 29.884 12.4589 29.884 12.4589L28.67 9.81494C27.538 10.4889 26.55 11.3979 26.113 11.3979C25.263 11.3979 24.23 11.3909 23.393 11.2879C23.393 12.7529 23.955 14.4399 24.021 15.6879C22.766 16.9429 21.511 18.1979 20.673 19.7679C19.743 19.5519 18.72 19.4079 17.769 19.8079C17.161 20.0629 16.455 20.8239 16.697 21.6519C16.834 22.1219 17.429 22.6119 18.58 22.9079C16.324 25.0919 15.186 29.6179 17.22 31.1729C16.697 31.6959 16.08 32.1889 15.9 32.8669C15.658 33.7689 16.176 34.0939 16.802 34.2069C17.959 34.4169 18.802 33.8469 19.64 33.3239C21.445 34.3969 22.668 34.3179 24.754 34.4159C24.964 34.4259 25.454 35.0439 25.454 35.0439C25.454 35.0439 24.044 34.8839 23.314 35.1039C22.334 35.3979 21.478 36.3209 22.157 37.1179C23.17 38.3179 25.113 38.7479 26.872 38.3179C27.938 39.4629 27.442 41.3199 25.649 42.0649C27.219 41.9599 29.029 40.9149 29.219 38.7429C29.255 38.3259 29.016 37.6699 28.702 37.3559C28.492 37.1459 28.205 36.8329 28.205 36.8329C28.205 36.8329 29.087 35.1529 27.263 34.2169C27.988 34.0719 29.355 33.4839 29.355 33.4839C29.355 33.4839 29.909 34.1299 30.401 34.2169C30.926 34.3089 31.559 34.0099 31.761 33.4839C32.057 32.7139 31.133 32.1239 31.133 32.1239L31.866 30.9739C31.866 30.9739 32.498 31.5719 32.786 32.0519C33.68 33.5469 33.856 35.0549 34.692 36.5199C35.112 37.2519 35.849 37.8539 36.592 38.1679C37.22 38.3779 37.907 38.4179 38.612 38.2919C39.795 38.0839 40.724 37.6899 41.404 37.2849C46.081 34.4979 49.358 30.8629 52.19 25.7049C52.934 24.3519 54.48 21.6249 53.433 19.9519L53.425 19.9399ZM51.96 24.5829C51.28 26.6029 49.514 29.2449 47.696 31.2259C46.006 33.0659 41.196 37.4779 37.828 37.2909C36.248 37.2039 35.625 35.5709 36.194 33.7539C37.274 30.3009 42.036 23.3099 48.089 20.8039C49.346 20.2839 51.569 20.0439 52.065 20.7119C52.782 21.6749 52.383 23.3289 51.961 24.5839L51.96 24.5829Z" fill="#F7A8AA"/>
<path d="M32.706 16.2001C32.46 15.5851 32.311 14.4021 32.834 14.1921C33.197 14.1401 33.444 14.2521 33.618 14.0721C33.792 13.8921 33.878 13.5401 34.276 13.3741C35.531 12.8491 36.996 13.5841 37.52 14.7341C38.044 15.8841 38.025 17.5141 36.873 18.0361C35.408 18.6641 33.333 17.7681 32.706 16.1981V16.2001Z" fill="#FCDDDB"/>
<path d="M50.617 21.3801C50.617 21.0661 50.443 20.7001 50.861 20.4901C51.385 20.3851 51.945 20.6431 52.135 21.0301C53.478 23.7851 50.035 28.4921 47.862 31.0901C45.949 33.3881 43.222 35.5021 40.292 36.8631C39.142 37.2811 37.589 37.8231 36.647 36.7761C37.275 35.6261 38.853 36.3901 39.891 35.9391C40.291 35.7651 41.687 34.6831 42.511 33.9111C42.301 34.3311 45.889 31.5791 47.459 29.3811C48.609 27.9161 49.674 26.5211 50.407 24.9531C50.617 24.5351 51.192 24.6931 51.401 24.2731C51.401 24.1681 51.628 23.9231 51.419 23.9231C50.896 23.9231 50.669 24.2531 50.233 24.4981C50.233 24.0781 50.721 23.8011 51.018 23.2431C50.913 23.3481 50.791 22.9131 51.035 22.3881C50.965 21.9351 50.615 22.0041 50.615 21.3761L50.617 21.3801Z" fill="#FCDDDB"/>
<path d="M45.545 24.385C43.047 26.54 40.713 29.705 39.107 32.783C38.393 34.151 38.411 35.665 38.393 35.578C37.556 34.218 38.607 31.92 39.088 31.162C41.575 27.238 45.14 22.287 49.518 22.13C48.158 22.444 46.558 23.51 45.544 24.385H45.545Z" fill="#FCDDDB"/>
<path d="M21.327 31.183C22.367 30.143 23.524 30.5 23.792 30.708C24.06 30.916 24.534 32.044 24.95 32.193C25.366 32.342 26.613 32.995 28.068 32.341C29.523 31.687 30.088 31.064 30.118 30.321C30.148 29.578 30.385 29.638 29.495 28.866C28.605 28.094 28.545 28.242 28.069 27.866C27.593 27.49 27.564 27.036 27.921 26.53C28.278 26.024 29.257 26.144 30.001 26.59C30.745 27.036 32.139 28.104 32.317 28.252C32.495 28.4 34.397 30.004 34.93 30.004C35.463 30.004 35.583 30.064 36.118 29.707C36.653 29.35 36.504 29.557 37.188 29.084L38.168 28.371L36.772 31.133L35.672 34.103L35.316 35.351L34.069 33.569L33.475 32.144L32.405 31.254L31.722 30.571L31.128 31.224L30.208 32.738L26.468 34.193L23.885 34.133L21.628 33.925L20.411 32.925" fill="#F59298"/>
<path d="M22.684 23.6001C22.989 25.0001 19.684 24.9671 20.044 27.0121C20.182 27.8021 20.742 27.3681 21.058 27.7641C21.374 28.1601 21.44 28.5561 21.261 28.9121C21.082 29.2681 20.795 29.5581 20.548 29.6241C20.115 29.7401 20.192 29.5341 19.835 29.6841C19.478 29.8341 19.301 30.0401 19.301 30.0401L18.301 30.6931L17.856 31.0191L16.936 30.3361L16.491 29.2361L16.669 27.0981L17.144 25.4661L18.004 23.9821L18.834 23.1801L19.962 23.0301C19.962 23.0301 20.464 22.9481 21.12 22.9401C22.088 22.9301 22.59 23.1301 22.692 23.5961L22.684 23.6001Z" fill="#F59298"/>
<path d="M21.044 20.176L23.468 22.426C23.468 22.426 23.852 22.826 24.288 22.896C24.724 22.966 25.142 23.071 25.508 22.268C25.874 21.465 25.804 21.012 25.838 20.611C25.872 20.21 25.821 19.495 25.873 18.989C25.925 18.483 26.153 18.029 26.448 17.786C26.743 17.543 26.798 17.246 27.425 16.826C28.052 16.406 28.227 16.233 28.471 15.902C28.715 15.571 28.767 14.664 28.733 14.437C28.699 14.21 28.75 13.443 28.681 13.234C28.612 13.025 28.524 12.694 28.331 12.658C28.138 12.622 28.087 12.658 28.001 12.902C27.915 13.146 27.651 13.582 27.651 13.582L27.459 13.948L27.023 14.698L26.623 15.535L26.466 15.885L25.891 16.6L25.368 16.93L24.828 17.035L24.253 16.128L23.747 16.006L23.241 16.216L22.038 17.559L20.66 19.321L20.73 19.827" fill="#F59298"/>
<path d="M53.425 19.9399C52.902 19.1029 51.437 18.7239 50.285 18.9329C46.035 19.9129 40.325 18.5589 38.792 17.6759C38.687 17.6759 39.022 16.8409 38.812 16.5259C39.126 16.3159 39.234 16.1759 39.652 16.2809C40.385 16.5949 41.272 16.4639 42.002 16.3609C41.582 15.5209 41.14 13.9029 40.512 12.9609C39.884 13.4839 38.926 13.8809 38.298 14.3009C37.141 11.1759 33.225 10.6069 30.06 12.4189C29.97 12.4709 29.884 12.4589 29.884 12.4589L28.67 9.81494C27.538 10.4889 26.55 11.3979 26.113 11.3979C25.263 11.3979 24.23 11.3909 23.393 11.2879C23.393 12.7529 23.955 14.4399 24.021 15.6879C22.766 16.9429 21.511 18.1979 20.673 19.7679C19.743 19.5519 18.72 19.4079 17.769 19.8079C17.161 20.0629 16.455 20.8239 16.697 21.6519C16.834 22.1219 17.429 22.6119 18.58 22.9079C16.324 25.0919 15.186 29.6179 17.22 31.1729C16.697 31.6959 16.08 32.1889 15.9 32.8669C15.658 33.7689 16.176 34.0939 16.802 34.2069C17.959 34.4169 18.802 33.8469 19.64 33.3239C21.445 34.3969 22.668 34.3179 24.754 34.4159C24.964 34.4259 25.454 35.0439 25.454 35.0439C25.454 35.0439 24.044 34.8839 23.314 35.1039C22.334 35.3979 21.478 36.3209 22.157 37.1179C23.17 38.3179 25.113 38.7479 26.872 38.3179C27.938 39.4629 27.442 41.3199 25.649 42.0649C27.219 41.9599 29.029 40.9149 29.219 38.7429C29.255 38.3259 29.016 37.6699 28.702 37.3559C28.492 37.1459 28.205 36.8329 28.205 36.8329C28.205 36.8329 29.087 35.1529 27.263 34.2169C27.988 34.0719 29.355 33.4839 29.355 33.4839C29.355 33.4839 29.909 34.1299 30.401 34.2169C30.926 34.3089 31.559 34.0099 31.761 33.4839C32.057 32.7139 31.133 32.1239 31.133 32.1239L31.866 30.9739C31.866 30.9739 32.498 31.5719 32.786 32.0519C33.68 33.5469 33.856 35.0549 34.692 36.5199C35.112 37.2519 35.849 37.8539 36.592 38.1679C37.22 38.3779 37.907 38.4179 38.612 38.2919C39.795 38.0839 40.724 37.6899 41.404 37.2849C46.081 34.4979 49.358 30.8629 52.19 25.7049C52.934 24.3519 54.48 21.6249 53.433 19.9509L53.425 19.9399ZM40.125 13.6999C40.2492 13.9864 40.3891 14.2658 40.544 14.5369L41.16 16.0599L40.315 15.9199L39.525 15.3539C39.525 15.3539 39.413 15.7699 38.975 16.1079C38.763 15.4959 39.221 15.1879 38.58 14.5009C39.103 14.1879 40.126 13.7009 40.126 13.7009L40.125 13.6999ZM28.625 38.7599C28.817 39.8759 27.823 41.0099 27.143 41.4449C27.736 40.5209 28.311 40.1199 27.631 38.2189C27.363 37.4689 26.689 36.9189 26.009 36.4759C25.799 36.3359 25.511 36.2419 25.189 36.1619C24.839 36.0739 24.456 36.3359 24.143 36.6499C24.143 36.6499 25.137 37.1399 25.991 37.2959C26.479 37.9419 25.503 37.9589 25.503 37.9589C25.398 38.0629 22.669 37.6839 22.853 36.3549C22.923 35.8479 23.953 34.8719 26.009 35.6749C27.146 36.1179 28.446 37.7189 28.625 38.7609V38.7599ZM27.475 34.8359C27.988 35.0699 27.998 35.6729 27.998 36.1959C27.998 36.3009 27.893 36.3009 27.788 36.4059C27.458 35.8309 26.934 35.5509 26.428 35.1509C26.312 35.0589 26.254 35.0289 26.358 34.9239C26.672 34.6089 27.091 34.6619 27.474 34.8359H27.475ZM31.289 33.0459C31.094 33.7779 30.415 33.6529 30.347 33.2819C30.287 32.9569 30.685 32.8599 30.827 32.6999C30.941 32.7599 31.327 32.9459 31.29 33.0469L31.289 33.0459ZM35.256 34.9629C34.131 31.5759 30.992 28.4759 29.469 27.5859C29.369 27.5339 29.189 27.8159 29.189 27.8159C29.189 27.8159 30.562 29.1039 30.772 30.0459C30.982 30.8829 30.512 31.7789 29.987 32.4059C27.895 34.3959 25.057 34.0019 22.362 33.8119C21.52 33.7519 20.289 33.1849 20.936 31.9289C19.994 32.6609 18.529 34.0289 17.47 33.6029C17.265 33.5209 16.953 32.9969 17.17 32.5189C17.552 31.7129 18.83 30.4469 19.95 29.8839C20.01 29.7699 19.864 29.5699 19.452 29.7599C19.027 29.9549 18.184 30.7599 17.845 30.6039C15.945 29.6639 17.159 26.1559 17.785 24.9979C18.565 23.5579 19.557 23.3029 20.603 22.9879C19.359 22.7659 18.407 22.6379 17.779 22.0079C17.465 21.5879 17.615 21.2629 17.929 20.8439C18.2378 20.5315 18.6223 20.3044 19.045 20.1849C19.463 20.0629 19.831 20.1129 20.24 20.2009C21.268 20.4229 21.324 20.9439 21.847 20.8389C21.737 20.6049 21.211 20.0989 21.312 19.8889C21.817 18.8329 22.649 17.7109 23.788 16.7539C23.93 16.6339 24.056 16.6069 24.265 16.6069C24.579 16.7119 24.458 17.0269 24.64 17.3339C24.95 17.8589 25.815 17.8539 26.338 17.4359C27.384 16.5989 27.738 15.0289 28.155 13.7729C28.155 13.6679 28.495 13.0129 27.922 13.1979C27.644 14.3459 27.189 15.2909 26.562 16.3379C26.248 16.7579 25.885 17.1399 25.362 16.9309C25.257 16.8259 25.038 16.7679 24.992 16.4429C24.782 14.9429 24.475 12.1389 24.475 12.1389C24.475 12.1389 25.932 12.3319 26.479 12.2069C26.803 12.1329 27.529 11.2719 28.262 10.9569C28.785 11.6889 29.272 12.3819 29.727 13.1029C31.819 12.1609 34.277 11.4029 36.371 12.9729C37.104 13.6009 37.871 14.3729 38.131 15.0729C38.319 15.6029 38.438 16.9129 38.297 17.9089C40.077 18.8509 41.835 19.3819 43.827 19.7809C44.715 19.9589 45.387 20.0309 46.254 20.1009C46.684 20.1349 47.684 20.2769 49.688 19.9249C45.606 20.7619 42.31 23.3829 39.538 26.5819C38.178 28.1499 35.718 31.9879 35.398 33.3619C35.2622 33.88 35.2115 34.4166 35.248 34.9509L35.256 34.9629ZM51.962 24.5829C51.282 26.6029 49.516 29.2449 47.698 31.2259C46.008 33.0659 41.198 37.4779 37.83 37.2909C36.25 37.2039 35.627 35.5709 36.196 33.7539C37.276 30.3009 42.038 23.3099 48.091 20.8039C49.348 20.2839 51.571 20.0439 52.067 20.7119C52.784 21.6749 52.385 23.3289 51.963 24.5839L51.962 24.5829Z" fill="#F7A8AA"/>
<path d="M53.425 19.9399C52.902 19.1029 51.437 18.7239 50.285 18.9329C46.035 19.9129 40.325 18.5589 38.792 17.6759C38.687 17.6759 39.022 16.8409 38.812 16.5259C39.126 16.3159 39.234 16.1759 39.652 16.2809C40.385 16.5949 41.272 16.4639 42.002 16.3609C41.582 15.5209 41.14 13.9029 40.512 12.9609C39.884 13.4839 38.926 13.8809 38.298 14.3009C37.141 11.1759 33.225 10.6069 30.06 12.4189C29.97 12.4709 29.884 12.4589 29.884 12.4589L28.67 9.81494C27.538 10.4889 26.55 11.3979 26.113 11.3979C25.263 11.3979 24.23 11.3909 23.393 11.2879C23.393 12.7529 23.955 14.4399 24.021 15.6879C22.766 16.9429 21.511 18.1979 20.673 19.7679C19.743 19.5519 18.72 19.4079 17.769 19.8079C17.161 20.0629 16.455 20.8239 16.697 21.6519C16.834 22.1219 17.429 22.6119 18.58 22.9079C16.324 25.0919 15.186 29.6179 17.22 31.1729C16.697 31.6959 16.08 32.1889 15.9 32.8669C15.658 33.7689 16.176 34.0939 16.802 34.2069C17.959 34.4169 18.802 33.8469 19.64 33.3239C21.445 34.3969 22.668 34.3179 24.754 34.4159C24.964 34.4259 25.454 35.0439 25.454 35.0439C25.454 35.0439 24.044 34.8839 23.314 35.1039C22.334 35.3979 21.478 36.3209 22.157 37.1179C23.17 38.3179 25.113 38.7479 26.872 38.3179C27.938 39.4629 27.442 41.3199 25.649 42.0649C27.219 41.9599 29.029 40.9149 29.219 38.7429C29.255 38.3259 29.016 37.6699 28.702 37.3559C28.492 37.1459 28.205 36.8329 28.205 36.8329C28.205 36.8329 29.087 35.1529 27.263 34.2169C27.988 34.0719 29.355 33.4839 29.355 33.4839C29.355 33.4839 29.909 34.1299 30.401 34.2169C30.926 34.3089 31.559 34.0099 31.761 33.4839C32.057 32.7139 31.133 32.1239 31.133 32.1239L31.866 30.9739C31.866 30.9739 32.498 31.5719 32.786 32.0519C33.68 33.5469 33.856 35.0549 34.692 36.5199C35.112 37.2519 35.849 37.8539 36.592 38.1679C37.22 38.3779 37.907 38.4179 38.612 38.2919C39.795 38.0839 40.724 37.6899 41.404 37.2849C46.081 34.4979 49.358 30.8629 52.19 25.7049C52.934 24.3519 54.48 21.6249 53.433 19.9519L53.425 19.9399ZM51.96 24.5829C51.28 26.6029 49.514 29.2449 47.696 31.2259C46.006 33.0659 41.196 37.4779 37.828 37.2909C36.248 37.2039 35.625 35.5709 36.194 33.7539C37.274 30.3009 42.036 23.3099 48.089 20.8039C49.346 20.2839 51.569 20.0439 52.065 20.7119C52.782 21.6749 52.383 23.3289 51.961 24.5839L51.96 24.5829Z" fill="#F7A8AA"/>
<path d="M32.706 16.2001C32.46 15.5851 32.311 14.4021 32.834 14.1921C33.197 14.1401 33.444 14.2521 33.618 14.0721C33.792 13.8921 33.878 13.5401 34.276 13.3741C35.531 12.8491 36.996 13.5841 37.52 14.7341C38.044 15.8841 38.025 17.5141 36.873 18.0361C35.408 18.6641 33.333 17.7681 32.706 16.1981V16.2001Z" fill="#FCDDDB"/>
<path d="M50.617 21.3801C50.617 21.0661 50.443 20.7001 50.861 20.4901C51.385 20.3851 51.945 20.6431 52.135 21.0301C53.478 23.7851 50.035 28.4921 47.862 31.0901C45.949 33.3881 43.222 35.5021 40.292 36.8631C39.142 37.2811 37.589 37.8231 36.647 36.7761C37.275 35.6261 38.853 36.3901 39.891 35.9391C40.291 35.7651 41.687 34.6831 42.511 33.9111C42.301 34.3311 45.889 31.5791 47.459 29.3811C48.609 27.9161 49.674 26.5211 50.407 24.9531C50.617 24.5351 51.192 24.6931 51.401 24.2731C51.401 24.1681 51.628 23.9231 51.419 23.9231C50.896 23.9231 50.669 24.2531 50.233 24.4981C50.233 24.0781 50.721 23.8011 51.018 23.2431C50.913 23.3481 50.791 22.9131 51.035 22.3881C50.965 21.9351 50.615 22.0041 50.615 21.3761L50.617 21.3801Z" fill="#FCDDDB"/>
<path d="M45.545 24.385C43.047 26.54 40.713 29.705 39.107 32.783C38.393 34.151 38.411 35.665 38.393 35.578C37.556 34.218 38.607 31.92 39.088 31.162C41.575 27.238 45.14 22.287 49.518 22.13C48.158 22.444 46.558 23.51 45.544 24.385H45.545Z" fill="#FCDDDB"/>
<path d="M21.327 31.183C22.367 30.143 23.524 30.5 23.792 30.708C24.06 30.916 24.534 32.044 24.95 32.193C25.366 32.342 26.613 32.995 28.068 32.341C29.523 31.687 30.088 31.064 30.118 30.321C30.148 29.578 30.385 29.638 29.495 28.866C28.605 28.094 28.545 28.242 28.069 27.866C27.593 27.49 27.564 27.036 27.921 26.53C28.278 26.024 29.257 26.144 30.001 26.59C30.745 27.036 32.139 28.104 32.317 28.252C32.495 28.4 34.397 30.004 34.93 30.004C35.463 30.004 35.583 30.064 36.118 29.707C36.653 29.35 36.504 29.557 37.188 29.084L38.168 28.371L36.772 31.133L35.672 34.103L35.316 35.351L34.069 33.569L33.475 32.144L32.405 31.254L31.722 30.571L31.128 31.224L30.208 32.738L26.468 34.193L23.885 34.133L21.628 33.925L20.411 32.925" fill="#F59298"/>
<path d="M22.684 23.6001C22.989 25.0001 19.684 24.9671 20.044 27.0121C20.182 27.8021 20.742 27.3681 21.058 27.7641C21.374 28.1601 21.44 28.5561 21.261 28.9121C21.082 29.2681 20.795 29.5581 20.548 29.6241C20.115 29.7401 20.192 29.5341 19.835 29.6841C19.478 29.8341 19.301 30.0401 19.301 30.0401L18.301 30.6931L17.856 31.0191L16.936 30.3361L16.491 29.2361L16.669 27.0981L17.144 25.4661L18.004 23.9821L18.834 23.1801L19.962 23.0301C19.962 23.0301 20.464 22.9481 21.12 22.9401C22.088 22.9301 22.59 23.1301 22.692 23.5961L22.684 23.6001Z" fill="#F59298"/>
<path d="M21.044 20.176L23.468 22.426C23.468 22.426 23.852 22.826 24.288 22.896C24.724 22.966 25.142 23.071 25.508 22.268C25.874 21.465 25.804 21.012 25.838 20.611C25.872 20.21 25.821 19.495 25.873 18.989C25.925 18.483 26.153 18.029 26.448 17.786C26.743 17.543 26.798 17.246 27.425 16.826C28.052 16.406 28.227 16.233 28.471 15.902C28.715 15.571 28.767 14.664 28.733 14.437C28.699 14.21 28.75 13.443 28.681 13.234C28.612 13.025 28.524 12.694 28.331 12.658C28.138 12.622 28.087 12.658 28.001 12.902C27.915 13.146 27.651 13.582 27.651 13.582L27.459 13.948L27.023 14.698L26.623 15.535L26.466 15.885L25.891 16.6L25.368 16.93L24.828 17.035L24.253 16.128L23.747 16.006L23.241 16.216L22.038 17.559L20.66 19.321L20.73 19.827" fill="#F59298"/>
<path d="M53.425 19.9399C52.902 19.1029 51.437 18.7239 50.285 18.9329C46.035 19.9129 40.325 18.5589 38.792 17.6759C38.687 17.6759 39.022 16.8409 38.812 16.5259C39.126 16.3159 39.234 16.1759 39.652 16.2809C40.385 16.5949 41.272 16.4639 42.002 16.3609C41.582 15.5209 41.14 13.9029 40.512 12.9609C39.884 13.4839 38.926 13.8809 38.298 14.3009C37.141 11.1759 33.225 10.6069 30.06 12.4189C29.97 12.4709 29.884 12.4589 29.884 12.4589L28.67 9.81494C27.538 10.4889 26.55 11.3979 26.113 11.3979C25.263 11.3979 24.23 11.3909 23.393 11.2879C23.393 12.7529 23.955 14.4399 24.021 15.6879C22.766 16.9429 21.511 18.1979 20.673 19.7679C19.743 19.5519 18.72 19.4079 17.769 19.8079C17.161 20.0629 16.455 20.8239 16.697 21.6519C16.834 22.1219 17.429 22.6119 18.58 22.9079C16.324 25.0919 15.186 29.6179 17.22 31.1729C16.697 31.6959 16.08 32.1889 15.9 32.8669C15.658 33.7689 16.176 34.0939 16.802 34.2069C17.959 34.4169 18.802 33.8469 19.64 33.3239C21.445 34.3969 22.668 34.3179 24.754 34.4159C24.964 34.4259 25.454 35.0439 25.454 35.0439C25.454 35.0439 24.044 34.8839 23.314 35.1039C22.334 35.3979 21.478 36.3209 22.157 37.1179C23.17 38.3179 25.113 38.7479 26.872 38.3179C27.938 39.4629 27.442 41.3199 25.649 42.0649C27.219 41.9599 29.029 40.9149 29.219 38.7429C29.255 38.3259 29.016 37.6699 28.702 37.3559C28.492 37.1459 28.205 36.8329 28.205 36.8329C28.205 36.8329 29.087 35.1529 27.263 34.2169C27.988 34.0719 29.355 33.4839 29.355 33.4839C29.355 33.4839 29.909 34.1299 30.401 34.2169C30.926 34.3089 31.559 34.0099 31.761 33.4839C32.057 32.7139 31.133 32.1239 31.133 32.1239L31.866 30.9739C31.866 30.9739 32.498 31.5719 32.786 32.0519C33.68 33.5469 33.856 35.0549 34.692 36.5199C35.112 37.2519 35.849 37.8539 36.592 38.1679C37.22 38.3779 37.907 38.4179 38.612 38.2919C39.795 38.0839 40.724 37.6899 41.404 37.2849C46.081 34.4979 49.358 30.8629 52.19 25.7049C52.934 24.3519 54.48 21.6249 53.433 19.9509L53.425 19.9399ZM40.125 13.6999C40.2492 13.9864 40.3891 14.2658 40.544 14.5369L41.16 16.0599L40.315 15.9199L39.525 15.3539C39.525 15.3539 39.413 15.7699 38.975 16.1079C38.763 15.4959 39.221 15.1879 38.58 14.5009C39.103 14.1879 40.126 13.7009 40.126 13.7009L40.125 13.6999ZM28.625 38.7599C28.817 39.8759 27.823 41.0099 27.143 41.4449C27.736 40.5209 28.311 40.1199 27.631 38.2189C27.363 37.4689 26.689 36.9189 26.009 36.4759C25.799 36.3359 25.511 36.2419 25.189 36.1619C24.839 36.0739 24.456 36.3359 24.143 36.6499C24.143 36.6499 25.137 37.1399 25.991 37.2959C26.479 37.9419 25.503 37.9589 25.503 37.9589C25.398 38.0629 22.669 37.6839 22.853 36.3549C22.923 35.8479 23.953 34.8719 26.009 35.6749C27.146 36.1179 28.446 37.7189 28.625 38.7609V38.7599ZM27.475 34.8359C27.988 35.0699 27.998 35.6729 27.998 36.1959C27.998 36.3009 27.893 36.3009 27.788 36.4059C27.458 35.8309 26.934 35.5509 26.428 35.1509C26.312 35.0589 26.254 35.0289 26.358 34.9239C26.672 34.6089 27.091 34.6619 27.474 34.8359H27.475ZM31.289 33.0459C31.094 33.7779 30.415 33.6529 30.347 33.2819C30.287 32.9569 30.685 32.8599 30.827 32.6999C30.941 32.7599 31.327 32.9459 31.29 33.0469L31.289 33.0459ZM35.256 34.9629C34.131 31.5759 30.992 28.4759 29.469 27.5859C29.369 27.5339 29.189 27.8159 29.189 27.8159C29.189 27.8159 30.562 29.1039 30.772 30.0459C30.982 30.8829 30.512 31.7789 29.987 32.4059C27.895 34.3959 25.057 34.0019 22.362 33.8119C21.52 33.7519 20.289 33.1849 20.936 31.9289C19.994 32.6609 18.529 34.0289 17.47 33.6029C17.265 33.5209 16.953 32.9969 17.17 32.5189C17.552 31.7129 18.83 30.4469 19.95 29.8839C20.01 29.7699 19.864 29.5699 19.452 29.7599C19.027 29.9549 18.184 30.7599 17.845 30.6039C15.945 29.6639 17.159 26.1559 17.785 24.9979C18.565 23.5579 19.557 23.3029 20.603 22.9879C19.359 22.7659 18.407 22.6379 17.779 22.0079C17.465 21.5879 17.615 21.2629 17.929 20.8439C18.2378 20.5315 18.6223 20.3044 19.045 20.1849C19.463 20.0629 19.831 20.1129 20.24 20.2009C21.268 20.4229 21.324 20.9439 21.847 20.8389C21.737 20.6049 21.211 20.0989 21.312 19.8889C21.817 18.8329 22.649 17.7109 23.788 16.7539C23.93 16.6339 24.056 16.6069 24.265 16.6069C24.579 16.7119 24.458 17.0269 24.64 17.3339C24.95 17.8589 25.815 17.8539 26.338 17.4359C27.384 16.5989 27.738 15.0289 28.155 13.7729C28.155 13.6679 28.495 13.0129 27.922 13.1979C27.644 14.3459 27.189 15.2909 26.562 16.3379C26.248 16.7579 25.885 17.1399 25.362 16.9309C25.257 16.8259 25.038 16.7679 24.992 16.4429C24.782 14.9429 24.475 12.1389 24.475 12.1389C24.475 12.1389 25.932 12.3319 26.479 12.2069C26.803 12.1329 27.529 11.2719 28.262 10.9569C28.785 11.6889 29.272 12.3819 29.727 13.1029C31.819 12.1609 34.277 11.4029 36.371 12.9729C37.104 13.6009 37.871 14.3729 38.131 15.0729C38.319 15.6029 38.438 16.9129 38.297 17.9089C40.077 18.8509 41.835 19.3819 43.827 19.7809C44.715 19.9589 45.387 20.0309 46.254 20.1009C46.684 20.1349 47.684 20.2769 49.688 19.9249C45.606 20.7619 42.31 23.3829 39.538 26.5819C38.178 28.1499 35.718 31.9879 35.398 33.3619C35.2622 33.88 35.2115 34.4166 35.248 34.9509L35.256 34.9629ZM51.962 24.5829C51.282 26.6029 49.516 29.2449 47.698 31.2259C46.008 33.0659 41.198 37.4779 37.83 37.2909C36.25 37.2039 35.627 35.5709 36.196 33.7539C37.276 30.3009 42.038 23.3099 48.091 20.8039C49.348 20.2839 51.571 20.0439 52.067 20.7119C52.784 21.6749 52.385 23.3289 51.963 24.5839L51.962 24.5829Z" fill="#F7A8AA"/>
<path d="M53.425 19.9399C52.902 19.1029 51.437 18.7239 50.285 18.9329C46.035 19.9129 40.325 18.5589 38.792 17.6759C38.687 17.6759 39.022 16.8409 38.812 16.5259C39.126 16.3159 39.234 16.1759 39.652 16.2809C40.385 16.5949 41.272 16.4639 42.002 16.3609C41.582 15.5209 41.14 13.9029 40.512 12.9609C39.884 13.4839 38.926 13.8809 38.298 14.3009C37.141 11.1759 33.225 10.6069 30.06 12.4189C29.97 12.4709 29.884 12.4589 29.884 12.4589L28.67 9.81494C27.538 10.4889 26.55 11.3979 26.113 11.3979C25.263 11.3979 24.23 11.3909 23.393 11.2879C23.393 12.7529 23.955 14.4399 24.021 15.6879C22.766 16.9429 21.511 18.1979 20.673 19.7679C19.743 19.5519 18.72 19.4079 17.769 19.8079C17.161 20.0629 16.455 20.8239 16.697 21.6519C16.834 22.1219 17.429 22.6119 18.58 22.9079C16.324 25.0919 15.186 29.6179 17.22 31.1729C16.697 31.6959 16.08 32.1889 15.9 32.8669C15.658 33.7689 16.176 34.0939 16.802 34.2069C17.959 34.4169 18.802 33.8469 19.64 33.3239C21.445 34.3969 22.668 34.3179 24.754 34.4159C24.964 34.4259 25.454 35.0439 25.454 35.0439C25.454 35.0439 24.044 34.8839 23.314 35.1039C22.334 35.3979 21.478 36.3209 22.157 37.1179C23.17 38.3179 25.113 38.7479 26.872 38.3179C27.938 39.4629 27.442 41.3199 25.649 42.0649C27.219 41.9599 29.029 40.9149 29.219 38.7429C29.255 38.3259 29.016 37.6699 28.702 37.3559C28.492 37.1459 28.205 36.8329 28.205 36.8329C28.205 36.8329 29.087 35.1529 27.263 34.2169C27.988 34.0719 29.355 33.4839 29.355 33.4839C29.355 33.4839 29.909 34.1299 30.401 34.2169C30.926 34.3089 31.559 34.0099 31.761 33.4839C32.057 32.7139 31.133 32.1239 31.133 32.1239L31.866 30.9739C31.866 30.9739 32.498 31.5719 32.786 32.0519C33.68 33.5469 33.856 35.0549 34.692 36.5199C35.112 37.2519 35.849 37.8539 36.592 38.1679C37.22 38.3779 37.907 38.4179 38.612 38.2919C39.795 38.0839 40.724 37.6899 41.404 37.2849C46.081 34.4979 49.358 30.8629 52.19 25.7049C52.934 24.3519 54.48 21.6249 53.433 19.9519L53.425 19.9399ZM51.96 24.5829C51.28 26.6029 49.514 29.2449 47.696 31.2259C46.006 33.0659 41.196 37.4779 37.828 37.2909C36.248 37.2039 35.625 35.5709 36.194 33.7539C37.274 30.3009 42.036 23.3099 48.089 20.8039C49.346 20.2839 51.569 20.0439 52.065 20.7119C52.782 21.6749 52.383 23.3289 51.961 24.5839L51.96 24.5829Z" fill="#F7A8AA"/>
<path d="M36.507 37.306C38.095 39.046 43.493 36.646 47.695 31.683C51.855 26.768 53.878 21.643 52.683 20.201C51.633 18.937 45.223 20.601 40.658 25.861C36.398 30.771 34.432 35.033 36.508 37.306H36.507Z" fill="#FAC6C5"/>
<path d="M32.706 16.2001C32.46 15.5851 32.311 14.4021 32.834 14.1921C33.197 14.1401 33.444 14.2521 33.618 14.0721C33.792 13.8921 33.878 13.5401 34.276 13.3741C35.531 12.8491 36.996 13.5841 37.52 14.7341C38.044 15.8841 38.025 17.5141 36.873 18.0361C35.408 18.6641 33.333 17.7681 32.706 16.1981V16.2001Z" fill="#FCDDDB"/>
<path d="M50.617 21.3801C50.617 21.0661 50.443 20.7001 50.861 20.4901C51.385 20.3851 51.945 20.6431 52.135 21.0301C53.478 23.7851 50.035 28.4921 47.862 31.0901C45.949 33.3881 43.222 35.5021 40.292 36.8631C39.142 37.2811 37.589 37.8231 36.647 36.7761C37.275 35.6261 38.853 36.3901 39.891 35.9391C40.291 35.7651 41.687 34.6831 42.511 33.9111C42.301 34.3311 45.889 31.5791 47.459 29.3811C48.609 27.9161 49.674 26.5211 50.407 24.9531C50.617 24.5351 51.192 24.6931 51.401 24.2731C51.401 24.1681 51.628 23.9231 51.419 23.9231C50.896 23.9231 50.669 24.2531 50.233 24.4981C50.233 24.0781 50.721 23.8011 51.018 23.2431C50.913 23.3481 50.791 22.9131 51.035 22.3881C50.965 21.9351 50.615 22.0041 50.615 21.3761L50.617 21.3801Z" fill="#FCDDDB"/>
<path d="M45.545 24.385C43.047 26.54 40.713 29.705 39.107 32.783C38.393 34.151 38.411 35.665 38.393 35.578C37.556 34.218 38.607 31.92 39.088 31.162C41.575 27.238 45.14 22.287 49.518 22.13C48.158 22.444 46.558 23.51 45.544 24.385H45.545Z" fill="#FCDDDB"/>
<path d="M21.327 31.183C22.367 30.143 23.524 30.5 23.792 30.708C24.06 30.916 24.534 32.044 24.95 32.193C25.366 32.342 26.613 32.995 28.068 32.341C29.523 31.687 30.088 31.064 30.118 30.321C30.148 29.578 30.385 29.638 29.495 28.866C28.605 28.094 28.545 28.242 28.069 27.866C27.593 27.49 27.564 27.036 27.921 26.53C28.278 26.024 29.257 26.144 30.001 26.59C30.745 27.036 32.139 28.104 32.317 28.252C32.495 28.4 34.397 30.004 34.93 30.004C35.463 30.004 35.583 30.064 36.118 29.707C36.653 29.35 36.504 29.557 37.188 29.084L38.168 28.371L36.772 31.133L35.672 34.103L35.316 35.351L34.069 33.569L33.475 32.144L32.405 31.254L31.722 30.571L31.128 31.224L30.208 32.738L26.468 34.193L23.885 34.133L21.628 33.925L20.411 32.925" fill="#F59298"/>
<path d="M22.684 23.6001C22.989 25.0001 19.684 24.9671 20.044 27.0121C20.182 27.8021 20.742 27.3681 21.058 27.7641C21.374 28.1601 21.44 28.5561 21.261 28.9121C21.082 29.2681 20.795 29.5581 20.548 29.6241C20.115 29.7401 20.192 29.5341 19.835 29.6841C19.478 29.8341 19.301 30.0401 19.301 30.0401L18.301 30.6931L17.856 31.0191L16.936 30.3361L16.491 29.2361L16.669 27.0981L17.144 25.4661L18.004 23.9821L18.834 23.1801L19.962 23.0301C19.962 23.0301 20.464 22.9481 21.12 22.9401C22.088 22.9301 22.59 23.1301 22.692 23.5961L22.684 23.6001Z" fill="#F59298"/>
<path d="M21.044 20.176L23.468 22.426C23.468 22.426 23.852 22.826 24.288 22.896C24.724 22.966 25.142 23.071 25.508 22.268C25.874 21.465 25.804 21.012 25.838 20.611C25.872 20.21 25.821 19.495 25.873 18.989C25.925 18.483 26.153 18.029 26.448 17.786C26.743 17.543 26.798 17.246 27.425 16.826C28.052 16.406 28.227 16.233 28.471 15.902C28.715 15.571 28.767 14.664 28.733 14.437C28.699 14.21 28.75 13.443 28.681 13.234C28.612 13.025 28.524 12.694 28.331 12.658C28.138 12.622 28.087 12.658 28.001 12.902C27.915 13.146 27.651 13.582 27.651 13.582L27.459 13.948L27.023 14.698L26.623 15.535L26.466 15.885L25.891 16.6L25.368 16.93L24.828 17.035L24.253 16.128L23.747 16.006L23.241 16.216L22.038 17.559L20.66 19.321L20.73 19.827" fill="#F59298"/>
<path d="M53.425 19.9399C52.902 19.1029 51.437 18.7239 50.285 18.9329C46.035 19.9129 40.325 18.5589 38.792 17.6759C38.687 17.6759 39.022 16.8409 38.812 16.5259C39.126 16.3159 39.234 16.1759 39.652 16.2809C40.385 16.5949 41.272 16.4639 42.002 16.3609C41.582 15.5209 41.14 13.9029 40.512 12.9609C39.884 13.4839 38.926 13.8809 38.298 14.3009C37.141 11.1759 33.225 10.6069 30.06 12.4189C29.97 12.4709 29.884 12.4589 29.884 12.4589L28.67 9.81494C27.538 10.4889 26.55 11.3979 26.113 11.3979C25.263 11.3979 24.23 11.3909 23.393 11.2879C23.393 12.7529 23.955 14.4399 24.021 15.6879C22.766 16.9429 21.511 18.1979 20.673 19.7679C19.743 19.5519 18.72 19.4079 17.769 19.8079C17.161 20.0629 16.455 20.8239 16.697 21.6519C16.834 22.1219 17.429 22.6119 18.58 22.9079C16.324 25.0919 15.186 29.6179 17.22 31.1729C16.697 31.6959 16.08 32.1889 15.9 32.8669C15.658 33.7689 16.176 34.0939 16.802 34.2069C17.959 34.4169 18.802 33.8469 19.64 33.3239C21.445 34.3969 22.668 34.3179 24.754 34.4159C24.964 34.4259 25.454 35.0439 25.454 35.0439C25.454 35.0439 24.044 34.8839 23.314 35.1039C22.334 35.3979 21.478 36.3209 22.157 37.1179C23.17 38.3179 25.113 38.7479 26.872 38.3179C27.938 39.4629 27.442 41.3199 25.649 42.0649C27.219 41.9599 29.029 40.9149 29.219 38.7429C29.255 38.3259 29.016 37.6699 28.702 37.3559C28.492 37.1459 28.205 36.8329 28.205 36.8329C28.205 36.8329 29.087 35.1529 27.263 34.2169C27.988 34.0719 29.355 33.4839 29.355 33.4839C29.355 33.4839 29.909 34.1299 30.401 34.2169C30.926 34.3089 31.559 34.0099 31.761 33.4839C32.057 32.7139 31.133 32.1239 31.133 32.1239L31.866 30.9739C31.866 30.9739 32.498 31.5719 32.786 32.0519C33.68 33.5469 33.856 35.0549 34.692 36.5199C35.112 37.2519 35.849 37.8539 36.592 38.1679C37.22 38.3779 37.907 38.4179 38.612 38.2919C39.795 38.0839 40.724 37.6899 41.404 37.2849C46.081 34.4979 49.358 30.8629 52.19 25.7049C52.934 24.3519 54.48 21.6249 53.433 19.9509L53.425 19.9399ZM40.125 13.6999C40.2492 13.9864 40.3891 14.2658 40.544 14.5369L41.16 16.0599L40.315 15.9199L39.525 15.3539C39.525 15.3539 39.413 15.7699 38.975 16.1079C38.763 15.4959 39.221 15.1879 38.58 14.5009C39.103 14.1879 40.126 13.7009 40.126 13.7009L40.125 13.6999ZM28.625 38.7599C28.817 39.8759 27.823 41.0099 27.143 41.4449C27.736 40.5209 28.311 40.1199 27.631 38.2189C27.363 37.4689 26.689 36.9189 26.009 36.4759C25.799 36.3359 25.511 36.2419 25.189 36.1619C24.839 36.0739 24.456 36.3359 24.143 36.6499C24.143 36.6499 25.137 37.1399 25.991 37.2959C26.479 37.9419 25.503 37.9589 25.503 37.9589C25.398 38.0629 22.669 37.6839 22.853 36.3549C22.923 35.8479 23.953 34.8719 26.009 35.6749C27.146 36.1179 28.446 37.7189 28.625 38.7609V38.7599ZM27.475 34.8359C27.988 35.0699 27.998 35.6729 27.998 36.1959C27.998 36.3009 27.893 36.3009 27.788 36.4059C27.458 35.8309 26.934 35.5509 26.428 35.1509C26.312 35.0589 26.254 35.0289 26.358 34.9239C26.672 34.6089 27.091 34.6619 27.474 34.8359H27.475ZM31.289 33.0459C31.094 33.7779 30.415 33.6529 30.347 33.2819C30.287 32.9569 30.685 32.8599 30.827 32.6999C30.941 32.7599 31.327 32.9459 31.29 33.0469L31.289 33.0459ZM35.256 34.9629C34.131 31.5759 30.992 28.4759 29.469 27.5859C29.369 27.5339 29.189 27.8159 29.189 27.8159C29.189 27.8159 30.562 29.1039 30.772 30.0459C30.982 30.8829 30.512 31.7789 29.987 32.4059C27.895 34.3959 25.057 34.0019 22.362 33.8119C21.52 33.7519 20.289 33.1849 20.936 31.9289C19.994 32.6609 18.529 34.0289 17.47 33.6029C17.265 33.5209 16.953 32.9969 17.17 32.5189C17.552 31.7129 18.83 30.4469 19.95 29.8839C20.01 29.7699 19.864 29.5699 19.452 29.7599C19.027 29.9549 18.184 30.7599 17.845 30.6039C15.945 29.6639 17.159 26.1559 17.785 24.9979C18.565 23.5579 19.557 23.3029 20.603 22.9879C19.359 22.7659 18.407 22.6379 17.779 22.0079C17.465 21.5879 17.615 21.2629 17.929 20.8439C18.2378 20.5315 18.6223 20.3044 19.045 20.1849C19.463 20.0629 19.831 20.1129 20.24 20.2009C21.268 20.4229 21.324 20.9439 21.847 20.8389C21.737 20.6049 21.211 20.0989 21.312 19.8889C21.817 18.8329 22.649 17.7109 23.788 16.7539C23.93 16.6339 24.056 16.6069 24.265 16.6069C24.579 16.7119 24.458 17.0269 24.64 17.3339C24.95 17.8589 25.815 17.8539 26.338 17.4359C27.384 16.5989 27.738 15.0289 28.155 13.7729C28.155 13.6679 28.495 13.0129 27.922 13.1979C27.644 14.3459 27.189 15.2909 26.562 16.3379C26.248 16.7579 25.885 17.1399 25.362 16.9309C25.257 16.8259 25.038 16.7679 24.992 16.4429C24.782 14.9429 24.475 12.1389 24.475 12.1389C24.475 12.1389 25.932 12.3319 26.479 12.2069C26.803 12.1329 27.529 11.2719 28.262 10.9569C28.785 11.6889 29.272 12.3819 29.727 13.1029C31.819 12.1609 34.277 11.4029 36.371 12.9729C37.104 13.6009 37.871 14.3729 38.131 15.0729C38.319 15.6029 38.438 16.9129 38.297 17.9089C40.077 18.8509 41.835 19.3819 43.827 19.7809C44.715 19.9589 45.387 20.0309 46.254 20.1009C46.684 20.1349 47.684 20.2769 49.688 19.9249C45.606 20.7619 42.31 23.3829 39.538 26.5819C38.178 28.1499 35.718 31.9879 35.398 33.3619C35.2622 33.88 35.2115 34.4166 35.248 34.9509L35.256 34.9629ZM51.962 24.5829C51.282 26.6029 49.516 29.2449 47.698 31.2259C46.008 33.0659 41.198 37.4779 37.83 37.2909C36.25 37.2039 35.627 35.5709 36.196 33.7539C37.276 30.3009 42.038 23.3099 48.091 20.8039C49.348 20.2839 51.571 20.0439 52.067 20.7119C52.784 21.6749 52.385 23.3289 51.963 24.5839L51.962 24.5829Z" fill="black"/>
<path d="M35.2 14.262C34.362 13.434 33.17 16.298 32.843 15.274C33.543 14.574 34.313 13.389 35.343 13.578C36.623 13.81 35.603 15.531 36.265 16.028C36.47 16.182 36.712 15.311 37.06 15.668C36.745 16.512 35.912 16.132 35.912 16.132C35.912 16.132 35.636 17.432 35.244 17.112C35.199 16.977 35.36 16.839 35.432 16.624C35.544 16.291 35.575 15.924 35.3 16.139C35.116 16.289 34.86 16.663 35.013 17.139C35.038 17.219 35.41 17.339 35.168 17.486C35.035 17.626 34.748 17.448 34.671 17.216C34.411 16.446 35.071 15.516 35.676 15.73C35.504 15.317 35.536 14.594 35.19 14.25L35.2 14.262ZM37.55 16.662C37.55 16.547 37.435 16.317 37.205 16.432C37.09 16.547 36.947 16.597 36.897 16.832C36.847 17.067 36.639 17.369 36.753 17.599C37.213 17.829 37.653 17.132 37.549 16.673L37.55 16.662ZM37.312 16.982C37.295 17.18 37.268 17.158 37.174 17.312C37.08 17.466 37.042 17.339 37.014 17.212C36.986 17.085 37.041 17.052 37.102 16.848C37.154 16.674 37.205 16.695 37.23 16.693C37.346 16.683 37.33 16.793 37.312 16.98V16.982ZM42.75 27.3C44.582 25.06 47.338 22.414 49.518 22.076C49.462 23.043 48.166 22.572 48.061 23.304C47.956 23.724 47.647 23.947 47.361 24.474C46.077 26.849 44.348 28.474 42.691 30.494C39.631 34.222 38.884 33.394 38.449 35.397C38.181 32.943 40.867 29.601 42.749 27.3H42.75ZM46.414 27.93C47.282 26.805 49.284 24.675 51.376 23.942C51.62 24.242 50.55 24.592 50.496 24.688C48.766 27.7 48.298 28.008 46.976 29.752C44.476 33.052 42.689 33.445 42.332 35.052C42.267 33.16 44.776 30.052 46.414 27.929V27.93ZM27.74 30.686C27.54 30.162 28.29 29.551 28.66 29.8C28.46 30.073 28.138 30.632 27.74 30.686Z" fill="black"/>
<path d="M101.485 29.625C100.3 29.625 99.353 30.578 99.353 31.758C99.353 32.938 100.3 33.89 101.485 33.89C102.051 33.89 102.593 33.6653 102.993 33.2654C103.393 32.8655 103.618 32.3231 103.618 31.7575C103.618 31.1919 103.393 30.6495 102.993 30.2496C102.593 29.8497 102.051 29.625 101.485 29.625Z" fill="white" stroke="white" stroke-width="1.09" stroke-miterlimit="10"/>
<path d="M55.353 34.697H51.253L51.645 33.621C51.828 33.119 51.892 32.798 51.838 32.661C51.784 32.524 51.633 32.454 51.388 32.454C51.123 32.454 50.888 32.547 50.684 32.732C50.48 32.917 50.31 33.197 50.174 33.572C49.999 34.055 49.944 34.419 50.008 34.664C50.066 34.909 50.375 35.204 50.933 35.551C52.533 36.551 53.473 37.369 53.751 38.009C54.029 38.649 53.909 39.679 53.391 41.099C53.016 42.132 52.596 42.894 52.135 43.383C51.674 43.872 50.975 44.283 50.045 44.615C49.115 44.947 48.109 45.113 47.033 45.113C45.853 45.113 44.913 44.921 44.217 44.538C43.521 44.155 43.151 43.668 43.107 43.075C43.063 42.482 43.24 41.643 43.637 40.555L43.983 39.605H48.073L47.427 41.381C47.227 41.928 47.157 42.281 47.217 42.436C47.277 42.591 47.457 42.671 47.753 42.671C48.049 42.671 48.308 42.571 48.525 42.374C48.742 42.177 48.922 41.882 49.063 41.494C49.375 40.637 49.443 40.077 49.268 39.814C49.088 39.551 48.568 39.114 47.683 38.501C46.81 37.884 46.247 37.433 45.983 37.153C45.719 36.873 45.575 36.483 45.523 35.987C45.471 35.491 45.583 34.857 45.863 34.087C46.267 32.977 46.728 32.164 47.246 31.65C47.764 31.136 48.446 30.733 49.289 30.444C50.132 30.155 51.079 30.01 52.124 30.01C53.267 30.01 54.184 30.17 54.874 30.484C55.564 30.798 55.954 31.198 56.039 31.678C56.124 32.158 55.959 32.973 55.541 34.124L55.353 34.697Z" fill="#FDB913"/>
<path d="M49.108 29.858C48.178 30.178 47.41 30.633 46.828 31.21C46.238 31.793 45.738 32.666 45.298 33.876C45.036 34.596 44.908 35.208 44.908 35.736C44.908 35.836 44.913 35.952 44.925 36.054C44.992 36.68 45.2 37.19 45.542 37.569C45.826 37.883 46.404 38.349 47.302 38.985H43.992C43.732 38.985 43.497 39.149 43.408 39.395L43.062 40.347C42.677 41.404 42.489 42.242 42.489 42.899L42.497 43.126C42.555 43.938 43.037 44.598 43.927 45.088C44.712 45.52 45.761 45.738 47.043 45.738C48.186 45.738 49.269 45.558 50.263 45.204C51.283 44.841 52.069 44.374 52.597 43.814C53.125 43.254 53.577 42.439 53.985 41.316C54.345 40.323 54.525 39.496 54.525 38.822C54.525 38.415 54.46 38.064 54.329 37.764C54.024 37.064 53.165 36.264 51.713 35.322H55.353C55.4807 35.3222 55.6054 35.2829 55.7099 35.2095C55.8144 35.1361 55.8937 35.0322 55.937 34.912L56.145 34.339C56.521 33.306 56.703 32.535 56.703 31.959C56.703 31.819 56.693 31.689 56.67 31.569C56.545 30.869 56.035 30.325 55.153 29.919C54.383 29.567 53.371 29.389 52.143 29.389C51.033 29.389 50.013 29.547 49.107 29.857L49.108 29.858ZM48.953 42.835C49.243 42.57 49.483 42.191 49.657 41.708C50.054 40.616 50.097 39.926 49.797 39.471C49.634 39.234 49.295 38.861 48.05 37.991C47.017 37.261 46.617 36.904 46.465 36.735C46.303 36.555 46.2 36.28 46.161 35.921C46.118 35.523 46.221 34.978 46.467 34.301C46.837 33.281 47.254 32.539 47.704 32.093C48.154 31.647 48.76 31.291 49.511 31.033C50.287 30.767 51.173 30.633 52.144 30.633C53.191 30.633 54.029 30.773 54.634 31.05C54.971 31.204 55.386 31.46 55.446 31.79C55.455 31.8466 55.459 31.9038 55.458 31.961C55.458 32.253 55.371 32.823 54.975 33.911C54.974 33.911 54.947 33.986 54.915 34.074H52.15L52.238 33.834C52.408 33.371 52.488 33.042 52.488 32.784C52.488 32.65 52.468 32.534 52.424 32.43C52.354 32.25 52.11 31.833 51.397 31.833C50.979 31.833 50.591 31.985 50.274 32.273C49.994 32.528 49.772 32.873 49.597 33.361C49.371 33.983 49.314 34.448 49.415 34.826C49.512 35.236 49.883 35.626 50.613 36.081C52.558 37.295 53.061 37.965 53.188 38.258C53.306 38.53 53.416 39.235 52.814 40.888C52.469 41.836 52.09 42.533 51.69 42.958C51.3 43.372 50.677 43.733 49.844 44.03C48.984 44.336 48.041 44.492 47.04 44.492C45.97 44.492 45.123 44.324 44.524 43.994C43.776 43.584 43.744 43.168 43.736 43.032L43.731 42.898C43.731 42.523 43.829 41.87 44.231 40.768L44.428 40.226H47.193L46.851 41.168C46.669 41.666 46.583 42.018 46.583 42.294C46.5811 42.4179 46.6025 42.541 46.646 42.657C46.746 42.895 47.002 43.291 47.763 43.291C48.2042 43.2947 48.6302 43.1306 48.955 42.832L48.953 42.835ZM50.613 34.495C50.613 34.493 50.61 34.478 50.61 34.447C50.61 34.363 50.63 34.165 50.766 33.787C50.892 33.44 51.023 33.273 51.11 33.194C51.12 33.184 51.136 33.187 51.148 33.178L51.07 33.408L50.678 34.485C50.668 34.508 50.67 34.535 50.665 34.56L50.613 34.495ZM48.018 41.595L48.602 39.991L48.742 40.139C48.744 40.149 48.749 40.164 48.749 40.215C48.749 40.35 48.713 40.661 48.487 41.283C48.382 41.571 48.253 41.79 48.114 41.916C48.044 41.981 47.964 42.012 47.879 42.031C47.9186 41.884 47.965 41.7388 48.018 41.596V41.595Z" fill="black"/>
<path d="M67.566 30.322L62.296 44.802H58.443L58.546 38.219L56.15 44.802H52.463L57.733 30.322H61.397L61.505 36.842L63.878 30.322H67.566Z" fill="#FDB913"/>
<path d="M63.88 29.7C63.62 29.7 63.385 29.864 63.296 30.11L62.073 33.47L62.021 30.312C62.0186 30.1487 61.952 29.993 61.8355 29.8786C61.7191 29.7643 61.5622 29.7004 61.399 29.701H57.735C57.473 29.701 57.24 29.865 57.151 30.111L51.881 44.591C51.8465 44.6848 51.8352 44.7857 51.8481 44.8849C51.861 44.984 51.8977 45.0786 51.955 45.1606C52.0124 45.2425 52.0888 45.3094 52.1776 45.3554C52.2664 45.4014 52.365 45.4253 52.465 45.4249H56.152C56.412 45.4249 56.646 45.261 56.736 45.025L57.868 41.9249L57.822 44.823C57.8217 44.9046 57.8376 44.9855 57.8687 45.0611C57.8998 45.1366 57.9455 45.2052 58.0032 45.263C58.0609 45.3208 58.1295 45.3666 58.205 45.3979C58.2804 45.4291 58.3613 45.4451 58.443 45.445H62.296C62.556 45.445 62.791 45.2809 62.88 45.0449L68.15 30.565C68.22 30.375 68.19 30.162 68.075 29.995C67.96 29.828 67.769 29.7299 67.575 29.7299L63.88 29.7ZM66.68 30.944L61.86 44.18H59.074L59.168 38.22C59.168 37.92 58.954 37.662 58.668 37.608C58.382 37.554 58.075 37.7219 57.971 38.0079L55.725 44.1819H53.361L58.179 30.945H60.795L60.895 36.8549C60.897 37.0002 60.95 37.1402 61.0446 37.2504C61.1393 37.3606 61.2697 37.4341 61.413 37.458C61.709 37.508 61.998 37.3379 62.1 37.0579L64.324 30.948H66.688L66.68 30.944Z" fill="black"/>
<path d="M75.388 38.8029L74.142 41.8959C73.842 42.5019 73.388 43.0559 72.782 43.5559C72.176 44.0559 71.465 44.4429 70.648 44.7109C69.831 44.9789 68.943 45.1139 67.986 45.1139C67.078 45.1139 66.306 44.9859 65.676 44.7339C65.046 44.4819 64.601 44.0999 64.346 43.5939C64.091 43.0879 64.029 42.5339 64.162 41.9379C64.295 41.3419 64.632 40.2959 65.177 38.8039L66.079 36.3239L67.324 33.2319C67.624 32.6249 68.079 32.0719 68.684 31.5699C69.289 31.0679 70.001 30.6839 70.818 30.4149C71.635 30.1459 72.523 30.0129 73.481 30.0129C74.389 30.0129 75.159 30.1389 75.791 30.3929C76.423 30.6469 76.866 31.0259 77.121 31.5329C77.376 32.0399 77.438 32.5929 77.304 33.1889C77.17 33.7849 76.834 34.8309 76.29 36.3219L75.388 38.8029ZM72.728 34.0329C72.974 33.3579 73.086 32.9259 73.065 32.7379C73.044 32.5499 72.895 32.4549 72.615 32.4549C72.378 32.4549 72.17 32.5319 71.989 32.6849C71.808 32.8379 71.582 33.2869 71.309 34.0349L68.841 40.8149C68.534 41.6589 68.385 42.1789 68.397 42.3749C68.409 42.5709 68.563 42.6719 68.864 42.6719C69.172 42.6719 69.411 42.5579 69.579 42.3299C69.747 42.1019 69.987 41.5619 70.299 40.7059L72.728 34.0329Z" fill="#FDB913"/>
<path d="M70.626 29.823C69.7745 30.0949 68.9819 30.5251 68.29 31.091C67.62 31.646 67.108 32.273 66.77 32.954C66.458 33.582 66.04 34.614 65.497 36.11C65.497 36.111 64.595 38.59 64.595 38.59L63.557 41.79C63.392 42.527 63.471 43.224 63.792 43.86C64.117 44.504 64.672 44.988 65.446 45.298C66.146 45.58 67.003 45.724 67.986 45.724C69.006 45.724 69.966 45.578 70.842 45.29C71.73 44.998 72.516 44.573 73.179 44.023C73.849 43.468 74.359 42.841 74.699 42.16C75.013 41.527 75.429 40.494 75.973 39.003L76.875 36.523L77.912 33.323C78.077 32.586 77.998 31.889 77.677 31.253C77.353 30.609 76.797 30.126 76.024 29.815C75.324 29.532 74.467 29.389 73.484 29.389C72.464 29.389 71.504 29.535 70.627 29.822L70.626 29.823ZM65.91 44.157C65.41 43.96 65.09 43.684 64.902 43.313C64.702 42.935 64.668 42.529 64.772 42.073C64.898 41.506 65.232 40.477 65.764 39.017L66.666 36.537L67.884 33.509C68.144 32.984 68.548 32.494 69.084 32.049C69.627 31.599 70.276 31.249 71.016 31.006C71.766 30.76 72.596 30.634 73.484 30.634C74.308 30.634 75.007 30.747 75.561 30.97C76.061 31.167 76.381 31.443 76.568 31.814C76.7601 32.1979 76.807 32.6383 76.7 33.054C76.573 33.624 76.24 34.652 75.7 36.11C75.699 36.111 74.797 38.59 74.797 38.59L73.577 41.618C73.317 42.143 72.913 42.633 72.379 43.076C71.836 43.526 71.186 43.876 70.447 44.119C69.697 44.366 68.867 44.492 67.979 44.492C67.154 44.492 66.456 44.378 65.902 44.156L65.91 44.157ZM71.59 32.207C71.393 32.373 71.137 32.695 70.727 33.821L68.259 40.601C67.839 41.749 67.764 42.154 67.779 42.408C67.799 42.815 68.099 43.291 68.867 43.291C69.374 43.291 69.794 43.086 70.082 42.698C70.225 42.505 70.445 42.13 70.887 40.918L73.317 34.244C73.684 33.244 73.713 32.889 73.689 32.667C73.643 32.263 73.339 31.83 72.619 31.83C72.243 31.8288 71.8788 31.9618 71.592 32.205L71.59 32.207ZM69.428 41.027L71.896 34.247C72.126 33.617 72.268 33.35 72.341 33.247L72.145 33.833L69.715 40.506L69.142 41.873L69.426 41.039L69.428 41.027Z" fill="black"/>
<path d="M79.135 30.322H82.252C84.329 30.322 85.712 30.392 86.397 30.527C87.082 30.662 87.555 31.015 87.815 31.577C88.075 32.139 87.979 33.039 87.53 34.271C87.13 35.397 86.68 36.154 86.212 36.541C85.744 36.928 85.012 37.161 84.022 37.238C84.827 37.423 85.322 37.671 85.51 37.981C85.698 38.291 85.78 38.576 85.76 38.836C85.74 39.096 85.515 39.81 85.09 40.98L83.7 44.803H79.612L81.36 40C81.642 39.225 81.745 38.745 81.668 38.56C81.591 38.375 81.248 38.282 80.638 38.282L78.261 44.812H73.865L79.135 30.322ZM82.625 32.809L81.46 36.006C81.96 36.006 82.33 35.949 82.57 35.834C82.81 35.719 83.048 35.344 83.278 34.71L83.566 33.92C83.732 33.464 83.744 33.165 83.603 33.023C83.462 32.881 83.135 32.809 82.623 32.809H82.625Z" fill="#FDB913"/>
<path d="M79.135 29.7C79.0074 29.6997 78.8828 29.7389 78.7783 29.8121C78.6738 29.8853 78.5944 29.989 78.551 30.109L73.281 44.589C73.2465 44.6828 73.2352 44.7837 73.2481 44.8829C73.261 44.982 73.2976 45.0766 73.355 45.1586C73.4124 45.2405 73.4887 45.3074 73.5776 45.3534C73.6664 45.3994 73.765 45.4233 73.865 45.423H78.261C78.3887 45.4231 78.5134 45.3838 78.6179 45.3104C78.7224 45.237 78.8017 45.1331 78.845 45.013L80.978 39.151L80.775 39.775L79.023 44.587C78.9983 44.6552 78.9858 44.7273 78.986 44.8C78.986 44.925 79.024 45.0499 79.098 45.1559C79.1543 45.2366 79.2291 45.3027 79.316 45.3488C79.4029 45.3949 79.4996 45.4196 79.598 45.421H83.686C83.8137 45.4211 83.9384 45.3818 84.0429 45.3084C84.1474 45.235 84.2267 45.1311 84.27 45.011L85.67 41.188C86.27 39.566 86.358 39.105 86.376 38.883L86.381 38.7529C86.381 38.4009 86.267 38.033 86.041 37.658C85.995 37.581 85.927 37.515 85.864 37.458C86.142 37.338 86.398 37.2 86.606 37.028C87.166 36.565 87.659 35.735 88.112 34.492C88.412 33.642 88.575 32.927 88.575 32.335C88.575 31.935 88.509 31.611 88.377 31.335C88.037 30.595 87.393 30.11 86.517 29.935C85.782 29.788 84.387 29.717 82.25 29.717H79.132L79.135 29.7ZM82.252 30.944L86.276 31.137C86.776 31.235 87.076 31.457 87.25 31.837C87.293 31.931 87.335 32.085 87.335 32.331C87.335 32.685 87.247 33.231 86.935 34.061C86.475 35.325 86.065 35.848 85.805 36.063C85.438 36.367 84.818 36.563 83.962 36.619C83.656 36.644 83.412 36.887 83.39 37.193C83.388 37.209 83.388 37.225 83.388 37.24C83.3879 37.3805 83.4355 37.5169 83.5231 37.6268C83.6107 37.7368 83.733 37.8137 83.87 37.845C84.81 38.062 84.97 38.295 84.967 38.305C85.073 38.482 85.129 38.638 85.129 38.758V38.7879C85.125 38.8379 85.073 39.188 84.494 40.77L83.252 44.183H80.487L81.934 40.205C82.208 39.452 82.307 39.011 82.307 38.708C82.3092 38.573 82.284 38.4389 82.233 38.314C81.988 37.728 81.247 37.654 80.628 37.654C80.5004 37.6537 80.3758 37.6929 80.2713 37.7661C80.1668 37.8393 80.0874 37.943 80.044 38.063L77.816 44.183H74.743L79.561 30.946H82.241L82.252 30.944ZM82.04 32.597L80.876 35.797C80.8415 35.8908 80.8302 35.9917 80.8431 36.0909C80.856 36.1901 80.8927 36.2846 80.95 36.3666C81.0074 36.4485 81.0837 36.5154 81.1726 36.5614C81.2614 36.6074 81.36 36.6313 81.46 36.631C82.06 36.631 82.51 36.554 82.84 36.397C83.24 36.202 83.565 35.747 83.865 34.925L84.152 34.125C84.247 33.865 84.536 33.071 84.046 32.577C83.773 32.302 83.334 32.18 82.626 32.18C82.364 32.181 82.131 32.343 82.041 32.58L82.04 32.597ZM83.04 33.459C83.034 33.521 83.013 33.596 82.973 33.707L82.685 34.507L82.505 34.939L83.041 33.469L83.04 33.459Z" fill="black"/>
<path d="M98.607 30.322L97.547 33.232H94.9L90.69 44.804H86.295L90.505 33.232H87.905L88.963 30.322H98.607Z" fill="#FDB913"/>
<path d="M88.964 29.7C88.8364 29.6997 88.7118 29.7389 88.6073 29.8121C88.5028 29.8853 88.4234 29.989 88.38 30.109L87.32 33.0089C87.2854 33.1029 87.2741 33.2038 87.2871 33.3031C87.3 33.4024 87.3368 33.497 87.3943 33.579C87.4518 33.661 87.5283 33.7278 87.6172 33.7737C87.7061 33.8197 87.8049 33.8435 87.905 33.8429H89.617L85.7 44.59C85.6751 44.6582 85.6626 44.7303 85.663 44.803C85.663 44.928 85.701 45.053 85.775 45.159C85.892 45.325 86.081 45.424 86.275 45.424H90.7C90.8277 45.4241 90.9524 45.3848 91.0569 45.3114C91.1614 45.238 91.2407 45.1341 91.284 45.014L95.347 33.854H97.559C97.6867 33.8541 97.8114 33.8148 97.9159 33.7414C98.0204 33.668 98.0997 33.5641 98.143 33.444L99.203 30.534C99.229 30.464 99.24 30.392 99.24 30.321C99.24 30.196 99.202 30.071 99.128 29.965C99.011 29.799 98.822 29.7 98.628 29.7H88.964ZM97.72 30.944L97.113 32.61H94.9C94.64 32.61 94.406 32.7739 94.316 33.0099L90.254 44.1699H87.181L91.089 33.4329C91.1137 33.3647 91.1262 33.2926 91.126 33.22C91.126 33.095 91.088 32.9699 91.014 32.8639C90.897 32.6979 90.708 32.599 90.514 32.599H88.802L89.408 30.933H97.728L97.72 30.944Z" fill="black"/>
</svg>
