<svg width="120" height="60" viewBox="0 0 120 60" fill="none" xmlns="http://www.w3.org/2000/svg">
<path d="M111.482 19.8243V44.2379L108.103 47.5359V23.6452L111.482 19.8243Z" fill="#E79225"/>
<path d="M89.3406 19.8445L85.8414 23.6452L86.0224 23.8866L107.962 23.8061L108.164 23.6452L111.482 19.8243L89.3406 19.8445Z" fill="#FFF16D"/>
<path d="M85.8414 23.6453H108.164V47.5561H85.8414V23.6453Z" fill="url(#paint0_linear)"/>
<path d="M104.765 32.2524C104.323 31.1464 103.659 30.1409 102.794 29.2761C101.97 28.4315 101.045 27.788 99.9989 27.3657C98.9733 26.9434 97.8672 26.7222 96.6606 26.7222C95.454 26.7222 94.3278 26.9434 93.3022 27.3657C92.2565 27.788 91.3315 28.4315 90.5069 29.2761C89.6422 30.1409 88.9987 31.1464 88.5563 32.2524C88.1139 33.3585 87.9128 34.5651 87.9128 35.8923C87.9128 37.1794 88.134 38.386 88.5764 39.5121C89.016 40.6392 89.6796 41.6653 90.5271 42.5286C91.3315 43.3531 92.2565 43.9765 93.2821 44.3989C94.3077 44.8212 95.454 45.0424 96.6807 45.0424C97.8672 45.0424 98.9733 44.8212 99.9989 44.3989C101.024 43.9765 101.97 43.3531 102.794 42.5286C103.659 41.6438 104.323 40.6383 104.765 39.5322C105.207 38.4262 105.429 37.1995 105.429 35.9124C105.429 34.5651 105.207 33.3585 104.765 32.2524ZM100.16 40.1355C99.295 41.1611 98.1487 41.684 96.6606 41.684C95.1725 41.684 94.0061 41.1611 93.1414 40.1355C92.2766 39.1099 91.8543 37.6821 91.8543 35.8722C91.8543 34.0221 92.2967 32.5943 93.1414 31.5486C94.0061 30.5028 95.1524 30.0001 96.6606 30.0001C98.1487 30.0001 99.295 30.523 100.16 31.5486C101.004 32.5943 101.447 34.0221 101.447 35.8722C101.447 37.6821 101.024 39.1099 100.16 40.1355Z" fill="white"/>
<path d="M83.6494 17.8335V17.9542L86.505 39.8942L84.8359 44.5195L84.6147 44.3586L81.6786 23.3235L81.739 23.042L83.569 17.9542L83.6494 17.8335Z" fill="#009ADA"/>
<path d="M61.6692 20.8902L83.6494 17.8335L81.7993 23.1023L81.5379 23.3839L60.9854 26.4004L61.086 22.6398L61.6692 20.8902Z" fill="#91C9ED"/>
<path d="M81.7993 23.1023L84.8359 44.5194L63.1774 47.5561L60.2615 26.8629L61.5284 25.8775L81.7993 23.1023Z" fill="url(#paint1_linear)"/>
<path d="M78.1192 27.2048C78.0186 26.5411 77.7974 26.0384 77.4354 25.6965C77.1338 25.4351 76.7718 25.2943 76.3495 25.2943C76.2489 25.2943 76.1283 25.2943 76.0076 25.3144C75.4445 25.3949 75.0222 25.6563 74.7608 26.0786C74.5597 26.3803 74.4793 26.7623 74.4793 27.2048C74.4793 27.3656 74.4994 27.5466 74.5195 27.7276L75.3038 33.2981L69.0697 34.2232L68.2854 28.6527C68.1848 28.0092 67.9636 27.5064 67.6016 27.1645C67.3 26.883 66.938 26.7422 66.5358 26.7422C66.4353 26.7422 66.3347 26.7422 66.2342 26.7623C65.651 26.8428 65.2086 27.1042 64.927 27.5265C64.7259 27.8282 64.6455 28.2103 64.6455 28.6527C64.6455 28.8136 64.6656 28.9946 64.6857 29.1957L66.8174 43.695C66.9179 44.3586 67.1391 44.8613 67.5413 45.2032C67.843 45.4646 68.2049 45.5853 68.6474 45.5853C68.768 45.5853 68.8887 45.5853 69.0093 45.5652C69.5523 45.4848 69.9545 45.2233 70.2159 44.801C70.3969 44.4994 70.4774 44.1374 70.4774 43.7151C70.4774 43.5542 70.4573 43.3732 70.4372 43.1922L69.5724 37.4609L75.8065 36.5358L76.6713 42.2672C76.7718 42.9308 76.993 43.4335 77.3751 43.7553C77.6768 44.0167 78.0387 44.1575 78.461 44.1575C78.5616 44.1575 78.6823 44.1575 78.8029 44.1374C79.366 44.0569 79.7883 43.7955 80.0497 43.3732C80.2307 43.0716 80.3313 42.7096 80.3313 42.2672C80.3313 42.1063 80.3112 41.9253 80.2911 41.7443L78.1192 27.2048Z" fill="white"/>
<path d="M41.0967 12.2429L33.2739 30.8246L34.3397 38.9892L34.4 38.9691L43.1881 19.201L43.1479 18.7787L41.2575 12.5043L41.0967 12.2429Z" fill="#66BF6B"/>
<path d="M41.0967 12.2429L43.168 19.201L62.5138 27.8684L62.5742 27.8282L60.9251 21.3125L41.0967 12.2429Z" fill="#98D0A0"/>
<path d="M43.1278 19.0602L62.5741 27.8281L53.7861 47.7572L34.3397 38.9892L43.1278 19.0602Z" fill="url(#paint2_linear)"/>
<path d="M56.6819 29.4369C56.2596 28.3108 55.6764 27.3455 54.9122 26.5411C54.148 25.7367 53.223 25.0932 52.137 24.6306C51.0511 24.1681 49.9652 23.9469 48.8591 23.9469H48.7988C47.6726 23.9469 46.5666 24.2083 45.4806 24.691C44.3344 25.1937 43.349 25.8775 42.5044 26.7824C41.6597 27.6672 40.976 28.7532 40.4531 30C39.9303 31.2267 39.6487 32.4735 39.5884 33.7002V34.1226C39.5884 35.2085 39.7694 36.2743 40.1515 37.3201C40.5537 38.4261 41.1369 39.3713 41.9011 40.1757C42.6652 40.9801 43.6104 41.6236 44.7366 42.0861C45.8024 42.5486 46.8883 42.7699 47.9944 42.7699H48.0145C49.1205 42.7699 50.2266 42.5285 51.3125 42.066C52.4588 41.5633 53.4643 40.8594 54.3089 39.9545C55.1535 39.0696 55.8574 38.0038 56.3803 36.757C56.9031 35.5101 57.1847 34.2834 57.245 33.0567V32.6947C57.2651 31.5887 57.0841 30.5028 56.6819 29.4369ZM52.8007 35.2286C52.0767 36.9581 51.0913 38.1446 49.9048 38.7881C49.2613 39.13 48.5977 39.3109 47.9341 39.3109C47.3509 39.3109 46.7275 39.1702 46.104 38.9087C44.7366 38.3256 43.892 37.4005 43.53 36.0732C43.4093 35.6308 43.349 35.1683 43.349 34.6856C43.349 33.7204 43.5903 32.6545 44.0729 31.5083C44.817 29.7386 45.8024 28.532 46.9889 27.8683C47.6324 27.5064 48.296 27.3455 48.9597 27.3455C49.563 27.3455 50.1663 27.4863 50.8098 27.7477C52.1572 28.3309 53.0018 29.2559 53.3638 30.5832C53.4844 31.0055 53.5447 31.468 53.5447 31.9507C53.5447 32.9562 53.3034 34.0421 52.8007 35.2286Z" fill="white"/>
<path d="M31.7254 15.4001L34.9028 36.6765L33.4549 44.1574L33.2538 43.896L30.1568 23.3436V22.9414L31.5243 15.7621L31.7254 15.4001Z" fill="#760D16"/>
<path d="M8.51846 26.4003L10.0267 18.8792L31.7254 15.4001L30.2574 23.0621V23.5648L8.77989 26.6014L8.51846 26.4003Z" fill="#EF463E"/>
<path d="M30.2574 23.0621L33.4549 44.1575L11.9774 47.5159L8.51846 26.4004L30.2574 23.0621Z" fill="url(#paint3_linear)"/>
<path d="M27.9447 40.7991C27.7838 40.598 27.5425 40.4572 27.261 40.3567C26.9794 40.2561 26.6376 40.2159 26.2153 40.2159C25.8332 40.2159 25.3908 40.2561 24.9081 40.3366L19.2371 41.3019C19.2974 40.8594 19.5186 40.2964 19.9007 39.5925C20.323 38.8082 20.9666 37.8631 21.7911 36.7771C22.0064 36.4844 22.2276 36.1961 22.4547 35.9124C22.5553 35.7716 22.7161 35.5906 22.9172 35.3292C24.2244 33.6198 25.0087 32.2323 25.3304 31.1463C25.5114 30.5229 25.612 29.8995 25.6522 29.2761C25.6723 29.0951 25.6723 28.9342 25.6723 28.7733C25.6723 28.3309 25.6321 27.8885 25.5516 27.4461C25.4913 27.0439 25.3908 26.7221 25.25 26.4607C25.1092 26.1993 24.9483 25.9982 24.7472 25.8775C24.526 25.7367 24.1842 25.6764 23.7619 25.6764C23.42 25.6764 22.9977 25.7166 22.4949 25.7971L15.9391 26.9232C15.1548 27.064 14.5515 27.2852 14.1895 27.6472C13.8878 27.9287 13.7471 28.2907 13.7471 28.6929C13.7471 28.7934 13.7471 28.9141 13.7672 29.0348C13.8677 29.5978 14.1493 30 14.6118 30.2011C14.8933 30.3218 15.2151 30.3821 15.6173 30.3821C15.8787 30.3821 16.1804 30.362 16.5021 30.3017L21.9721 29.3364C21.9721 29.437 21.9922 29.5375 21.9922 29.618C21.9925 29.9612 21.9312 30.3018 21.8112 30.6235C21.6503 31.086 21.2481 31.7295 20.5845 32.554L19.7399 33.5997C18.2517 35.3895 17.206 36.9179 16.5625 38.1848C16.0999 39.0697 15.7983 39.9143 15.6173 40.779C15.5168 41.2818 15.4564 41.7443 15.4564 42.2068C15.4564 42.5286 15.4765 42.8503 15.5369 43.152C15.6173 43.5944 15.7179 43.9564 15.8586 44.2379C15.9994 44.5195 16.2005 44.7407 16.4217 44.8613C16.6429 44.982 16.9446 45.0222 17.387 45.0222C17.9299 45.0222 18.674 44.9418 19.6192 44.7809L25.5718 43.7553C26.6175 43.5743 27.3615 43.3129 27.7839 42.971C28.1257 42.6895 28.3067 42.3074 28.3067 41.8649C28.3067 41.7443 28.2866 41.6236 28.2665 41.503C28.2263 41.2415 28.1257 41.0002 27.9447 40.7991Z" fill="white"/>
<defs>
<linearGradient id="paint0_linear" x1="97.0015" y1="23.9875" x2="97.0015" y2="46.8343" gradientUnits="userSpaceOnUse">
<stop offset="0.005618" stop-color="#FFE513"/>
<stop offset="1" stop-color="#FDB924"/>
</linearGradient>
<linearGradient id="paint1_linear" x1="61.3703" y1="26.4021" x2="83.7725" y2="44.3928" gradientUnits="userSpaceOnUse">
<stop offset="0.005618" stop-color="#008CD2"/>
<stop offset="1" stop-color="#00649D"/>
</linearGradient>
<linearGradient id="paint2_linear" x1="48.4573" y1="27.0318" x2="48.4573" y2="47.0481" gradientUnits="userSpaceOnUse">
<stop stop-color="#26A146"/>
<stop offset="1" stop-color="#008A52"/>
</linearGradient>
<linearGradient id="paint3_linear" x1="19.4241" y1="25.0693" x2="22.8678" y2="45.8526" gradientUnits="userSpaceOnUse">
<stop stop-color="#D92231"/>
<stop offset="1" stop-color="#BA2234"/>
</linearGradient>
</defs>
</svg>
