<svg width="93" height="93" viewBox="0 0 93 93" fill="none" xmlns="http://www.w3.org/2000/svg">
<path d="M85.0212 0C82.8998 0 81.1832 1.7175 81.1832 3.84C81.1832 4.4025 81.3256 4.92 81.543 5.4L66.191 26.88C66.0711 26.8725 65.9511 26.88 65.8312 26.88C65.0666 26.88 64.332 27.09 63.7323 27.48L50.4792 20.88C50.3518 18.87 48.6801 17.28 46.6412 17.28C44.5198 17.28 42.8032 18.9975 42.8032 21.12C42.8032 21.3225 42.8332 21.525 42.8632 21.72L28.8305 32.88C28.4032 32.715 27.9385 32.64 27.4512 32.64C25.5322 32.64 23.958 34.0425 23.6732 35.88L10.6 41.16C9.94783 40.65 9.14575 40.32 8.26121 40.32C6.13981 40.32 4.42321 42.0375 4.42321 44.16C4.42321 46.2825 6.13981 48 8.26121 48C10.1952 48 11.7769 46.5675 12.0392 44.7L25.1124 39.48C25.7646 39.99 26.5667 40.32 27.4512 40.32C29.5726 40.32 31.2892 38.6025 31.2892 36.48C31.2892 36.2775 31.2592 36.075 31.2292 35.88L45.2619 24.72C45.6892 24.885 46.154 24.96 46.6412 24.96C47.4058 24.96 48.1404 24.75 48.7401 24.36L61.9932 30.96C62.1206 32.97 63.7923 34.56 65.8312 34.56C67.9526 34.56 69.6692 32.8425 69.6692 30.72C69.6692 30.1575 69.5268 29.64 69.3094 29.16L84.6614 7.68C84.7813 7.6875 84.9013 7.68 85.0212 7.68C87.1426 7.68 88.8592 5.9625 88.8592 3.84C88.8592 1.7175 87.1426 0 85.0212 0ZM77.3452 24.96V92.16H92.6972V24.96H77.3452ZM38.9652 42.24V92.16H54.3172V42.24H38.9652ZM58.1552 51.84V92.16H73.5072V51.84H58.1552ZM19.7752 57.6V92.16H35.1272V57.6H19.7752ZM0.585205 65.28V92.16H15.9372V65.28H0.585205Z" fill="#0066FF"/>
</svg>
