<svg width="96" height="96" viewBox="0 0 96 96" fill="none" xmlns="http://www.w3.org/2000/svg">
<path d="M96 0H0V96H96V0Z" fill="white"/>
<path d="M78 48C78 31.459 64.5469 18 48 18C31.459 18 18.0059 31.459 18.0059 48C18.0059 64.541 31.459 78 48 78C64.5469 78 78 64.541 78 48ZM48 75.5977C32.7832 75.5977 20.4023 63.2168 20.4023 48C20.4023 32.7832 32.7832 20.4023 48 20.4023C63.2227 20.4023 75.6035 32.7832 75.6035 48C75.6035 63.2168 63.2227 75.5977 48 75.5977Z" fill="url(#paint0_linear)"/>
<path d="M75.7734 31.3066L77.8301 30.0703C74.7949 25.0254 70.5 20.8066 65.4023 17.8594L64.2012 19.9336C68.9473 22.6758 72.9492 26.6133 75.7734 31.3066Z" fill="url(#paint1_linear)"/>
<path d="M31.8047 19.9336L30.6035 17.8594C25.3242 20.9121 20.918 25.3184 17.8594 30.5977L19.9336 31.7988C22.7812 26.8828 26.8887 22.7754 31.8047 19.9336Z" fill="url(#paint2_linear)"/>
<path d="M19.9336 64.1953L17.8535 65.3965C20.8008 70.4883 25.0254 74.7891 30.0703 77.8301L31.3066 75.7734C26.6074 72.9434 22.6758 68.9355 19.9336 64.1953Z" fill="url(#paint3_linear)"/>
<path d="M76.0664 64.2012C73.2246 69.1172 69.123 73.2187 64.2012 76.0664L65.4023 78.1406C70.6816 75.0879 75.0879 70.6816 78.1465 65.4023L76.0664 64.2012Z" fill="url(#paint4_linear)"/>
<path d="M57.7441 43.3418C58.418 44.7598 58.8047 46.3301 58.8047 48C58.8047 53.9531 53.9531 58.7988 48 58.7988C42.0527 58.7988 37.2012 53.9531 37.2012 48C37.2012 42.0469 42.0527 37.2012 48 37.2012C49.6699 37.2012 51.2402 37.582 52.6582 38.2559L54.4336 36.4805C52.541 35.4141 50.3438 34.7988 48 34.7988C40.7168 34.7988 34.8047 40.7168 34.8047 48C34.8047 55.2832 40.7168 61.2012 48 61.2012C55.2891 61.2012 61.2012 55.2832 61.2012 48C61.2012 45.6621 60.5918 43.4648 59.5195 41.5664L57.7441 43.3418Z" fill="url(#paint5_linear)"/>
<path d="M51.3047 43.002C50.3555 42.3691 49.2246 42 48 42C44.6953 42 42 44.6895 42 48C42 51.3105 44.6953 54 48 54C51.3105 54 54 51.3105 54 48C54 46.7812 53.6309 45.6445 53.0039 44.6953L63.8496 33.8496L62.1504 32.1504L51.3047 43.002ZM48 51.5977C46.0137 51.5977 44.4023 49.9863 44.4023 48C44.4023 46.0137 46.0137 44.4023 48 44.4023C49.9863 44.4023 51.6035 46.0137 51.6035 48C51.6035 49.9863 49.9863 51.5977 48 51.5977Z" fill="url(#paint6_linear)"/>
<path d="M73.2012 48C73.2012 45.5742 71.3848 43.582 69.0469 43.2656C68.4082 40.3945 67.2422 37.7578 65.6191 35.4727L63.8906 37.2012C65.168 39.082 66.0996 41.2266 66.6504 43.541C64.8691 44.2441 63.6035 45.9727 63.6035 48C63.6035 50.0332 64.875 51.7676 66.668 52.4648C64.998 59.4727 59.4727 64.998 52.4648 66.668C51.7676 64.875 50.0391 63.5977 48 63.5977C45.9668 63.5977 44.2383 64.875 43.541 66.668C36.5332 64.998 31.0078 59.4727 29.3379 52.4648C31.125 51.7676 32.4023 50.0332 32.4023 48C32.4023 45.9668 31.1309 44.2383 29.3438 43.541C31.3887 34.9336 39.0469 28.7988 48 28.7988C51.9727 28.7988 55.7051 30.0117 58.7988 32.1152L60.5273 30.3867C56.9766 27.8672 52.6465 26.4023 48 26.4023C37.834 26.4023 29.1445 33.4336 26.9473 43.2656C24.6152 43.5938 22.8047 45.5801 22.8047 48C22.8047 50.4199 24.6094 52.4062 26.9414 52.7344C28.7578 60.8496 35.1563 67.248 43.2715 69.0645C43.5938 71.3906 45.5801 73.2012 48 73.2012C50.4199 73.2012 52.4121 71.3906 52.7344 69.0586C60.8496 67.2422 67.2422 60.8438 69.0645 52.7344C71.3965 52.4062 73.2012 50.4199 73.2012 48ZM25.2012 48C25.2012 46.6758 26.2793 45.5977 27.6035 45.5977C28.9277 45.5977 30 46.6758 30 48C30 49.3242 28.9277 50.4023 27.6035 50.4023C26.2793 50.4023 25.2012 49.3242 25.2012 48ZM48 70.7988C46.6816 70.7988 45.6035 69.7207 45.6035 68.4023C45.6035 67.0781 46.6816 66 48 66C49.3242 66 50.4023 67.0781 50.4023 68.4023C50.4023 69.7207 49.3242 70.7988 48 70.7988ZM68.4023 50.4023C67.0781 50.4023 66 49.3242 66 48C66 46.6758 67.0781 45.5977 68.4023 45.5977C69.7266 45.5977 70.8047 46.6758 70.8047 48C70.8047 49.3242 69.7266 50.4023 68.4023 50.4023Z" fill="url(#paint7_linear)"/>
<path d="M48 44.4023C46.0137 44.4023 44.4023 46.0137 44.4023 48C44.4023 49.9863 46.0137 51.5977 48 51.5977C49.9922 51.5977 51.6035 49.9863 51.6035 48C51.6035 46.0137 49.9922 44.4023 48 44.4023Z" fill="url(#paint8_linear)"/>
<defs>
<linearGradient id="paint0_linear" x1="48.0024" y1="15.2011" x2="48.0024" y2="81.0101" gradientUnits="userSpaceOnUse">
<stop stop-color="#FF5300"/>
<stop offset="0.666667" stop-color="#FD3010"/>
<stop offset="0.864583" stop-color="#BB2920"/>
<stop offset="1" stop-color="#FF0000"/>
</linearGradient>
<linearGradient id="paint1_linear" x1="71.0167" y1="15.2011" x2="71.0167" y2="81.0101" gradientUnits="userSpaceOnUse">
<stop stop-color="#FF5300"/>
<stop offset="1" stop-color="#45145A"/>
</linearGradient>
<linearGradient id="paint2_linear" x1="24.8321" y1="15.2011" x2="24.8321" y2="81.0101" gradientUnits="userSpaceOnUse">
<stop stop-color="#FF5300"/>
<stop offset="1" stop-color="#45145A"/>
</linearGradient>
<linearGradient id="paint3_linear" x1="24.5813" y1="15.2011" x2="24.5813" y2="81.0101" gradientUnits="userSpaceOnUse">
<stop stop-color="#FF5300"/>
<stop offset="1" stop-color="#45145A"/>
</linearGradient>
<linearGradient id="paint4_linear" x1="71.1727" y1="15.2011" x2="71.1727" y2="81.0101" gradientUnits="userSpaceOnUse">
<stop stop-color="#FF5300"/>
<stop offset="1" stop-color="#45145A"/>
</linearGradient>
<linearGradient id="paint5_linear" x1="48.0024" y1="15.2011" x2="48.0024" y2="81.0101" gradientUnits="userSpaceOnUse">
<stop stop-color="#FF5300"/>
<stop offset="1" stop-color="#45145A"/>
</linearGradient>
<linearGradient id="paint6_linear" x1="52.9259" y1="15.2011" x2="52.9259" y2="81.0101" gradientUnits="userSpaceOnUse">
<stop stop-color="#FF5300"/>
<stop offset="1" stop-color="#45145A"/>
</linearGradient>
<linearGradient id="paint7_linear" x1="48.0024" y1="25.8004" x2="48.0024" y2="73.2607" gradientUnits="userSpaceOnUse">
<stop stop-color="#FF9F70"/>
<stop offset="1" stop-color="#8B28B6"/>
</linearGradient>
<linearGradient id="paint8_linear" x1="48.0024" y1="43.8997" x2="48.0024" y2="51.7031" gradientUnits="userSpaceOnUse">
<stop stop-color="#FF9F70"/>
<stop offset="1" stop-color="#8B28B6"/>
</linearGradient>
</defs>
</svg>
