<svg width="96" height="96" viewBox="0 0 96 96" fill="none" xmlns="http://www.w3.org/2000/svg">
<path d="M70.5 46.5C72.9853 46.5 75 44.4853 75 42C75 39.5147 72.9853 37.5 70.5 37.5C68.0147 37.5 66 39.5147 66 42C66 44.4853 68.0147 46.5 70.5 46.5Z" fill="url(#paint0_linear)"/>
<path d="M42 52.5C44.4853 52.5 46.5 50.4853 46.5 48C46.5 45.5147 44.4853 43.5 42 43.5C39.5147 43.5 37.5 45.5147 37.5 48C37.5 50.4853 39.5147 52.5 42 52.5Z" fill="url(#paint1_linear)"/>
<path d="M79.5 13.5H16.5C13.95 13.5 12 15.45 12 18V78C12 80.55 13.95 82.5 16.5 82.5H79.5C82.05 82.5 84 80.55 84 78V18C84 15.45 82.05 13.5 79.5 13.5ZM42.6 16.5L47.1 25.5H39.9L35.4 16.5H42.6ZM15 18C15 17.1 15.6 16.5 16.5 16.5H32.1L36.6 25.5H15V18ZM81 78C81 78.9 80.4 79.5 79.5 79.5H16.5C15.6 79.5 15 78.9 15 78V76.2C15.45 76.35 15.9 76.5 16.5 76.5H79.5C80.1 76.5 80.55 76.35 81 76.2V78ZM81 72C81 72.9 80.4 73.5 79.5 73.5H16.5C15.6 73.5 15 72.9 15 72V28.5H81V72ZM81 25.5H50.4L45.9 16.5H79.5C80.4 16.5 81 17.1 81 18V25.5Z" fill="url(#paint2_linear)"/>
<path d="M25.5 67.4999C28.8 67.4999 31.5 64.7999 31.5 61.4999C31.5 60.4499 31.2 59.5499 30.9 58.7999L38.55 52.7999C39.6 53.5499 40.8 53.9999 42.15 53.9999C43.35 53.9999 44.55 53.6999 45.45 52.9499L51.9 58.6499C51.3 59.5499 51 60.4499 51 61.4999C51 64.7999 53.7 67.4999 57 67.4999C60.3 67.4999 63 64.7999 63 61.4999C63 59.9999 62.4 58.7999 61.65 57.7499L68.85 47.8499C69.45 47.9999 69.9 48.1499 70.5 48.1499C73.8 48.1499 76.5 45.4499 76.5 42.1499C76.5 38.8499 73.8 36.1499 70.5 36.1499C67.2 36.1499 64.5 38.8499 64.5 42.1499C64.5 43.7999 65.1 45.2999 66.3 46.3499L59.25 56.0999C58.5 55.6499 57.75 55.4999 57 55.4999C55.8 55.4999 54.6 55.7999 53.7 56.5499L47.25 50.8499C47.7 49.9499 48 49.0499 48 48.1499C48 44.8499 45.3 42.1499 42 42.1499C38.7 42.1499 36 44.8499 36 48.1499C36 49.0499 36.15 49.7999 36.6 50.6999L28.95 56.6999C27.9 55.9499 26.7 55.4999 25.5 55.4999C22.2 55.4999 19.5 58.1999 19.5 61.4999C19.5 64.7999 22.2 67.4999 25.5 67.4999ZM70.5 38.9999C72.15 38.9999 73.5 40.3499 73.5 41.9999C73.5 43.6499 72.15 44.9999 70.5 44.9999C68.85 44.9999 67.5 43.6499 67.5 41.9999C67.5 40.3499 68.85 38.9999 70.5 38.9999ZM57 58.4999C58.65 58.4999 60 59.8499 60 61.4999C60 63.1499 58.65 64.4999 57 64.4999C55.35 64.4999 54 63.1499 54 61.4999C54 59.8499 55.35 58.4999 57 58.4999ZM42 44.9999C43.65 44.9999 45 46.3499 45 47.9999C45 49.6499 43.65 50.9999 42 50.9999C40.35 50.9999 39 49.6499 39 47.9999C39 46.3499 40.35 44.9999 42 44.9999ZM25.5 58.4999C27.15 58.4999 28.5 59.8499 28.5 61.4999C28.5 63.1499 27.15 64.4999 25.5 64.4999C23.85 64.4999 22.5 63.1499 22.5 61.4999C22.5 59.8499 23.85 58.4999 25.5 58.4999Z" fill="url(#paint3_linear)"/>
<path d="M36.15 33H20.25V36H36.15V33Z" fill="url(#paint4_linear)"/>
<path d="M30.15 39H20.25V42H30.15V39Z" fill="url(#paint5_linear)"/>
<defs>
<linearGradient id="paint0_linear" x1="70.5" y1="37.8825" x2="70.5" y2="44.7765" gradientUnits="userSpaceOnUse">
<stop stop-color="#6DC7FF"/>
<stop offset="1" stop-color="#E6ABFF"/>
</linearGradient>
<linearGradient id="paint1_linear" x1="42" y1="43.6035" x2="42" y2="50.7405" gradientUnits="userSpaceOnUse">
<stop stop-color="#6DC7FF"/>
<stop offset="1" stop-color="#E6ABFF"/>
</linearGradient>
<linearGradient id="paint2_linear" x1="48" y1="11.2665" x2="48" y2="78.291" gradientUnits="userSpaceOnUse">
<stop stop-color="#A202ED"/>
<stop offset="1" stop-color="#121BFC"/>
</linearGradient>
<linearGradient id="paint3_linear" x1="48" y1="11.2664" x2="48" y2="78.2909" gradientUnits="userSpaceOnUse">
<stop stop-color="#1A6DFF"/>
<stop offset="1" stop-color="#C822FF"/>
</linearGradient>
<linearGradient id="paint4_linear" x1="28.1115" y1="11.2665" x2="28.1115" y2="78.291" gradientUnits="userSpaceOnUse">
<stop stop-color="#4F83DD"/>
<stop offset="1" stop-color="#C822FF"/>
</linearGradient>
<linearGradient id="paint5_linear" x1="25.1115" y1="11.2665" x2="25.1115" y2="78.291" gradientUnits="userSpaceOnUse">
<stop stop-color="#192EE8"/>
<stop offset="1" stop-color="#C822FF"/>
</linearGradient>
</defs>
</svg>
