<svg width="86" height="86" viewBox="0 0 86 86" fill="none" xmlns="http://www.w3.org/2000/svg">
<path d="M48.6667 53.667C47.9594 53.667 47.2811 53.9479 46.781 54.448C46.2809 54.9481 46 55.6264 46 56.3337C46 57.0409 46.2809 57.7192 46.781 58.2193C47.2811 58.7194 47.9594 59.0003 48.6667 59.0003C49.3739 59.0003 50.0522 58.7194 50.5523 58.2193C51.0524 57.7192 51.3333 57.0409 51.3333 56.3337C51.3333 55.6264 51.0524 54.9481 50.5523 54.448C50.0522 53.9479 49.3739 53.667 48.6667 53.667Z" fill="url(#paint0_linear)"/>
<path d="M56.6667 53.667C55.9594 53.667 55.2811 53.9479 54.781 54.448C54.2809 54.9481 54 55.6264 54 56.3337C54 57.0409 54.2809 57.7192 54.781 58.2193C55.2811 58.7194 55.9594 59.0003 56.6667 59.0003C57.3739 59.0003 58.0522 58.7194 58.5523 58.2193C59.0524 57.7192 59.3333 57.0409 59.3333 56.3337C59.3333 55.6264 59.0524 54.9481 58.5523 54.448C58.0522 53.9479 57.3739 53.667 56.6667 53.667Z" fill="url(#paint1_linear)"/>
<path d="M64.6667 53.667C63.9594 53.667 63.2811 53.9479 62.781 54.448C62.2809 54.9481 62 55.6264 62 56.3337C62 57.0409 62.2809 57.7192 62.781 58.2193C63.2811 58.7194 63.9594 59.0003 64.6667 59.0003C65.3739 59.0003 66.0522 58.7194 66.5523 58.2193C67.0524 57.7192 67.3333 57.0409 67.3333 56.3337C67.3333 55.6264 67.0524 54.9481 66.5523 54.448C66.0522 53.9479 65.3739 53.667 64.6667 53.667Z" fill="url(#paint2_linear)"/>
<path d="M40.6667 53.667C39.9594 53.667 39.2811 53.9479 38.781 54.448C38.281 54.9481 38 55.6264 38 56.3337C38 57.0409 38.281 57.7192 38.781 58.2193C39.2811 58.7194 39.9594 59.0003 40.6667 59.0003C41.3739 59.0003 42.0522 58.7194 42.5523 58.2193C43.0524 57.7192 43.3333 57.0409 43.3333 56.3337C43.3333 55.6264 43.0524 54.9481 42.5523 54.448C42.0522 53.9479 41.3739 53.667 40.6667 53.667Z" fill="url(#paint3_linear)"/>
<path d="M70.0281 45.6668H63.3334V41.6668C63.3334 37.9908 60.3428 35.0002 56.6667 35.0002H55.3334V32.3335C55.3334 30.8628 54.1374 29.6668 52.6667 29.6668H50.0001V20.3335C50.0001 13.7162 44.6174 8.3335 38.0001 8.3335C31.3827 8.3335 26.0001 13.7162 26.0001 20.3335V29.6668H23.3334C21.8627 29.6668 20.6667 30.8628 20.6667 32.3335V35.0002H19.3334C15.6574 35.0002 12.6667 37.9908 12.6667 41.6668V71.0002C12.6667 74.6762 15.6574 77.6668 19.3334 77.6668H56.6667C60.3428 77.6668 63.3334 74.6762 63.3334 71.0002V67.0002H70.0281C72.2174 67.0002 74.0001 65.2175 74.0001 63.0282V49.6388C74.0001 47.4495 72.2174 45.6668 70.0281 45.6668ZM52.6667 35.0002H44.6667V32.3335H52.6667V35.0002ZM28.6667 20.3335C28.6667 15.1882 32.8547 11.0002 38.0001 11.0002C43.1454 11.0002 47.3334 15.1882 47.3334 20.3335V29.6668H44.6667C43.1961 29.6668 42.0001 30.8628 42.0001 32.3335V35.0002H34.0001V32.3335C34.0001 30.8628 32.8041 29.6668 31.3334 29.6668H28.6667V20.3335ZM23.3334 32.3335H31.3334V35.0002H23.3334V32.3335ZM60.6667 71.0002C60.6667 73.2055 58.8721 75.0002 56.6667 75.0002H47.3334C47.3334 73.5295 46.1374 72.3335 44.6667 72.3335H31.3334C29.8627 72.3335 28.6667 73.5295 28.6667 75.0002H19.3334C17.1281 75.0002 15.3334 73.2055 15.3334 71.0002V65.6668H20.6667V63.0002H15.3334V60.3335H20.6667V57.6668H15.3334V55.0002H20.6667V52.3335H15.3334V49.6668H20.6667V47.0002H15.3334V41.6668C15.3334 39.4615 17.1281 37.6668 19.3334 37.6668H56.6667C58.8721 37.6668 60.6667 39.4615 60.6667 41.6668V45.6668H35.3054C33.1161 45.6668 31.3334 47.4495 31.3334 49.6388V63.0268C31.3334 65.2175 33.1161 67.0002 35.3054 67.0002H60.6667V71.0002ZM71.3334 63.0282C71.3334 63.7482 70.7481 64.3335 70.0281 64.3335H35.3054C34.5854 64.3335 34.0001 63.7482 34.0001 63.0282V49.6388C34.0001 48.9188 34.5854 48.3335 35.3054 48.3335H70.0267C70.7481 48.3335 71.3334 48.9188 71.3334 49.6388V63.0282Z" fill="url(#paint4_linear)"/>
<defs>
<linearGradient id="paint0_linear" x1="48.6667" y1="53.4443" x2="48.6667" y2="59.239" gradientUnits="userSpaceOnUse">
<stop stop-color="#6DC7FF"/>
<stop offset="1" stop-color="#E6ABFF"/>
</linearGradient>
<linearGradient id="paint1_linear" x1="56.6667" y1="53.4443" x2="56.6667" y2="59.239" gradientUnits="userSpaceOnUse">
<stop stop-color="#6DC7FF"/>
<stop offset="1" stop-color="#E6ABFF"/>
</linearGradient>
<linearGradient id="paint2_linear" x1="64.6667" y1="53.4443" x2="64.6667" y2="59.239" gradientUnits="userSpaceOnUse">
<stop stop-color="#6DC7FF"/>
<stop offset="1" stop-color="#E6ABFF"/>
</linearGradient>
<linearGradient id="paint3_linear" x1="40.6667" y1="53.4443" x2="40.6667" y2="59.239" gradientUnits="userSpaceOnUse">
<stop stop-color="#6DC7FF"/>
<stop offset="1" stop-color="#E6ABFF"/>
</linearGradient>
<linearGradient id="paint4_linear" x1="43.3334" y1="7.44416" x2="43.3334" y2="78.7388" gradientUnits="userSpaceOnUse">
<stop stop-color="#035EFF"/>
<stop offset="1" stop-color="#9014F1"/>
</linearGradient>
</defs>
</svg>
