<svg width="72" height="72" viewBox="0 0 72 72" fill="none" xmlns="http://www.w3.org/2000/svg">
<path d="M35.8594 39C31.7168 39 28.3594 42.3574 28.3594 46.5C28.3594 50.6426 31.7168 54 35.8594 54C40.002 54 43.3594 50.6426 43.3594 46.5C43.3594 42.3574 40.002 39 35.8594 39Z" fill="url(#paint0_linear)"/>
<path d="M67.5 0H4.5C2.02148 0 0 2.02148 0 4.5V51C0 53.4785 2.02148 55.5 4.5 55.5H25.4824V68.9414C25.4824 70.0488 26.0918 71.0625 27.0703 71.584C27.5156 71.8242 28.002 71.9414 28.4824 71.9414C29.0684 71.9414 29.6484 71.7715 30.1465 71.4316L35.9824 67.541L41.8242 71.4316C42.7383 72.0469 43.9219 72.1055 44.9004 71.584C45.8789 71.0625 46.4883 70.0488 46.4883 68.9414V55.5H67.5C69.9785 55.5 72 53.4785 72 51V4.5C72 2.02148 69.9785 0 67.5 0ZM25.3594 46.5C25.3594 40.7109 30.0703 36 35.8594 36C41.6484 36 46.3594 40.7109 46.3594 46.5C46.3594 52.2891 41.6484 57 35.8594 57C30.0703 57 25.3594 52.2891 25.3594 46.5ZM35.8594 33C28.418 33 22.3594 39.0527 22.3594 46.5H9V9H63V46.5H49.3594C49.3594 39.0527 43.3066 33 35.8594 33ZM37.6465 65.0449C36.6387 64.3711 35.332 64.3711 34.3242 65.0449L28.4824 68.9414V57.791C30.6094 59.1855 33.1406 60 35.8594 60C38.6895 60 41.3145 59.1211 43.4824 57.6328V68.9414L37.6465 65.0449ZM69 51C69 51.8262 68.3262 52.5 67.5 52.5H47.9355C48.4102 51.5566 48.7734 50.5547 49.0137 49.5H64.5C65.332 49.5 66 48.832 66 48V7.5C66 6.66797 65.332 6 64.5 6H7.5C6.66797 6 6 6.66797 6 7.5V48C6 48.832 6.66797 49.5 7.5 49.5H22.5C22.5703 49.5 22.6289 49.4707 22.6992 49.459C22.9395 50.5254 23.3086 51.5449 23.7832 52.5H4.5C3.67383 52.5 3 51.8262 3 51V4.5C3 3.67383 3.67383 3 4.5 3H67.5C68.3262 3 69 3.67383 69 4.5V51Z" fill="url(#paint1_linear)"/>
<path d="M24 13.5H48V16.5H24V13.5Z" fill="url(#paint2_linear)"/>
<path d="M19.5 19.5H52.5V22.5H19.5V19.5Z" fill="url(#paint3_linear)"/>
<path d="M15 25.5H57V28.5H15V25.5Z" fill="url(#paint4_linear)"/>
<defs>
<linearGradient id="paint0_linear" x1="35.8605" y1="38.625" x2="35.8605" y2="54.564" gradientUnits="userSpaceOnUse">
<stop stop-color="#A0EED3"/>
<stop offset="1" stop-color="#0CB364"/>
</linearGradient>
<linearGradient id="paint1_linear" x1="36" y1="-2.2665" x2="36" y2="59.952" gradientUnits="userSpaceOnUse">
<stop stop-color="#41DDA7"/>
<stop offset="1" stop-color="#054A29"/>
</linearGradient>
<linearGradient id="paint2_linear" x1="117" y1="14.1588" x2="117" y2="181.371" gradientUnits="userSpaceOnUse">
<stop stop-color="#41DDA7"/>
<stop offset="1" stop-color="#054A29"/>
</linearGradient>
<linearGradient id="paint3_linear" x1="117" y1="14.1588" x2="117" y2="181.371" gradientUnits="userSpaceOnUse">
<stop stop-color="#41DDA7"/>
<stop offset="1" stop-color="#054A29"/>
</linearGradient>
<linearGradient id="paint4_linear" x1="117" y1="14.1588" x2="117" y2="181.371" gradientUnits="userSpaceOnUse">
<stop stop-color="#41DDA7"/>
<stop offset="1" stop-color="#054A29"/>
</linearGradient>
</defs>
</svg>
