<svg width="18" height="18" viewBox="0 0 18 18" fill="none" xmlns="http://www.w3.org/2000/svg">
<path d="M13.4944 6.04117C13.2173 5.74903 12.7554 5.73616 12.4628 6.01393L7.80421 10.432L5.5822 8.15058C5.30077 7.86185 4.83935 7.85552 4.55036 8.13698C4.26162 8.41816 4.25554 8.88008 4.53672 9.16881L7.26105 11.9659C7.40382 12.1126 7.59356 12.1865 7.78379 12.1865C7.96428 12.1865 8.14477 12.1198 8.2861 11.9863L13.4672 7.0728C13.7595 6.79549 13.7719 6.33357 13.4944 6.04117Z" fill="#08BC3A"/>
<path d="M9 0C4.03734 0 0 4.03734 0 9C0 13.9627 4.03734 18 9 18C13.9627 18 18 13.9627 18 9C18 4.03734 13.9627 0 9 0ZM9 16.5406C4.84225 16.5406 1.45944 13.158 1.45944 9C1.45944 4.84225 4.84221 1.45944 9 1.45944C13.158 1.45944 16.5406 4.84221 16.5406 9C16.5406 13.158 13.158 16.5406 9 16.5406Z" fill="#08BC3A"/>
</svg>
